<svg xmlns="http://www.w3.org/2000/svg" xmlns:xlink="http://www.w3.org/1999/xlink" xml:space="preserve" version="1.1" style="shape-rendering:geometricPrecision;text-rendering:geometricPrecision;image-rendering:optimizeQuality;" viewBox="0 0 232 286.25" x="0px" y="0px"  clip-rule="evenodd"><defs><style type="text/css">



  </style></defs><g><path class="" d="M11 113l-7 -2 0 -8 6 -2c3,-10 3,-21 0,-31l-6 -3 0 -8 125 -59 80 65c13,11 23,48 1,52 -4,0 -13,4 -30,6l22 10 0 6 -9 2c-2,9 -3,17 -2,26l41 8 0 6 -5 1c-4,10 -4,24 0,34l5 0 0 5 -72 8 -128 -8c-24,-2 -30,-36 -6,-48 -8,0 -14,0 -16,-2 -14,-10 -13,-48 1,-58zm9 55l78 -9c-8,-18 -6,-39 0,-57l-82 18c-15,3 -12,49 4,48zm141 54l63 -5c-4,-11 -3,-26 0,-37l-61 -9c-31,-5 -34,55 -2,51zm-61 -63l24 4c16,-2 27,-4 33,-3l32 6c-1,-10 0,-18 3,-28l-92 -36c-6,18 -8,39 0,57zm-89 -93c4,12 5,22 1,34l114 -37c5,-14 3,-33 0,-47l-115 50zm118 -50c3,14 5,33 0,47 10,7 71,47 78,47 13,0 8,-30 0,-36l-78 -58z"/></g><text x="0" y="244" fill="#c0ff14" font-size="5px" font-weight="bold" font-family="'Helvetica Neue', Helvetica, Arial-Unicode, Arial, Sans-serif">Created by ani rofiqah</text><text x="0" y="249" fill="#c0ff14" font-size="5px" font-weight="bold" font-family="'Helvetica Neue', Helvetica, Arial-Unicode, Arial, Sans-serif">from the Noun Project</text></svg>