<svg width="201" height="415" viewBox="0 0 201 415" fill="none" xmlns="http://www.w3.org/2000/svg">
<path d="M198.164 69.9068C193.499 73.5835 188.579 76.4852 182.108 76.0329C178.873 75.8068 176.733 74.7918 179.767 71.6502C181.832 69.685 180.916 68.2686 179.464 66.5986C176.944 64.421 174.703 61.7221 171.902 60.0659C145.289 40.8968 115.844 28.237 82.3168 23.7843C68.5851 21.8509 55.2085 22.3765 41.2443 25.241C32.8352 27.1415 31.6119 27.5429 31.0463 35.4547C30.5288 47.6431 30.4191 59.6978 32.4752 71.4711C37.0961 96.5678 109.357 327.827 115.328 352.91C115.81 355.756 116.573 358.081 117.463 360.794C117.844 361.957 118.353 363.507 118.734 364.669C119.116 365.832 120.541 368.798 120.514 370.095C120.795 369.573 124.145 350.876 124.732 348.537C125.039 346.719 125.754 344.768 126.061 342.95C126.495 341.52 126.394 339.836 126.828 338.406C128.183 331.523 133.155 326.028 139.17 322.338C142.585 320.359 146.663 319.021 150.587 318.592C153.976 317.91 156.471 321.383 154.125 323.87C147.242 330.421 148.153 338.706 146.237 346.632C143.12 360.532 140.538 374.686 137.955 388.839C134.811 404.035 123.877 410.628 109.224 414.147C102.573 415.9 96.3825 414.927 91.06 411.093C85.0754 406.618 79.0908 402.143 73.9217 397.4C59.6114 384.067 45.1739 370.346 30.8635 357.014C27.0185 353.553 6.56569 343.524 0.809069 341.12C6.24135 332.899 14.804 330.09 22.8317 327.027C28.413 324.766 33.9416 325.099 39.0099 328.157C43.4161 330.575 47.4146 333.126 50.7248 336.333C59.0769 343.894 67.0212 351.589 75.5004 359.538C76.8245 360.821 78.6834 362.357 81.6122 364.401C77.776 347.202 8.03208 124.99 5.11226 109.207C3.02982 98.7305 1.48222 88.5073 1.03074 77.4953C-0.0301415 63.2493 1.99117 50.1382 9.13336 37.4932C14.0307 29.0187 21.1685 23.243 28.4597 16.5584C38.6314 7.64109 50.4823 2.46523 64.1396 1.41836C84.7021 -0.606368 104.063 3.34315 123.245 9.49784C149.814 17.5211 171.257 31.9476 190.737 50.0231C194.047 53.2295 196.796 57.4785 199.418 61.3399C201.25 64.1725 201.452 67.5403 198.164 69.9068Z" fill="#E50026"/>
</svg>
