<svg width="87" height="113" viewBox="0 0 87 113" fill="none" xmlns="http://www.w3.org/2000/svg">
<g clip-path="url(#clip0_200_27199)">
<path d="M68.6633 86.5695C67.5111 85.7869 66.3134 85.1991 64.8136 85.465C64.0637 85.5979 63.5832 85.8965 64.3459 86.588C64.862 87.0167 64.6736 87.3834 64.3651 87.8248C63.8164 88.4155 63.3423 89.1263 62.719 89.5969C56.8585 94.903 50.2226 98.693 42.4899 100.584C39.3247 101.385 36.1986 101.579 32.8941 101.218C30.9011 100.958 30.6089 100.89 30.3367 98.9776C29.9997 96.0235 29.7602 93.0922 30.0302 90.1772C30.6613 83.9578 43.3925 25.9326 44.3385 19.684C44.4003 18.9796 44.5368 18.3953 44.696 17.7137C44.7642 17.4215 44.8552 17.032 44.9234 16.7399C44.9917 16.4477 45.271 15.6915 45.2419 15.3766C45.3165 15.4967 46.4289 19.9669 46.6074 20.522C46.7111 20.957 46.9123 21.4148 47.0161 21.8498C47.1426 22.1874 47.149 22.5996 47.2755 22.9373C47.7134 24.5799 48.9694 25.7975 50.4365 26.5509C51.2674 26.9504 52.2412 27.1778 53.1631 27.1878C53.9649 27.2723 54.4844 26.3668 53.8938 25.8181C52.1736 24.3894 52.239 22.3508 51.6519 20.4679C50.6788 17.1599 49.8258 13.7772 48.9728 10.3946C47.9705 6.77165 45.3057 5.43041 41.8292 4.9265C40.2484 4.65997 38.8233 5.04594 37.6512 6.10717C36.3362 7.34042 35.0213 8.57366 33.9011 9.85239C30.8035 13.4419 27.6831 17.1289 24.5855 20.7184C23.7511 21.6531 19.1636 24.5866 17.865 25.3102C19.2767 27.1803 21.3216 27.6579 23.2465 28.2102C24.587 28.626 25.8693 28.412 26.9959 27.5456C27.9796 26.8511 28.866 26.1339 29.5803 25.2738C31.3921 23.2324 33.1065 21.1683 34.9411 19.0295C35.2268 18.6854 35.6327 18.2668 36.2788 17.6988C35.6903 21.9771 23.3849 77.7398 22.9847 81.6513C22.6855 84.2514 22.5064 86.7768 22.5967 89.4679C22.6024 92.9608 23.3062 96.1032 25.1948 99.0089C26.4863 100.954 28.2519 102.188 30.0695 103.639C32.5978 105.564 35.4509 106.539 38.6516 106.465C43.4786 106.463 47.9197 105.035 52.2797 103.076C58.3278 100.483 63.068 96.456 67.2858 91.5877C68.0002 90.7277 68.5652 89.6274 69.1076 88.6244C69.4843 87.8909 69.4715 87.0664 68.6633 86.5695Z" fill="black"/>
</g>
<defs>
<clipPath id="clip0_200_27199">
<rect width="64.3" height="99.9" fill="white" transform="translate(63.5869 112.7) rotate(-166.853)"/>
</clipPath>
</defs>
</svg>
