<svg width="250" height="161" viewBox="0 0 250 161" fill="none" xmlns="http://www.w3.org/2000/svg">
<g clip-path="url(#clip0_200_25291)">
<path d="M5.91641 150.186L1.71641 148.586C0.916406 148.286 0.316406 147.386 0.316406 146.386V116.486C0.316406 115.486 0.816406 114.586 1.71641 114.286L5.91641 112.686V150.186Z" fill="#187A66"/>
<path d="M244.116 150.186L248.316 148.586C249.116 148.286 249.716 147.386 249.716 146.386V116.486C249.716 115.486 249.216 114.586 248.316 114.286L244.116 112.686V150.186Z" fill="#187A66"/>
<path d="M240.916 0.48584H9.11641C5.61641 0.48584 2.81641 3.28584 2.81641 6.68584V154.786C2.81641 158.186 5.61641 160.986 9.01641 160.986H240.916C244.316 160.986 247.116 158.186 247.116 154.786V6.68584C247.216 3.28584 244.416 0.48584 240.916 0.48584ZM72.1164 82.7858C64.4164 82.7858 58.1164 76.4858 58.1164 68.7858C58.1164 61.0858 64.4164 54.7858 72.1164 54.7858C79.8164 54.7858 86.1164 61.0858 86.1164 68.7858C86.1164 76.4858 79.8164 82.7858 72.1164 82.7858ZM146.516 68.7858C146.516 70.2858 145.316 71.3858 143.916 71.3858H106.216C104.716 71.3858 103.616 70.1858 103.616 68.7858V59.0858C103.616 57.5858 104.816 56.4858 106.216 56.4858H143.916C145.416 56.4858 146.516 57.6858 146.516 59.0858V68.7858ZM177.916 82.7858C170.216 82.7858 163.916 76.4858 163.916 68.7858C163.916 61.0858 170.216 54.7858 177.916 54.7858C185.616 54.7858 191.916 61.0858 191.916 68.7858C191.916 76.4858 185.616 82.7858 177.916 82.7858Z" fill="#15997F"/>
<path d="M224.816 14.0859H25.2162C21.4162 17.8859 19.3162 19.9859 15.6162 23.7859V106.986C15.6162 107.786 16.2162 108.386 17.0162 108.386H233.116C233.916 108.386 234.516 107.786 234.516 106.986V23.7859C230.716 19.9859 228.616 17.8859 224.816 14.0859ZM72.1162 82.7859C64.4162 82.7859 58.1162 76.4859 58.1162 68.7859C58.1162 61.0859 64.4162 54.7859 72.1162 54.7859C79.8162 54.7859 86.1162 61.0859 86.1162 68.7859C86.1162 76.4859 79.8162 82.7859 72.1162 82.7859ZM146.516 68.7859C146.516 70.2859 145.316 71.3859 143.916 71.3859H106.216C104.716 71.3859 103.616 70.1859 103.616 68.7859V59.0859C103.616 57.5859 104.816 56.4859 106.216 56.4859H143.916C145.416 56.4859 146.516 57.6859 146.516 59.0859V68.7859ZM177.916 82.7859C170.216 82.7859 163.916 76.4859 163.916 68.7859C163.916 61.0859 170.216 54.7859 177.916 54.7859C185.616 54.7859 191.916 61.0859 191.916 68.7859C191.916 76.4859 185.616 82.7859 177.916 82.7859Z" fill="#1ED9B5"/>
<path d="M191.916 68.7856C191.916 76.4856 185.616 82.7856 177.916 82.7856C170.216 82.7856 163.916 76.4856 163.916 68.7856H146.516C146.516 70.1856 145.316 71.3856 143.916 71.3856H106.216C104.816 71.3856 103.616 70.2856 103.616 68.7856H86.1164C86.1164 76.4856 79.8164 82.7856 72.1164 82.7856C64.4164 82.7856 58.1164 76.4856 58.1164 68.7856H53.3164V108.286H196.616V68.7856H191.916Z" fill="#8CFFE3"/>
<path d="M178.116 50.2856H71.9164C61.6164 50.2856 53.3164 58.5856 53.3164 68.7856C53.3164 78.9856 61.6164 87.2856 71.8164 87.2856H178.016C188.216 87.2856 196.616 78.9856 196.616 68.7856C196.616 58.5856 188.416 50.2856 178.116 50.2856ZM72.1164 82.7856C64.4164 82.7856 58.1164 76.4856 58.1164 68.7856C58.1164 61.0856 64.4164 54.7856 72.1164 54.7856C79.8164 54.7856 86.1164 61.0856 86.1164 68.7856C86.1164 76.4856 79.8164 82.7856 72.1164 82.7856ZM146.516 68.7856C146.516 70.2856 145.316 71.3856 143.916 71.3856H106.216C104.716 71.3856 103.616 70.1856 103.616 68.7856V59.0856C103.616 57.5856 104.816 56.4856 106.216 56.4856H143.916C145.416 56.4856 146.516 57.6856 146.516 59.0856V68.7856ZM177.916 82.7856C170.216 82.7856 163.916 76.4856 163.916 68.7856C163.916 61.0856 170.216 54.7856 177.916 54.7856C185.616 54.7856 191.916 61.0856 191.916 68.7856C191.916 76.4856 185.616 82.7856 177.916 82.7856Z" fill="#15997F"/>
<path d="M72.1166 54.6855C64.3166 54.6855 58.0166 60.9855 58.0166 68.7855C58.0166 76.5855 64.3166 82.9855 72.1166 82.9855C79.9166 82.9855 86.3166 76.5855 86.3166 68.7855C86.3166 60.9855 79.9166 54.6855 72.1166 54.6855ZM76.8166 79.5855C73.8166 80.8855 70.5166 80.8855 67.6166 79.6855L68.4166 78.1855L65.9166 76.7855L65.1166 78.2855C63.9166 77.3855 62.8166 76.1855 62.0166 74.7855C61.2166 73.3855 60.7166 71.8855 60.5166 70.3855H62.2166V67.5855H60.5166C60.8166 64.4855 62.4166 61.5855 65.0166 59.5855L65.9166 61.0855L68.3166 59.5855L67.4166 58.0855C70.4166 56.7855 73.7166 56.7855 76.6166 57.9855L75.7166 59.4855L78.2166 60.8855L79.0166 59.3855C80.2166 60.2855 81.3166 61.4855 82.1166 62.8855C82.9166 64.2855 83.4166 65.7855 83.6166 67.2855H81.9166V70.0855H83.6166C83.3166 73.1855 81.7166 76.0855 79.1166 78.0855L78.2166 76.5855L75.8166 78.0855L76.8166 79.5855Z" fill="#404040"/>
<path d="M177.916 54.6855C170.116 54.6855 163.816 60.9855 163.816 68.7855C163.816 76.5855 170.116 82.8855 177.916 82.8855C185.716 82.8855 192.016 76.5855 192.016 68.7855C192.016 60.9855 185.716 54.6855 177.916 54.6855ZM182.616 79.5855C179.616 80.8855 176.316 80.8855 173.416 79.6855L174.216 78.1855L171.716 76.7855L170.916 78.2855C169.716 77.3855 168.616 76.1855 167.816 74.7855C167.016 73.3855 166.516 71.8855 166.316 70.3855H168.016V67.5855H166.316C166.616 64.4855 168.216 61.5855 170.816 59.5855L171.716 61.0855L174.116 59.5855L173.216 58.0855C176.216 56.7855 179.516 56.7855 182.416 57.9855L181.616 59.4855L184.116 60.8855L184.916 59.3855C186.116 60.2855 187.216 61.4855 188.016 62.8855C188.816 64.2855 189.316 65.7855 189.516 67.2855H187.816V70.0855H189.516C189.216 73.1855 187.616 76.0855 185.016 78.0855L184.116 76.5855L181.716 78.0855L182.616 79.5855Z" fill="#404040"/>
<path d="M178.117 85.7856H71.9165C62.5165 85.7856 54.9165 78.1856 54.9165 68.7856C54.9165 59.3856 62.5165 51.7856 71.9165 51.7856H178.117C187.517 51.7856 195.117 59.3856 195.117 68.7856C195.117 78.1856 187.517 85.7856 178.117 85.7856ZM71.9165 52.8856C63.1165 52.8856 56.0165 59.9856 56.0165 68.7856C56.0165 77.5856 63.1165 84.6856 71.9165 84.6856H178.117C186.917 84.6856 194.017 77.5856 194.017 68.7856C194.017 59.9856 186.917 52.8856 178.117 52.8856H71.9165Z" fill="#8CFFE3"/>
<path d="M119.416 68.0855C119.416 72.3855 118.816 76.5855 117.716 80.4855H108.316C103.316 80.4855 99.0164 77.5855 97.0164 73.3855C96.2164 71.7855 95.8164 69.9855 95.8164 68.0855C95.8164 66.1855 96.2164 64.3855 97.0164 62.7855C97.6164 61.4855 98.4164 60.2855 99.5164 59.2855C101.716 56.9855 104.916 55.6855 108.316 55.6855H117.716C118.916 59.6855 119.416 63.7855 119.416 68.0855Z" fill="url(#paint0_linear_200_25291)"/>
<path d="M152.716 68.2855C152.616 71.6855 151.116 74.7855 148.816 76.9855C147.416 78.2855 145.616 79.2855 143.716 79.8855C142.516 76.1855 141.816 72.1855 142.016 67.9855C142.116 63.7855 143.016 59.8855 144.516 56.1855C149.416 57.9855 152.916 62.7855 152.716 68.2855Z" fill="url(#paint1_linear_200_25291)"/>
<path opacity="0.12" d="M143.916 71.3854H106.216C104.716 71.3854 103.616 70.1854 103.616 68.7854V59.0854C103.616 57.5854 104.816 56.4854 106.216 56.4854H143.916C145.416 56.4854 146.516 57.6854 146.516 59.0854V68.7854C146.516 70.1854 145.316 71.3854 143.916 71.3854Z" fill="#B1EDE4"/>
<path d="M125.017 82.2857C124.717 82.2857 124.517 82.0857 124.517 81.7857V75.3857C124.517 75.0857 124.717 74.8857 125.017 74.8857C125.317 74.8857 125.517 75.0857 125.517 75.3857V81.7857C125.517 82.0857 125.317 82.2857 125.017 82.2857Z" fill="#334545"/>
<path d="M119.816 80.3856C119.516 80.3856 119.316 80.1856 119.316 79.8856V77.2856C119.316 76.9856 119.516 76.7856 119.816 76.7856C120.116 76.7856 120.316 76.9856 120.316 77.2856V79.8856C120.416 80.1856 120.116 80.3856 119.816 80.3856Z" fill="#334545"/>
<path d="M114.716 80.3856C114.416 80.3856 114.216 80.1856 114.216 79.8856V77.2856C114.216 76.9856 114.416 76.7856 114.716 76.7856C115.016 76.7856 115.216 76.9856 115.216 77.2856V79.8856C115.216 80.1856 115.016 80.3856 114.716 80.3856Z" fill="#334545"/>
<path d="M109.517 80.3856C109.217 80.3856 109.017 80.1856 109.017 79.8856V77.2856C109.017 76.9856 109.217 76.7856 109.517 76.7856C109.817 76.7856 110.017 76.9856 110.017 77.2856V79.8856C110.017 80.1856 109.817 80.3856 109.517 80.3856Z" fill="#334545"/>
<path d="M104.316 80.3856C104.016 80.3856 103.816 80.1856 103.816 79.8856V77.2856C103.816 76.9856 104.016 76.7856 104.316 76.7856C104.616 76.7856 104.816 76.9856 104.816 77.2856V79.8856C104.916 80.1856 104.616 80.3856 104.316 80.3856Z" fill="#334545"/>
<path d="M130.216 80.3856C129.916 80.3856 129.716 80.1856 129.716 79.8856V77.2856C129.716 76.9856 129.916 76.7856 130.216 76.7856C130.516 76.7856 130.716 76.9856 130.716 77.2856V79.8856C130.716 80.1856 130.516 80.3856 130.216 80.3856Z" fill="#334545"/>
<path d="M135.316 80.3856C135.016 80.3856 134.816 80.1856 134.816 79.8856V77.2856C134.816 76.9856 135.016 76.7856 135.316 76.7856C135.616 76.7856 135.816 76.9856 135.816 77.2856V79.8856C135.916 80.1856 135.616 80.3856 135.316 80.3856Z" fill="#334545"/>
<path d="M140.516 80.3856C140.216 80.3856 140.016 80.1856 140.016 79.8856V77.2856C140.016 76.9856 140.216 76.7856 140.516 76.7856C140.816 76.7856 141.016 76.9856 141.016 77.2856V79.8856C141.016 80.1856 140.816 80.3856 140.516 80.3856Z" fill="#334545"/>
<path d="M145.716 80.3856C145.416 80.3856 145.216 80.1856 145.216 79.8856V77.2856C145.216 76.9856 145.416 76.7856 145.716 76.7856C146.016 76.7856 146.216 76.9856 146.216 77.2856V79.8856C146.216 80.1856 146.016 80.3856 145.716 80.3856Z" fill="#334545"/>
<path d="M234.516 114.986H15.6162V116.386H234.516V114.986Z" fill="#E6D6CA"/>
<path d="M234.516 113.586H15.6162V114.986H234.516V113.586Z" fill="#8CFFE3"/>
<path d="M214.116 147.686C215.616 146.286 216.916 145.086 218.216 143.786C219.516 142.586 220.616 141.486 221.516 140.386C222.416 139.286 223.216 138.286 223.716 137.386C224.216 136.386 224.516 135.486 224.516 134.686C224.516 133.586 224.216 132.686 223.716 132.186C223.116 131.686 222.416 131.386 221.516 131.386C220.716 131.386 219.916 131.586 219.316 132.086C218.716 132.586 218.016 133.086 217.416 133.686L213.816 130.086C214.516 129.386 215.116 128.786 215.716 128.286C216.316 127.786 217.016 127.386 217.716 126.986C218.416 126.686 219.116 126.386 219.916 126.286C220.716 126.086 221.516 126.086 222.416 126.086C223.716 126.086 224.816 126.286 225.916 126.686C226.916 127.086 227.916 127.586 228.616 128.386C229.416 129.086 230.016 129.986 230.416 130.986C230.816 131.986 231.016 133.086 231.016 134.386C231.016 135.386 230.816 136.386 230.416 137.386C230.016 138.386 229.416 139.486 228.716 140.486C228.016 141.486 227.216 142.486 226.416 143.486C225.516 144.486 224.716 145.386 223.916 146.286C224.516 146.186 225.216 146.086 226.016 146.086C226.816 145.986 227.516 145.986 228.016 145.986H232.216V151.686H214.116V147.686Z" fill="#187A66"/>
<path d="M198.616 161.086H184.716V122.486H186.916C193.016 122.486 194.716 128.086 195.416 134.886C196.416 144.286 198.616 161.086 198.616 161.086Z" fill="#094035"/>
<path d="M51.416 161.086H65.316V122.486H63.116C57.016 122.486 55.316 128.086 54.616 134.886C53.616 144.286 51.416 161.086 51.416 161.086Z" fill="#094035"/>
<path d="M196.716 161.086H53.3159L56.9159 127.686C57.2159 124.486 59.9159 122.086 63.1159 122.086H186.816C190.016 122.086 192.616 124.486 193.016 127.686L196.716 161.086Z" fill="#006652"/>
<path d="M193.855 134.986H56.1475V135.286H193.855V134.986Z" fill="#187A66"/>
<path d="M194.154 137.786H55.8008V138.086H194.154V137.786Z" fill="#187A66"/>
<path d="M194.416 140.686H55.4976V140.986H194.416V140.686Z" fill="#187A66"/>
<path d="M194.805 143.486H55.209V143.786H194.805V143.486Z" fill="#187A66"/>
<path d="M195.105 146.286H54.877V146.586H195.105V146.286Z" fill="#187A66"/>
<path d="M195.439 149.186H54.6172V149.486H195.439V149.186Z" fill="#187A66"/>
<path d="M195.668 151.986H54.2705V152.286H195.668V151.986Z" fill="#187A66"/>
<path d="M196.055 154.786H54.0215V155.086H196.055V154.786Z" fill="#187A66"/>
<path d="M196.354 157.686H53.7075V157.986H196.354V157.686Z" fill="#187A66"/>
<path d="M193.52 132.186H56.4648V132.486H193.52V132.186Z" fill="#187A66"/>
<path d="M193.239 129.286H56.7534V129.586H193.239V129.286Z" fill="#187A66"/>
<path d="M192.693 126.486H57.4751V126.786H192.693V126.486Z" fill="#187A66"/>
<path d="M190.516 123.586H60.3188V123.886H190.516V123.586Z" fill="#187A66"/>
<path d="M183.416 123.585H183.116V160.323H183.416V123.585Z" fill="#187A66"/>
<path d="M180.516 123.585H180.216V160.323H180.516V123.585Z" fill="#187A66"/>
<path d="M177.716 123.585H177.416V160.323H177.716V123.585Z" fill="#187A66"/>
<path d="M174.916 123.585H174.616V160.323H174.916V123.585Z" fill="#187A66"/>
<path d="M172.016 123.585H171.716V160.323H172.016V123.585Z" fill="#187A66"/>
<path d="M169.216 123.585H168.916V160.323H169.216V123.585Z" fill="#187A66"/>
<path d="M166.316 123.585H166.016V160.323H166.316V123.585Z" fill="#187A66"/>
<path d="M163.516 123.585H163.216V160.323H163.516V123.585Z" fill="#187A66"/>
<path d="M160.716 123.585H160.416V160.323H160.716V123.585Z" fill="#187A66"/>
<path d="M157.816 123.585H157.516V160.323H157.816V123.585Z" fill="#187A66"/>
<path d="M186.216 123.585H185.916V160.323H186.216V123.585Z" fill="#187A66"/>
<path d="M189.016 123.585H188.716V160.323H189.016V123.585Z" fill="#187A66"/>
<path d="M191.916 124.766H191.616V160.323H191.916V124.766Z" fill="#187A66"/>
<path d="M194.716 143.661H194.416V160.323H194.716V143.661Z" fill="#187A66"/>
<path d="M143.716 123.585H143.416V160.323H143.716V123.585Z" fill="#187A66"/>
<path d="M140.916 123.585H140.616V160.323H140.916V123.585Z" fill="#187A66"/>
<path d="M138.016 123.585H137.716V160.323H138.016V123.585Z" fill="#187A66"/>
<path d="M135.216 123.585H134.916V160.323H135.216V123.585Z" fill="#187A66"/>
<path d="M132.416 123.585H132.116V160.323H132.416V123.585Z" fill="#187A66"/>
<path d="M129.516 123.585H129.216V160.323H129.516V123.585Z" fill="#187A66"/>
<path d="M126.716 123.585H126.416V160.323H126.716V123.585Z" fill="#187A66"/>
<path d="M123.816 123.585H123.516V160.323H123.816V123.585Z" fill="#187A66"/>
<path d="M121.016 123.585H120.716V160.323H121.016V123.585Z" fill="#187A66"/>
<path d="M118.216 123.585H117.916V160.323H118.216V123.585Z" fill="#187A66"/>
<path d="M146.516 123.585H146.216V160.323H146.516V123.585Z" fill="#187A66"/>
<path d="M149.416 123.585H149.116V160.323H149.416V123.585Z" fill="#187A66"/>
<path d="M152.216 123.585H151.916V160.323H152.216V123.585Z" fill="#187A66"/>
<path d="M155.016 123.585H154.716V160.323H155.016V123.585Z" fill="#187A66"/>
<path d="M104.016 123.585H103.716V160.323H104.016V123.585Z" fill="#187A66"/>
<path d="M101.217 123.585H100.917V160.323H101.217V123.585Z" fill="#187A66"/>
<path d="M98.4162 123.585H98.1162V160.323H98.4162V123.585Z" fill="#187A66"/>
<path d="M95.5163 123.585H95.2163V160.323H95.5163V123.585Z" fill="#187A66"/>
<path d="M92.7165 123.585H92.4165V160.323H92.7165V123.585Z" fill="#187A66"/>
<path d="M89.9162 123.585H89.6162V160.323H89.9162V123.585Z" fill="#187A66"/>
<path d="M87.0163 123.585H86.7163V160.323H87.0163V123.585Z" fill="#187A66"/>
<path d="M84.2165 123.585H83.9165V160.323H84.2165V123.585Z" fill="#187A66"/>
<path d="M81.3161 123.585H81.0161V160.323H81.3161V123.585Z" fill="#187A66"/>
<path d="M78.5163 123.585H78.2163V160.323H78.5163V123.585Z" fill="#187A66"/>
<path d="M106.916 123.585H106.616V160.323H106.916V123.585Z" fill="#187A66"/>
<path d="M109.717 123.585H109.417V160.323H109.717V123.585Z" fill="#187A66"/>
<path d="M112.616 123.585H112.216V160.323H112.616V123.585Z" fill="#187A66"/>
<path d="M115.416 123.585H115.116V160.323H115.416V123.585Z" fill="#187A66"/>
<path d="M64.4162 123.585H64.1162V160.323H64.4162V123.585Z" fill="#187A66"/>
<path d="M61.5163 123.585H61.2163V160.323H61.5163V123.585Z" fill="#187A66"/>
<path d="M58.716 124.817H58.416V160.323H58.716V124.817Z" fill="#187A66"/>
<path d="M55.9162 140.841H55.6162V160.323H55.9162V140.841Z" fill="#187A66"/>
<path d="M67.216 123.585H66.916V160.323H67.216V123.585Z" fill="#187A66"/>
<path d="M70.0163 123.585H69.7163V160.323H70.0163V123.585Z" fill="#187A66"/>
<path d="M72.9162 123.585H72.6162V160.323H72.9162V123.585Z" fill="#187A66"/>
<path d="M75.716 123.585H75.416V160.323H75.716V123.585Z" fill="#187A66"/>
<path d="M193.116 128.986C192.816 125.786 190.116 123.386 186.916 123.386H63.116C59.916 123.386 57.316 125.786 56.916 128.986V127.586C57.216 124.386 59.916 121.986 63.116 121.986H186.816C190.016 121.986 192.616 124.386 193.016 127.586V128.986H193.116Z" fill="#16A185"/>
<path d="M178.116 154.386C177.016 156.686 174.316 157.686 172.116 156.586C169.816 155.486 168.816 152.786 169.916 150.586C171.016 148.286 173.716 147.286 175.916 148.386C178.216 149.386 179.216 152.086 178.116 154.386Z" fill="#094035"/>
<path d="M178.116 154.386C177.016 156.686 174.316 157.686 172.116 156.586C170.216 155.686 169.216 153.786 169.516 151.786C169.816 153.186 170.716 154.386 172.016 154.986C174.316 156.086 177.016 155.086 178.016 152.786C178.216 152.386 178.316 151.986 178.416 151.486C178.716 152.486 178.616 153.486 178.116 154.386Z" fill="#808080"/>
<path d="M80.116 154.386C79.016 156.686 76.316 157.686 74.116 156.586C71.816 155.486 70.816 152.786 71.916 150.586C73.016 148.286 75.716 147.286 77.916 148.386C80.216 149.386 81.216 152.086 80.116 154.386Z" fill="#094035"/>
<path d="M80.1159 154.386C79.0159 156.686 76.3159 157.686 74.1159 156.586C72.2159 155.686 71.2159 153.786 71.5159 151.786C71.8159 153.186 72.7159 154.386 74.0159 154.986C76.3159 156.086 79.0159 155.086 80.0159 152.786C80.2159 152.386 80.3159 151.986 80.4159 151.486C80.6159 152.486 80.5159 153.486 80.1159 154.386Z" fill="#808080"/>
<path d="M97.6159 150.586H90.9159C90.0159 150.586 89.3159 149.886 89.3159 148.986V144.386C89.3159 143.486 90.0159 142.786 90.9159 142.786H97.6159C98.5159 142.786 99.2159 143.486 99.2159 144.386V148.986C99.2159 149.786 98.5159 150.586 97.6159 150.586Z" fill="#094035"/>
<path d="M99.2159 148.386V149.386C99.2159 149.986 98.5159 150.586 97.6159 150.586H90.9159C90.0159 150.586 89.3159 150.086 89.3159 149.386V148.386C89.3159 148.986 90.0159 149.586 90.9159 149.586H97.6159C98.5159 149.486 99.2159 148.986 99.2159 148.386Z" fill="#999999"/>
<path d="M159.116 150.586H152.416C151.516 150.586 150.816 149.886 150.816 148.986V144.386C150.816 143.486 151.516 142.786 152.416 142.786H159.116C160.016 142.786 160.716 143.486 160.716 144.386V148.986C160.716 149.786 160.016 150.586 159.116 150.586Z" fill="#094035"/>
<path d="M160.716 148.386V149.386C160.716 149.986 160.016 150.586 159.116 150.586H152.416C151.516 150.586 150.816 150.086 150.816 149.386V148.386C150.816 148.986 151.516 149.586 152.416 149.586H159.116C160.016 149.486 160.716 148.986 160.716 148.386Z" fill="#999999"/>
<path d="M110.117 41.3856H22.0165C21.4165 41.3856 20.9165 40.8856 20.9165 40.2856V25.5856C23.4165 23.0856 24.7165 21.7856 27.2165 19.2856H110.117C110.717 19.2856 111.217 19.7856 111.217 20.3856V40.2856C111.217 40.8856 110.717 41.3856 110.117 41.3856Z" fill="white"/>
<path d="M104.317 26.1855H27.9165V26.4855H104.317V26.1855Z" fill="#7DB3A8"/>
<path d="M104.317 34.1855H27.9165V34.4855H104.317V34.1855Z" fill="#7DB3A8"/>
<path d="M139.916 41.3856H228.016C228.616 41.3856 229.116 40.8856 229.116 40.2856V25.5856C226.616 23.0856 225.316 21.7856 222.816 19.2856H139.916C139.316 19.2856 138.816 19.7856 138.816 20.3856V40.2856C138.816 40.8856 139.316 41.3856 139.916 41.3856Z" fill="white"/>
<path d="M222.116 26.1855H145.716V26.4855H222.116V26.1855Z" fill="#7DB3A8"/>
<path d="M222.116 34.1855H145.716V34.4855H222.116V34.1855Z" fill="#7DB3A8"/>
<path d="M31.4163 80.9859C30.9163 80.2859 30.3163 79.6859 29.3163 79.6859C27.4163 79.6859 25.6163 81.1859 24.9163 84.6859C25.9163 83.6859 27.3163 83.0859 28.2163 83.0859C30.7163 83.0859 32.7163 84.4859 32.7163 87.8859C32.7163 91.3859 30.0163 94.9859 26.1163 94.9859C22.5163 94.9859 20.2163 92.2859 20.2163 88.3859C20.2163 80.8859 24.1163 76.0859 29.6163 76.0859C32.0163 76.0859 33.5163 77.5859 34.3163 78.6859L31.4163 80.9859ZM28.5163 88.1859C28.5163 86.8859 27.9163 86.1859 26.9163 86.1859C26.2163 86.1859 25.4163 86.5859 24.5163 87.7859C24.5163 88.0859 24.5163 88.4859 24.5163 88.7859C24.5163 90.5859 25.3163 91.4859 26.4163 91.4859C27.9163 91.5859 28.5163 89.5859 28.5163 88.1859Z" fill="#187A66"/>
<path d="M34.7163 88.2859C34.7163 79.6859 39.1163 76.0859 42.9163 76.0859C45.9163 76.0859 48.2163 78.1859 48.2163 82.7859C48.2163 91.3859 43.9163 94.9859 40.0163 94.9859C37.1163 94.8859 34.7163 92.8859 34.7163 88.2859ZM39.0163 88.7859C39.0163 90.8859 39.6163 91.3859 40.4163 91.3859C42.1163 91.3859 44.1163 87.6859 44.1163 82.1859C44.1163 80.0859 43.5163 79.4859 42.7163 79.4859C40.9163 79.5859 39.0163 83.2859 39.0163 88.7859Z" fill="#187A66"/>
<path d="M18.9164 101.986C20.7164 100.486 21.7164 99.6857 21.7164 98.7857C21.7164 98.3857 21.5164 98.0857 21.0164 98.0857C20.7164 98.0857 20.4164 98.2857 20.1164 98.4857L19.7164 97.9857C20.2164 97.5857 20.6164 97.3857 21.1164 97.3857C22.0164 97.3857 22.5164 97.8857 22.5164 98.6857C22.5164 99.6857 21.7164 100.386 20.2164 101.686H22.1164L22.0164 102.386H18.8164L18.9164 101.986Z" fill="#404040"/>
<path d="M25.3162 100.486L24.6162 98.686H25.4162L25.7162 99.386C25.8162 99.586 25.8162 99.786 25.9162 99.986C26.0162 99.786 26.2162 99.586 26.3162 99.386L26.8162 98.686H27.7162L26.2162 100.586L26.9162 102.386H26.1162L25.8162 101.586C25.7162 101.386 25.6162 101.086 25.6162 100.886C25.5162 101.086 25.3162 101.286 25.1162 101.586L24.5162 102.386H23.6162L25.3162 100.486Z" fill="#404040"/>
<path d="M29.3164 101.286C29.6164 101.686 29.9164 101.886 30.4164 101.886C31.0164 101.886 31.4164 101.586 31.4164 100.986C31.4164 100.486 31.1164 100.186 30.1164 100.186L30.2164 99.5857C31.3164 99.5857 31.7164 99.1857 31.7164 98.6857C31.7164 98.2857 31.5164 98.0857 31.0164 98.0857C30.7164 98.0857 30.4164 98.1857 30.1164 98.3857L29.7164 97.8857C30.2164 97.5857 30.6164 97.3857 31.1164 97.3857C31.9164 97.3857 32.5164 97.8857 32.5164 98.4857C32.5164 99.0857 32.2164 99.5857 31.4164 99.7857C31.9164 99.9857 32.2164 100.386 32.2164 100.786C32.2164 101.786 31.4164 102.286 30.4164 102.286C29.8164 102.286 29.2164 101.986 28.8164 101.386L29.3164 101.286Z" fill="#404040"/>
<path d="M32.9165 100.886C32.9165 98.8858 33.9165 97.4858 35.0165 97.4858C35.8165 97.4858 36.3165 98.1858 36.3165 99.1858C36.3165 101.186 35.3165 102.586 34.2165 102.586C33.4165 102.586 32.9165 101.886 32.9165 100.886ZM33.7165 100.886C33.7165 101.486 33.9165 101.886 34.3165 101.886C35.0165 101.886 35.6165 100.486 35.6165 99.0858C35.6165 98.4858 35.4165 98.0858 35.0165 98.0858C34.3165 98.0858 33.7165 99.4858 33.7165 100.886Z" fill="#404040"/>
<path d="M38.7162 98.6859H39.4162V99.1859C39.8162 98.8859 40.2162 98.5859 40.6162 98.5859C41.2162 98.5859 41.4162 98.8859 41.5162 99.2859C41.9162 98.8859 42.4162 98.5859 42.8162 98.5859C43.4162 98.5859 43.7162 98.8859 43.7162 99.5859C43.7162 99.7859 43.7162 99.8859 43.6162 100.086L43.1162 102.486H42.3162L42.8162 100.186C42.8162 99.9859 42.9162 99.8859 42.9162 99.7859C42.9162 99.4859 42.7162 99.2859 42.4162 99.2859C42.2162 99.2859 41.9162 99.4859 41.5162 99.8859L41.0162 102.486H40.2162L40.7162 100.186C40.7162 99.9859 40.8162 99.8859 40.8162 99.7859C40.8162 99.4859 40.6162 99.2859 40.3162 99.2859C40.1162 99.2859 39.8162 99.4859 39.4162 99.8859L38.9162 102.486H38.1162L38.7162 98.6859Z" fill="#404040"/>
<path d="M44.9162 98.6859H45.7162L44.9162 102.486H44.1162L44.9162 98.6859ZM45.0162 97.5859C45.0162 97.2859 45.2162 97.0859 45.6162 97.0859C45.8162 97.0859 46.1162 97.2859 46.1162 97.4859C46.1162 97.7859 45.9162 97.9859 45.5162 97.9859C45.3162 97.9859 45.0162 97.8859 45.0162 97.5859Z" fill="#404040"/>
<path d="M46.7166 98.6859H47.4166V99.1859C47.8166 98.8859 48.2166 98.5859 48.7166 98.5859C49.3166 98.5859 49.6166 98.8859 49.6166 99.5859C49.6166 99.7859 49.6166 99.8859 49.5166 100.086L49.0166 102.486H48.2166L48.7166 100.186C48.7166 99.9859 48.8166 99.8859 48.8166 99.7859C48.8166 99.4859 48.6166 99.2859 48.3166 99.2859C48.0166 99.2859 47.7166 99.4859 47.3166 99.8859L46.8166 102.486H46.0166L46.7166 98.6859Z" fill="#404040"/>
<path d="M19.7163 69.9859C20.0163 70.3859 20.4163 70.6859 20.8163 70.6859C21.2163 70.6859 21.4163 70.4859 21.4163 70.1859C21.4163 69.9859 21.2163 69.7859 20.8163 69.5859L20.3163 69.2859C19.8163 68.9859 19.5163 68.5859 19.5163 67.8859C19.5163 66.8859 20.4163 66.0859 21.5163 66.0859C22.1163 66.0859 22.8163 66.3859 23.2163 66.8859L22.4163 67.6859C22.1163 67.3859 21.8163 67.1859 21.5163 67.1859C21.1163 67.1859 20.9163 67.3859 20.9163 67.6859C20.9163 67.8859 21.1163 67.9859 21.6163 68.2859L22.1163 68.5859C22.6163 68.8859 22.8163 69.2859 22.8163 69.8859C22.8163 70.8859 22.0163 71.6859 20.7163 71.6859C20.0163 71.6859 19.3163 71.3859 18.7163 70.5859L19.7163 69.9859Z" fill="white"/>
<path d="M25.3165 67.286H23.9165L24.1165 66.186H28.2165L28.0165 67.286H26.6165L25.7165 71.586H24.4165L25.3165 67.286Z" fill="white"/>
<path d="M29.3164 66.186H32.6164L32.4164 67.286H30.4164L30.2164 68.286H31.9164L31.7164 69.386H30.0164L29.8164 70.486H31.9164L31.7164 71.586H28.3164L29.3164 66.186Z" fill="white"/>
<path d="M35.8161 66.186C36.9161 66.186 37.7161 66.586 37.7161 67.586C37.7161 68.586 37.1161 69.186 36.4161 69.486L37.2161 71.586H35.8161L35.2161 69.686H34.6161L34.3161 71.686H33.0161L34.1161 66.186H35.8161ZM34.9161 68.686H35.3161C36.0161 68.686 36.4161 68.286 36.4161 67.786C36.4161 67.386 36.1161 67.186 35.6161 67.186H35.1161L34.9161 68.686Z" fill="white"/>
<path d="M39.4164 66.186H42.7164L42.5164 67.286H40.5164L40.3164 68.286H42.0164L41.8164 69.386H40.1164L39.8164 70.486H41.9164L41.7164 71.586H38.3164L39.4164 66.186Z" fill="white"/>
<path d="M43.2163 69.3859C43.2163 67.3859 44.6163 66.0859 46.0163 66.0859C47.3163 66.0859 48.1163 66.8859 48.1163 68.3859C48.1163 70.3859 46.7163 71.6859 45.3163 71.6859C44.1163 71.7859 43.2163 70.8859 43.2163 69.3859ZM44.6163 69.3859C44.6163 70.1859 44.9163 70.5859 45.4163 70.5859C46.0163 70.5859 46.8163 69.7859 46.8163 68.4859C46.8163 67.6859 46.5163 67.2859 46.0163 67.2859C45.4163 67.2859 44.6163 68.0859 44.6163 69.3859Z" fill="white"/>
<path d="M82.9164 101.386H77.9164L76.9164 103.686H74.3164L79.1164 92.8862H81.6164L86.4164 103.686H83.8164L82.9164 101.386ZM82.1164 99.5862L80.4164 95.4862L78.7164 99.5862H82.1164Z" fill="white"/>
<path d="M88.6164 102.686C87.7164 101.786 87.3164 100.586 87.3164 99.0859V93.0859H89.8164V98.9859C89.8164 100.886 90.6164 101.886 92.2164 101.886C93.0164 101.886 93.6164 101.686 94.0164 101.186C94.4164 100.686 94.6164 99.9859 94.6164 98.9859V93.0859H97.1164V99.0859C97.1164 100.686 96.7164 101.886 95.8164 102.686C94.9164 103.586 93.7164 103.986 92.2164 103.986C90.6164 103.886 89.4164 103.486 88.6164 102.686Z" fill="white"/>
<path d="M99.5166 92.9858H104.417C105.617 92.9858 106.617 93.1858 107.517 93.6858C108.417 94.0858 109.117 94.7858 109.617 95.5858C110.117 96.3858 110.317 97.3858 110.317 98.3858C110.317 99.4858 110.117 100.386 109.617 101.186C109.117 101.986 108.417 102.586 107.517 103.086C106.617 103.486 105.617 103.786 104.417 103.786H99.5166V92.9858ZM104.317 101.686C105.417 101.686 106.217 101.386 106.917 100.786C107.617 100.186 107.917 99.3858 107.917 98.3858C107.917 97.3858 107.617 96.5858 106.917 95.9858C106.317 95.3858 105.417 95.0858 104.317 95.0858H102.017V101.786H104.317V101.686Z" fill="white"/>
<path d="M112.216 92.9858H114.716V103.786H112.216V92.9858Z" fill="white"/>
<path d="M119.516 103.186C118.616 102.686 117.916 102.086 117.416 101.186C116.916 100.386 116.616 99.386 116.616 98.286C116.616 97.186 116.916 96.286 117.416 95.386C117.916 94.586 118.616 93.886 119.516 93.386C120.416 92.886 121.416 92.686 122.516 92.686C123.616 92.686 124.616 92.886 125.516 93.386C126.416 93.886 127.116 94.486 127.616 95.386C128.116 96.186 128.416 97.186 128.416 98.286C128.416 99.386 128.116 100.286 127.616 101.186C127.116 101.986 126.416 102.686 125.516 103.186C124.616 103.686 123.616 103.886 122.516 103.886C121.416 103.886 120.416 103.686 119.516 103.186ZM124.216 101.386C124.716 101.086 125.116 100.686 125.416 100.186C125.716 99.686 125.816 99.086 125.816 98.386C125.816 97.686 125.716 97.086 125.416 96.586C125.116 96.086 124.716 95.686 124.216 95.386C123.716 95.086 123.116 94.986 122.516 94.986C121.916 94.986 121.316 95.086 120.816 95.386C120.316 95.686 119.916 96.086 119.616 96.586C119.316 97.086 119.216 97.686 119.216 98.386C119.216 99.086 119.316 99.686 119.616 100.186C119.916 100.686 120.316 101.086 120.816 101.386C121.316 101.686 121.916 101.786 122.516 101.786C123.216 101.786 123.716 101.686 124.216 101.386Z" fill="white"/>
<path d="M136.917 94.9858H133.517V92.9858H142.917V94.9858H139.417V103.686H136.917V94.9858Z" fill="white"/>
<path d="M150.716 101.386H145.716L144.716 103.686H142.116L146.916 92.8862H149.416L154.216 103.686H151.616L150.716 101.386ZM149.916 99.5862L148.216 95.4862L146.516 99.5862H149.916Z" fill="white"/>
<path d="M162.617 93.4858C163.317 93.7858 163.816 94.2858 164.216 94.8858C164.616 95.4858 164.816 96.1858 164.816 96.9858C164.816 97.7858 164.616 98.4858 164.216 99.0858C163.816 99.6858 163.317 100.086 162.617 100.486C161.917 100.786 161.117 100.986 160.117 100.986H157.917V103.986H155.417V92.9858H160.117C161.017 92.9858 161.917 93.0858 162.617 93.4858ZM161.716 98.2858C162.116 97.9858 162.316 97.4858 162.316 96.8858C162.316 96.2858 162.116 95.7858 161.716 95.4858C161.316 95.1858 160.716 94.9858 160.016 94.9858H158.016V98.6858H160.016C160.716 98.7858 161.316 98.5858 161.716 98.2858Z" fill="white"/>
<path d="M174.916 101.786V103.786H166.616V92.9858H174.716V94.9858H169.016V97.2858H174.016V99.1858H169.016V101.686H174.916V101.786Z" fill="white"/>
<path d="M214.316 60.686H215.416V65.586H214.316V60.686Z" fill="#404040"/>
<path d="M221.116 60.686V65.586H220.216L217.816 62.586V65.586H216.716V60.686H217.616L220.016 63.686V60.686H221.116Z" fill="#404040"/>
<path d="M209.616 66.3858H203.216V59.9858H209.616V66.3858ZM203.716 65.8858H209.016V60.4858H203.716V65.8858Z" fill="#404040"/>
<path d="M215.316 74.1858C214.916 73.9858 214.616 73.6858 214.316 73.2858C214.116 72.8858 214.016 72.4858 214.016 71.9858C214.016 71.4858 214.116 71.0858 214.316 70.6858C214.516 70.2858 214.916 69.9858 215.316 69.7858C215.716 69.5858 216.216 69.4858 216.716 69.4858C217.216 69.4858 217.716 69.5858 218.116 69.7858C218.516 69.9858 218.816 70.2858 219.116 70.6858C219.316 71.0858 219.416 71.4858 219.416 71.9858C219.416 72.4858 219.316 72.8858 219.116 73.2858C218.916 73.6858 218.516 73.9858 218.116 74.1858C217.716 74.3858 217.216 74.4858 216.716 74.4858C216.216 74.4858 215.716 74.3858 215.316 74.1858ZM217.516 73.2858C217.716 73.1858 217.916 72.9858 218.016 72.6858C218.116 72.4858 218.216 72.1858 218.216 71.8858C218.216 71.5858 218.116 71.2858 218.016 71.0858C217.916 70.8858 217.716 70.6858 217.516 70.4858C217.316 70.3858 217.016 70.2858 216.716 70.2858C216.416 70.2858 216.116 70.3858 215.916 70.4858C215.716 70.5858 215.516 70.7858 215.416 71.0858C215.316 71.2858 215.216 71.5858 215.216 71.8858C215.216 72.1858 215.316 72.4858 215.416 72.6858C215.516 72.8858 215.716 73.0858 215.916 73.2858C216.116 73.3858 216.416 73.4858 216.716 73.4858C217.016 73.4858 217.216 73.4858 217.516 73.2858Z" fill="#404040"/>
<path d="M220.916 73.8858C220.516 73.4858 220.316 72.9858 220.316 72.1858V69.4858H221.416V72.1858C221.416 73.0858 221.816 73.4858 222.516 73.4858C222.916 73.4858 223.116 73.3858 223.316 73.1858C223.516 72.9858 223.616 72.6858 223.616 72.1858V69.4858H224.716V72.1858C224.716 72.8858 224.516 73.4858 224.116 73.8858C223.716 74.2858 223.216 74.4858 222.516 74.4858C221.816 74.4858 221.316 74.2858 220.916 73.8858Z" fill="#404040"/>
<path d="M227.016 70.3858H225.416V69.4858H229.716V70.3858H228.116V74.3858H227.016V70.3858Z" fill="#404040"/>
<path d="M209.616 74.8858H203.216V68.4858H209.616V74.8858ZM203.716 74.2858H209.016V68.9858H203.716V74.2858Z" fill="#404040"/>
<path d="M120.916 29.186H124.916C125.516 29.186 126.116 29.186 126.616 29.286C127.116 29.386 127.616 29.486 128.016 29.786C128.416 29.986 128.716 30.286 128.916 30.686C129.116 31.086 129.216 31.486 129.216 32.086C129.216 32.386 129.216 32.586 129.116 32.886C129.016 33.186 128.916 33.386 128.816 33.586C128.616 33.786 128.416 33.986 128.216 34.186C128.016 34.386 127.716 34.486 127.316 34.586V34.686C128.116 34.886 128.816 35.186 129.216 35.586C129.616 35.986 129.816 36.686 129.816 37.386C129.816 37.986 129.716 38.486 129.516 38.886C129.316 39.286 128.916 39.686 128.516 39.986C128.116 40.286 127.616 40.486 127.116 40.586C126.616 40.686 126.016 40.786 125.316 40.786H121.016V29.186H120.916ZM124.816 33.886C125.416 33.886 125.916 33.786 126.216 33.486C126.516 33.186 126.616 32.886 126.616 32.486C126.616 32.086 126.516 31.686 126.216 31.586C125.916 31.386 125.416 31.286 124.816 31.286H123.616V33.986H124.816V33.886ZM125.016 38.786C126.416 38.786 127.216 38.286 127.216 37.186C127.216 36.686 127.016 36.286 126.716 36.086C126.316 35.886 125.816 35.786 125.116 35.786H123.616V38.886H125.016V38.786Z" fill="#187A66"/>
<path d="M117.416 25.4858C117.016 25.3858 116.716 25.2858 116.516 25.0858L116.916 24.1858C117.116 24.3858 117.416 24.4858 117.616 24.5858C117.916 24.6858 118.216 24.6858 118.516 24.6858C118.816 24.6858 119.116 24.6858 119.216 24.5858C119.416 24.4858 119.416 24.3858 119.416 24.1858C119.416 24.0858 119.416 23.9858 119.316 23.8858C119.216 23.7858 119.116 23.7858 118.916 23.6858C118.816 23.6858 118.616 23.5858 118.316 23.4858C117.916 23.3858 117.616 23.2858 117.416 23.1858C117.216 23.0858 117.016 22.9858 116.816 22.7858C116.616 22.5858 116.516 22.2858 116.516 21.9858C116.516 21.6858 116.616 21.4858 116.716 21.1858C116.916 20.9858 117.116 20.7858 117.416 20.6858C117.716 20.5858 118.116 20.4858 118.516 20.4858C118.816 20.4858 119.116 20.4858 119.416 20.5858C119.716 20.6858 120.016 20.7858 120.216 20.8858L119.916 21.7858C119.416 21.4858 119.016 21.3858 118.516 21.3858C118.216 21.3858 117.916 21.4858 117.816 21.5858C117.616 21.6858 117.616 21.7858 117.616 21.9858C117.616 22.1858 117.716 22.2858 117.916 22.3858C118.116 22.4858 118.316 22.5858 118.716 22.5858C119.116 22.6858 119.416 22.7858 119.616 22.8858C119.816 22.9858 120.016 23.0858 120.216 23.2858C120.416 23.4858 120.516 23.7858 120.516 24.0858C120.516 24.3858 120.416 24.5858 120.316 24.8858C120.116 25.0858 119.916 25.2858 119.616 25.3858C119.316 25.4858 118.916 25.5858 118.516 25.5858C118.116 25.5858 117.716 25.5858 117.416 25.4858Z" fill="#404040"/>
<path d="M121.316 20.5859H122.416V25.4859H121.316V20.5859Z" fill="#404040"/>
<path d="M123.616 20.5859H125.816C126.316 20.5859 126.816 20.6859 127.216 20.8859C127.616 21.0859 127.916 21.3859 128.216 21.7859C128.416 22.1859 128.516 22.5859 128.516 23.0859C128.516 23.5859 128.416 23.9859 128.216 24.3859C128.016 24.7859 127.716 25.0859 127.216 25.2859C126.816 25.4859 126.316 25.5859 125.816 25.5859H123.616V20.5859ZM125.816 24.5859C126.316 24.5859 126.716 24.4859 127.016 24.1859C127.316 23.8859 127.416 23.5859 127.416 23.0859C127.416 22.5859 127.316 22.2859 127.016 21.9859C126.716 21.6859 126.316 21.5859 125.816 21.5859H124.816V24.5859H125.816Z" fill="#404040"/>
<path d="M133.216 24.5859V25.4859H129.416V20.5859H133.116V21.4859H130.516V22.5859H132.816V23.4859H130.516V24.5859H133.216Z" fill="#404040"/>
</g>
<defs>
<linearGradient id="paint0_linear_200_25291" x1="102.126" y1="68.1224" x2="123.418" y2="68.1224" gradientUnits="userSpaceOnUse">
<stop stop-color="#1F0E05"/>
<stop offset="0.1972" stop-color="#241208"/>
<stop offset="0.4307" stop-color="#321C10"/>
<stop offset="0.6826" stop-color="#4A2D1E"/>
<stop offset="0.946" stop-color="#6B4431"/>
<stop offset="1" stop-color="#734A36"/>
</linearGradient>
<linearGradient id="paint1_linear_200_25291" x1="141.349" y1="67.4969" x2="146.277" y2="68.4328" gradientUnits="userSpaceOnUse">
<stop stop-color="#734A36"/>
<stop offset="0.0602599" stop-color="#6A4431"/>
<stop offset="0.3333" stop-color="#462B1E"/>
<stop offset="0.5891" stop-color="#2C1A10"/>
<stop offset="0.8188" stop-color="#1C0F08"/>
<stop offset="1" stop-color="#170B05"/>
</linearGradient>
<clipPath id="clip0_200_25291">
<rect width="250" height="160" fill="white" transform="translate(0 0.282715)"/>
</clipPath>
</defs>
</svg>
