<svg width="250" height="162" viewBox="0 0 250 162" fill="none" xmlns="http://www.w3.org/2000/svg">
<g clip-path="url(#clip0_200_24734)">
<path d="M5.65566 150.186L1.45566 148.586C0.655664 148.286 0.0556641 147.386 0.0556641 146.386V116.486C0.0556641 115.486 0.555664 114.586 1.45566 114.286L5.65566 112.686V150.186Z" fill="#1A1A1A"/>
<path d="M243.855 150.186L248.055 148.586C248.855 148.286 249.455 147.386 249.455 146.386V116.486C249.455 115.486 248.955 114.586 248.055 114.286L243.855 112.686V150.186Z" fill="#1A1A1A"/>
<path d="M240.656 0.48584H8.85566C5.35566 0.48584 2.55566 3.28584 2.55566 6.68584V154.786C2.55566 158.186 5.35566 160.986 8.75566 160.986H240.656C244.056 160.986 246.856 158.186 246.856 154.786V6.68584C246.956 3.28584 244.156 0.48584 240.656 0.48584ZM71.1557 81.6858C64.0557 81.6858 58.2557 75.8858 58.2557 68.7858C58.2557 61.6858 64.0557 55.8858 71.1557 55.8858C78.2557 55.8858 84.0557 61.6858 84.0557 68.7858C84.0557 75.8858 78.2557 81.6858 71.1557 81.6858ZM153.456 73.7858C153.056 74.6858 152.556 75.5858 151.956 76.2858C151.656 76.6858 151.256 77.1858 150.856 77.5858C149.456 78.9858 147.756 79.9858 145.856 80.5858C144.656 80.9858 143.356 81.1858 142.056 81.1858H107.356C103.356 81.1858 99.8557 79.3858 97.5557 76.4858C95.8557 74.3858 94.8557 71.6858 94.8557 68.7858C94.8557 65.8858 95.8557 63.1858 97.5557 61.0858C97.8557 60.6858 98.1557 60.3858 98.5557 59.9858C100.756 57.6858 103.956 56.3858 107.356 56.3858H142.056C143.356 56.3858 144.656 56.5858 145.856 56.9858C148.256 57.7858 150.356 59.2858 151.956 61.2858C152.556 62.0858 153.056 62.8858 153.456 63.7858C154.156 65.2858 154.556 66.9858 154.556 68.7858C154.556 70.5858 154.156 72.2858 153.456 73.7858ZM177.856 81.6858C170.756 81.6858 164.956 75.8858 164.956 68.7858C164.956 61.6858 170.756 55.8858 177.856 55.8858C184.956 55.8858 190.756 61.6858 190.756 68.7858C190.756 75.8858 184.956 81.6858 177.856 81.6858Z" fill="#1A1A1A"/>
<path d="M33.5555 152.486C41.9502 152.486 48.7555 145.681 48.7555 137.286C48.7555 128.891 41.9502 122.086 33.5555 122.086C25.1607 122.086 18.3555 128.891 18.3555 137.286C18.3555 145.681 25.1607 152.486 33.5555 152.486Z" fill="#333333"/>
<path d="M28.9555 141.486H32.1555V132.986H29.3555V130.886C30.1555 130.686 30.8555 130.586 31.3555 130.286C31.9555 130.086 32.4555 129.786 32.9555 129.486H35.4555V141.486H38.2555V144.286H28.8555V141.486H28.9555Z" fill="#141414"/>
<path d="M215.955 152.486C224.35 152.486 231.155 145.681 231.155 137.286C231.155 128.891 224.35 122.086 215.955 122.086C207.561 122.086 200.755 128.891 200.755 137.286C200.755 145.681 207.561 152.486 215.955 152.486Z" fill="#333333"/>
<path d="M211.455 141.486H214.655V132.986H211.855V130.886C212.655 130.686 213.355 130.586 213.855 130.286C214.455 130.086 214.955 129.786 215.455 129.486H217.955V141.486H220.755V144.286H211.355V141.486H211.455Z" fill="#141414"/>
<path d="M234.255 114.986H15.3555V116.386H234.255V114.986Z" fill="#999999"/>
<path d="M234.255 113.586H15.3555V114.986H234.255V113.586Z" fill="#404040"/>
<path d="M198.355 161.086H184.455V122.486H186.655C192.755 122.486 194.455 128.086 195.155 134.886C196.155 144.286 198.355 161.086 198.355 161.086Z" fill="#999999"/>
<path d="M51.1553 161.086H65.0553V122.486H62.8553C56.7553 122.486 55.0553 128.086 54.3553 134.886C53.3553 144.286 51.1553 161.086 51.1553 161.086Z" fill="#999999"/>
<path d="M196.455 161.086H53.0552L56.6552 127.686C56.9552 124.486 59.6552 122.086 62.8552 122.086H186.555C189.755 122.086 192.355 124.486 192.755 127.686L196.455 161.086Z" fill="#333333"/>
<path d="M192.855 128.986C192.555 125.786 189.855 123.386 186.655 123.386H62.8553C59.6553 123.386 57.0553 125.786 56.6553 128.986V127.586C56.9553 124.386 59.6553 121.986 62.8553 121.986H186.555C189.755 121.986 192.355 124.386 192.755 127.586V128.986H192.855Z" fill="#595959"/>
<path d="M177.855 154.386C176.755 156.686 174.055 157.686 171.855 156.586C169.555 155.486 168.555 152.786 169.655 150.586C170.755 148.286 173.455 147.286 175.655 148.386C177.955 149.386 178.955 152.086 177.855 154.386Z" fill="#1A1A1A"/>
<path d="M177.855 154.386C176.755 156.686 174.055 157.686 171.855 156.586C169.955 155.686 168.955 153.786 169.255 151.786C169.555 153.186 170.455 154.386 171.755 154.986C174.055 156.086 176.755 155.086 177.755 152.786C177.955 152.386 178.055 151.986 178.155 151.486C178.455 152.486 178.355 153.486 177.855 154.386Z" fill="#999999"/>
<path d="M79.8552 154.386C78.7552 156.686 76.0552 157.686 73.8552 156.586C71.5552 155.486 70.5552 152.786 71.6552 150.586C72.7552 148.286 75.4552 147.286 77.6552 148.386C79.9552 149.386 80.9552 152.086 79.8552 154.386Z" fill="#1A1A1A"/>
<path d="M79.8552 154.386C78.7552 156.686 76.0552 157.686 73.8552 156.586C71.9552 155.686 70.9552 153.786 71.2552 151.786C71.5552 153.186 72.4552 154.386 73.7552 154.986C76.0552 156.086 78.7552 155.086 79.7552 152.786C79.9552 152.386 80.0552 151.986 80.1552 151.486C80.3552 152.486 80.2552 153.486 79.8552 154.386Z" fill="#999999"/>
<path d="M97.3552 150.586H90.6552C89.7552 150.586 89.0552 149.886 89.0552 148.986V144.386C89.0552 143.486 89.7552 142.786 90.6552 142.786H97.3552C98.2552 142.786 98.9552 143.486 98.9552 144.386V148.986C98.9552 149.786 98.2552 150.586 97.3552 150.586Z" fill="#1A1A1A"/>
<path d="M98.9552 148.386V149.386C98.9552 149.986 98.2552 150.586 97.3552 150.586H90.6552C89.7552 150.586 89.0552 150.086 89.0552 149.386V148.386C89.0552 148.986 89.7552 149.586 90.6552 149.586H97.3552C98.2552 149.486 98.9552 148.986 98.9552 148.386Z" fill="#999999"/>
<path d="M158.855 150.586H152.155C151.255 150.586 150.555 149.886 150.555 148.986V144.386C150.555 143.486 151.255 142.786 152.155 142.786H158.855C159.755 142.786 160.455 143.486 160.455 144.386V148.986C160.455 149.786 159.755 150.586 158.855 150.586Z" fill="#1A1A1A"/>
<path d="M160.455 148.386V149.386C160.455 149.986 159.755 150.586 158.855 150.586H152.155C151.255 150.586 150.555 150.086 150.555 149.386V148.386C150.555 148.986 151.255 149.586 152.155 149.586H158.855C159.755 149.486 160.455 148.986 160.455 148.386Z" fill="#999999"/>
<path d="M237.956 16.1857C240.662 16.1857 242.856 13.9919 242.856 11.2857C242.856 8.57955 240.662 6.38574 237.956 6.38574C235.249 6.38574 233.056 8.57955 233.056 11.2857C233.056 13.9919 235.249 16.1857 237.956 16.1857Z" fill="#858585"/>
<path d="M237.956 15.4854C240.275 15.4854 242.156 13.605 242.156 11.2854C242.156 8.96585 240.275 7.08545 237.956 7.08545C235.636 7.08545 233.756 8.96585 233.756 11.2854C233.756 13.605 235.636 15.4854 237.956 15.4854Z" fill="url(#paint0_linear_200_24734)"/>
<path d="M241.656 9.28569C241.756 9.38569 241.756 9.48569 241.856 9.58569C240.656 7.78569 238.656 6.78569 236.256 7.98569C233.856 9.28569 233.556 11.4857 234.456 13.4857C234.356 13.3857 234.356 13.2857 234.256 13.1857C233.156 11.1857 233.956 8.58569 235.956 7.48569C237.956 6.48569 240.556 7.28569 241.656 9.28569Z" fill="#C4C4C4"/>
<path d="M239.456 10.7856H238.456V9.78564C238.456 9.48564 238.256 9.28564 237.956 9.28564C237.656 9.28564 237.456 9.48564 237.456 9.78564V10.7856H236.456C236.156 10.7856 235.956 10.9856 235.956 11.2856C235.956 11.5856 236.156 11.7856 236.456 11.7856H237.456V12.7856C237.456 13.0856 237.656 13.2856 237.956 13.2856C238.256 13.2856 238.456 13.0856 238.456 12.7856V11.7856H239.456C239.756 11.7856 239.956 11.5856 239.956 11.2856C239.956 10.9856 239.756 10.7856 239.456 10.7856Z" fill="#1A1A1A"/>
<path d="M237.956 155.186C240.662 155.186 242.856 152.992 242.856 150.286C242.856 147.58 240.662 145.386 237.956 145.386C235.249 145.386 233.056 147.58 233.056 150.286C233.056 152.992 235.249 155.186 237.956 155.186Z" fill="#858585"/>
<path d="M237.956 154.486C240.275 154.486 242.156 152.606 242.156 150.286C242.156 147.966 240.275 146.086 237.956 146.086C235.636 146.086 233.756 147.966 233.756 150.286C233.756 152.606 235.636 154.486 237.956 154.486Z" fill="url(#paint1_linear_200_24734)"/>
<path d="M241.656 148.286C241.756 148.386 241.756 148.486 241.856 148.586C240.656 146.786 238.656 145.786 236.256 146.986C233.856 148.286 233.556 150.486 234.456 152.486C234.356 152.386 234.356 152.286 234.256 152.186C233.156 150.186 233.956 147.586 235.956 146.486C237.956 145.486 240.556 146.186 241.656 148.286Z" fill="#C4C4C4"/>
<path d="M239.456 149.786H238.456V148.786C238.456 148.486 238.256 148.286 237.956 148.286C237.656 148.286 237.456 148.486 237.456 148.786V149.786H236.456C236.156 149.786 235.956 149.986 235.956 150.286C235.956 150.586 236.156 150.786 236.456 150.786H237.456V151.786C237.456 152.086 237.656 152.286 237.956 152.286C238.256 152.286 238.456 152.086 238.456 151.786V150.786H239.456C239.756 150.786 239.956 150.586 239.956 150.286C240.056 149.986 239.756 149.786 239.456 149.786Z" fill="#1A1A1A"/>
<path d="M11.5558 16.1857C14.262 16.1857 16.4558 13.9919 16.4558 11.2857C16.4558 8.57955 14.262 6.38574 11.5558 6.38574C8.84957 6.38574 6.65576 8.57955 6.65576 11.2857C6.65576 13.9919 8.84957 16.1857 11.5558 16.1857Z" fill="#858585"/>
<path d="M15.256 9.28598C16.356 11.286 15.556 13.886 13.556 14.986C11.556 16.086 8.956 15.286 7.856 13.286C6.756 11.286 7.556 8.68598 9.556 7.58598C11.656 6.48598 14.256 7.28598 15.256 9.28598Z" fill="url(#paint2_linear_200_24734)"/>
<path d="M15.356 9.28598C15.456 9.38598 15.456 9.48598 15.556 9.58598C14.356 7.78598 12.356 6.68598 9.956 7.98598C7.456 9.28598 7.256 11.586 8.056 13.586C8.056 13.486 7.956 13.386 7.856 13.286C6.756 11.286 7.556 8.68598 9.556 7.58598C11.656 6.48598 14.256 7.28598 15.356 9.28598Z" fill="#C4C4C4"/>
<path d="M13.1558 10.8857H12.1558V9.88574C12.1558 9.58574 11.9558 9.38574 11.6558 9.38574C11.3558 9.38574 11.1558 9.58574 11.1558 9.88574V10.8857H10.1558C9.85576 10.8857 9.65576 11.0857 9.65576 11.3857C9.65576 11.6857 9.85576 11.8857 10.1558 11.8857H11.1558V12.8857C11.1558 13.1857 11.3558 13.3857 11.6558 13.3857C11.9558 13.3857 12.1558 13.1857 12.1558 12.8857V11.8857H13.1558C13.4558 11.8857 13.6558 11.6857 13.6558 11.3857C13.6558 11.1857 13.4558 10.8857 13.1558 10.8857Z" fill="#1A1A1A"/>
<path d="M11.5558 155.186C14.262 155.186 16.4558 152.992 16.4558 150.286C16.4558 147.58 14.262 145.386 11.5558 145.386C8.84957 145.386 6.65576 147.58 6.65576 150.286C6.65576 152.992 8.84957 155.186 11.5558 155.186Z" fill="#858585"/>
<path d="M15.256 148.286C16.356 150.286 15.556 152.886 13.556 153.986C11.556 155.086 8.956 154.286 7.856 152.286C6.756 150.286 7.556 147.686 9.556 146.586C11.656 145.486 14.256 146.286 15.256 148.286Z" fill="url(#paint3_linear_200_24734)"/>
<path d="M15.3561 148.286C15.4561 148.386 15.4561 148.486 15.5561 148.586C14.3561 146.786 12.3561 145.786 9.9561 146.986C7.5561 148.286 7.2561 150.486 8.1561 152.486C8.0561 152.386 8.0561 152.286 7.9561 152.186C6.8561 150.186 7.6561 147.586 9.6561 146.486C11.6561 145.486 14.2561 146.186 15.3561 148.286Z" fill="#C4C4C4"/>
<path d="M13.1558 149.786H12.1558V148.786C12.1558 148.486 11.9558 148.286 11.6558 148.286C11.3558 148.286 11.1558 148.486 11.1558 148.786V149.786H10.1558C9.85576 149.786 9.65576 149.986 9.65576 150.286C9.65576 150.586 9.85576 150.786 10.1558 150.786H11.1558V151.786C11.1558 152.086 11.3558 152.286 11.6558 152.286C11.9558 152.286 12.1558 152.086 12.1558 151.786V150.786H13.1558C13.4558 150.786 13.6558 150.586 13.6558 150.286C13.6558 149.986 13.4558 149.786 13.1558 149.786Z" fill="#1A1A1A"/>
<path d="M124.756 141.286C127.462 141.286 129.656 139.092 129.656 136.386C129.656 133.68 127.462 131.486 124.756 131.486C122.05 131.486 119.856 133.68 119.856 136.386C119.856 139.092 122.05 141.286 124.756 141.286Z" fill="#A6A6A6"/>
<path d="M128.456 134.386C129.556 136.386 128.756 138.986 126.756 140.086C124.756 141.186 122.156 140.386 121.056 138.386C119.956 136.386 120.756 133.786 122.756 132.686C124.856 131.586 127.356 132.386 128.456 134.386Z" fill="url(#paint4_linear_200_24734)"/>
<path d="M128.456 134.386C128.556 134.486 128.556 134.586 128.656 134.686C127.456 132.886 125.456 131.886 123.056 133.086C120.656 134.386 120.356 136.586 121.256 138.586C121.156 138.486 121.156 138.386 121.056 138.286C119.956 136.286 120.756 133.686 122.756 132.586C124.856 131.586 127.356 132.386 128.456 134.386Z" fill="#C4C4C4"/>
<path d="M126.356 135.986H125.356V134.986C125.356 134.686 125.156 134.486 124.856 134.486C124.556 134.486 124.356 134.686 124.356 134.986V135.986H123.356C123.056 135.986 122.856 136.186 122.856 136.486C122.856 136.786 123.056 136.986 123.356 136.986H124.356V137.986C124.356 138.286 124.556 138.486 124.856 138.486C125.156 138.486 125.356 138.286 125.356 137.986V136.986H126.356C126.656 136.986 126.856 136.786 126.856 136.486C126.856 136.286 126.656 135.986 126.356 135.986Z" fill="#1A1A1A"/>
<path d="M224.555 14.0859H24.9555C21.1555 17.8859 19.0555 19.9859 15.3555 23.6859V106.886C15.3555 107.686 15.9555 108.286 16.7555 108.286H232.855C233.655 108.286 234.255 107.686 234.255 106.886V23.7859C230.455 19.9859 228.355 17.8859 224.555 14.0859ZM71.1555 81.6859C64.0555 81.6859 58.2555 75.8859 58.2555 68.7859C58.2555 61.6859 64.0555 55.8859 71.1555 55.8859C78.2555 55.8859 84.0555 61.6859 84.0555 68.7859C84.0555 75.8859 78.2555 81.6859 71.1555 81.6859ZM153.455 73.7859C153.055 74.6859 152.555 75.5859 151.955 76.2859C151.655 76.6859 151.255 77.1859 150.855 77.5859C149.455 78.9859 147.755 79.9859 145.855 80.5859C144.655 80.9859 143.355 81.1859 142.055 81.1859H107.355C103.355 81.1859 99.8555 79.3859 97.5555 76.4859C95.8555 74.3859 94.8555 71.6859 94.8555 68.7859C94.8555 65.8859 95.8555 63.1859 97.5555 61.0859C97.8555 60.6859 98.1555 60.3859 98.5555 59.9859C100.755 57.6859 103.955 56.3859 107.355 56.3859H142.055C143.355 56.3859 144.655 56.5859 145.855 56.9859C148.255 57.7859 150.355 59.2859 151.955 61.2859C152.555 62.0859 153.055 62.8859 153.455 63.7859C154.155 65.2859 154.555 66.9859 154.555 68.7859C154.555 70.5859 154.155 72.2859 153.455 73.7859ZM177.855 81.6859C170.755 81.6859 164.955 75.8859 164.955 68.7859C164.955 61.6859 170.755 55.8859 177.855 55.8859C184.955 55.8859 190.755 61.6859 190.755 68.7859C190.755 75.8859 184.955 81.6859 177.855 81.6859Z" fill="#FF931A"/>
<path d="M191.32 72.4995H234.22V68.2995H191.32V72.4995Z" fill="white"/>
<path d="M191.356 74.3857H234.156V78.5857H188.456L191.356 74.3857Z" fill="white"/>
<path d="M192.236 67.166H234.236V65.866H192.236V67.166Z" fill="white"/>
<path d="M192.236 64.6499H234.236V63.3499L192.236 63.3499V64.6499Z" fill="white"/>
<path d="M192.236 61.9067L234.236 61.9067V61.2067L192.236 61.2067V61.9067Z" fill="white"/>
<path d="M191.32 59.7476L234.22 59.7476V59.0476L191.32 59.0476V59.7476Z" fill="white"/>
<path d="M234.156 80.7861H187.656V82.1861H234.156V80.7861Z" fill="white"/>
<path d="M58.2555 68.3857H15.3555V72.5857H58.2555V68.3857Z" fill="white"/>
<path d="M58.1555 74.3857H15.3555V78.5857H61.0555L58.1555 74.3857Z" fill="white"/>
<path d="M57.3555 65.7861H15.3555V67.0861H57.3555V65.7861Z" fill="white"/>
<path d="M57.3555 63.2861H15.3555V64.5861H57.3555V63.2861Z" fill="white"/>
<path d="M57.3555 61.186H15.3555V61.886H57.3555V61.186Z" fill="white"/>
<path d="M58.2555 59.0859H15.3555V59.7859H58.2555V59.0859Z" fill="white"/>
<path d="M15.333 82.2729H61.833V80.873H15.333V82.2729Z" fill="white"/>
<path d="M177.856 50.2861H71.6557C61.3557 50.2861 53.0557 58.5861 53.0557 68.7861C53.0557 78.9861 61.3557 87.2861 71.5557 87.2861H177.756C187.956 87.2861 196.356 78.9861 196.356 68.7861C196.356 58.5861 188.156 50.2861 177.856 50.2861ZM71.1557 81.6861C64.0557 81.6861 58.2557 75.8861 58.2557 68.7861C58.2557 61.6861 64.0557 55.8861 71.1557 55.8861C78.2557 55.8861 84.0557 61.6861 84.0557 68.7861C84.0557 75.8861 78.2557 81.6861 71.1557 81.6861ZM153.456 73.7861C153.056 74.6861 152.556 75.5861 151.956 76.2861C151.656 76.6861 151.256 77.1861 150.856 77.5861C149.456 78.9861 147.756 79.9861 145.856 80.5861C144.656 80.9861 143.356 81.1861 142.056 81.1861H107.356C103.356 81.1861 99.8557 79.3861 97.5557 76.4861C95.8557 74.3861 94.8557 71.6861 94.8557 68.7861C94.8557 65.8861 95.8557 63.1861 97.5557 61.0861C97.8557 60.6861 98.1557 60.3861 98.5557 59.9861C100.756 57.6861 103.956 56.3861 107.356 56.3861H142.056C143.356 56.3861 144.656 56.5861 145.856 56.9861C148.256 57.7861 150.356 59.2861 151.956 61.2861C152.556 62.0861 153.056 62.8861 153.456 63.7861C154.156 65.2861 154.556 66.9861 154.556 68.7861C154.556 70.5861 154.156 72.2861 153.456 73.7861ZM177.856 81.6861C170.756 81.6861 164.956 75.8861 164.956 68.7861C164.956 61.6861 170.756 55.8861 177.856 55.8861C184.956 55.8861 190.756 61.6861 190.756 68.7861C190.756 75.8861 184.956 81.6861 177.856 81.6861Z" fill="#1A1A1A"/>
<path d="M177.856 85.7861H71.6558C62.2558 85.7861 54.6558 78.1861 54.6558 68.7861C54.6558 59.3861 62.2558 51.7861 71.6558 51.7861H177.856C187.256 51.7861 194.856 59.3861 194.856 68.7861C194.856 78.1861 187.256 85.7861 177.856 85.7861ZM71.6558 52.8861C62.8558 52.8861 55.7558 59.9861 55.7558 68.7861C55.7558 77.5861 62.8558 84.6861 71.6558 84.6861H177.856C186.656 84.6861 193.756 77.5861 193.756 68.7861C193.756 59.9861 186.656 52.8861 177.856 52.8861H71.6558Z" fill="#404040"/>
<path d="M71.1556 54.686C63.3556 54.686 56.9556 60.986 56.9556 68.886C56.9556 76.686 63.2556 83.086 71.1556 83.086C78.9556 83.086 85.3556 76.786 85.3556 68.886C85.3556 60.986 79.0556 54.686 71.1556 54.686ZM71.1556 81.686C64.0556 81.686 58.2556 75.886 58.2556 68.786C58.2556 61.686 64.0556 55.886 71.1556 55.886C78.2556 55.886 84.0556 61.686 84.0556 68.786C84.0556 75.886 78.2556 81.686 71.1556 81.686Z" fill="white"/>
<path d="M82.2558 62.2861C78.6558 56.1861 70.7558 54.1861 64.6558 57.7861C58.5558 61.3861 56.5558 69.2861 60.1558 75.3861C63.7558 81.4861 71.6558 83.4861 77.7558 79.8861C83.8558 76.2861 85.8558 68.3861 82.2558 62.2861ZM78.1558 77.8861L77.3558 76.4861L74.9558 77.8861L75.8558 79.2861C72.9558 80.5861 69.6558 80.5861 66.8558 79.3861L67.6558 77.9861L65.2558 76.5861L64.4558 78.0861C63.2558 77.1861 62.1558 76.0861 61.3558 74.6861C60.5558 73.2861 60.0558 71.8861 59.8558 70.3861H61.5558V67.5861H59.8558C60.1558 64.5861 61.7558 61.6861 64.2558 59.7861L65.1558 61.1861L67.5558 59.7861L66.7557 58.3861C69.6558 57.0861 72.9558 57.0861 75.7558 58.2861L74.9558 59.6861L77.3558 61.0861L78.1558 59.5861C79.3558 60.4861 80.4558 61.5861 81.2558 62.9861C82.0557 64.3861 82.5557 65.7861 82.7558 67.2861H81.0558V70.0861H82.7558C82.2558 73.0861 80.7558 75.9861 78.1558 77.8861Z" fill="#333333"/>
<path d="M177.856 54.686C170.056 54.686 163.656 60.986 163.656 68.886C163.656 76.686 169.956 83.086 177.856 83.086C185.656 83.086 192.056 76.786 192.056 68.886C192.056 60.986 185.656 54.686 177.856 54.686ZM177.856 80.686C171.356 80.686 166.056 75.386 166.056 68.886C166.056 62.386 171.356 57.086 177.856 57.086C184.356 57.086 189.656 62.386 189.656 68.886C189.656 75.386 184.456 80.686 177.856 80.686Z" fill="white"/>
<path d="M177.856 54.686C170.056 54.686 163.656 60.986 163.656 68.886C163.656 76.686 169.956 83.086 177.856 83.086C185.656 83.086 192.056 76.786 192.056 68.886C192.056 60.986 185.656 54.686 177.856 54.686ZM177.856 81.686C170.756 81.686 164.956 75.886 164.956 68.786C164.956 61.686 170.756 55.886 177.856 55.886C184.956 55.886 190.756 61.686 190.756 68.786C190.756 75.886 184.956 81.686 177.856 81.686Z" fill="white"/>
<path d="M188.956 62.2861C185.356 56.1861 177.456 54.1861 171.356 57.7861C165.256 61.3861 163.256 69.2861 166.856 75.3861C170.456 81.4861 178.356 83.4861 184.456 79.8861C190.556 76.2861 192.556 68.3861 188.956 62.2861ZM184.856 77.8861L184.056 76.4861L181.656 77.8861L182.556 79.2861C179.656 80.5861 176.356 80.5861 173.556 79.3861L174.356 77.9861L171.956 76.5861L171.156 78.0861C169.956 77.1861 168.856 76.0861 168.056 74.6861C167.256 73.2861 166.756 71.8861 166.556 70.3861H168.256V67.5861H166.556C166.856 64.5861 168.456 61.6861 170.956 59.7861L171.856 61.1861L174.256 59.7861L173.356 58.3861C176.256 57.0861 179.556 57.0861 182.356 58.2861L181.556 59.6861L183.956 61.0861L184.756 59.5861C185.956 60.4861 187.056 61.5861 187.856 62.9861C188.656 64.3861 189.156 65.7861 189.356 67.2861H187.656V70.0861H189.356C188.956 73.0861 187.456 75.9861 184.856 77.8861Z" fill="#333333"/>
<path d="M118.455 68.7862C118.455 73.0862 117.855 77.2862 116.755 81.1862H107.355C102.355 81.1862 98.0555 78.2862 96.0555 74.0862C95.2555 72.4862 94.8555 70.6862 94.8555 68.7862C94.8555 66.8862 95.2555 65.0862 96.0555 63.4862C96.6555 62.1862 97.4555 60.9862 98.5555 59.9862C100.755 57.6862 103.955 56.3862 107.355 56.3862H116.755C117.955 60.3862 118.455 64.4862 118.455 68.7862Z" fill="url(#paint5_linear_200_24734)"/>
<path d="M96.6556 68.7863C96.6556 70.5863 96.4556 72.3863 96.1556 74.0863C95.3556 72.4863 94.9556 70.6863 94.9556 68.7863C94.9556 66.8863 95.3556 65.0863 96.1556 63.4863C96.5556 65.2863 96.6556 66.9863 96.6556 68.7863Z" fill="#E5DDDA"/>
<path d="M154.555 68.7863C154.555 72.1863 153.155 75.2863 150.955 77.5863C149.555 78.9863 147.855 79.9863 145.955 80.5863C144.555 76.8863 143.855 72.8863 143.855 68.7863C143.855 64.5863 144.555 60.6863 145.955 56.9863C150.955 58.5863 154.555 63.2863 154.555 68.7863Z" fill="url(#paint6_linear_200_24734)"/>
<path d="M154.556 68.7861C154.556 70.5861 154.156 72.2861 153.456 73.7861C153.156 72.1861 152.956 70.4861 152.956 68.7861C152.956 67.0861 153.156 65.3861 153.456 63.7861C154.156 65.3861 154.556 67.0861 154.556 68.7861Z" fill="#E5DDDA"/>
<path opacity="0.12" d="M154.555 68.7862C154.555 70.5862 154.155 72.2862 153.455 73.7862C153.055 74.6862 152.555 75.5862 151.955 76.2862C151.655 76.6862 151.255 77.1862 150.855 77.5862C149.455 78.9862 147.755 79.9862 145.855 80.5862C144.655 80.9862 143.355 81.1862 142.055 81.1862H107.355C103.355 81.1862 99.8555 79.3862 97.5555 76.4862C95.8555 74.3862 94.8555 71.6862 94.8555 68.7862C94.8555 65.8862 95.8555 63.1862 97.5555 61.0862C97.8555 60.6862 98.1555 60.3862 98.5555 59.9862C100.755 57.6862 103.955 56.3862 107.355 56.3862H142.055C143.355 56.3862 144.655 56.5862 145.855 56.9862C148.255 57.7862 150.355 59.2862 151.955 61.2862C152.555 62.0862 153.055 62.8862 153.455 63.7862C154.155 65.3862 154.555 67.0862 154.555 68.7862Z" fill="#FAF5F3"/>
<path d="M124.755 72.3862C124.555 72.3862 124.355 72.1862 124.355 72.0862V65.6862C124.355 65.4862 124.555 65.3862 124.755 65.3862C124.955 65.3862 125.055 65.5862 125.055 65.6862V72.0862C125.155 72.1862 124.955 72.3862 124.755 72.3862Z" fill="#E3DAD5"/>
<path d="M119.056 70.486C118.856 70.486 118.656 70.286 118.656 70.186V67.486C118.656 67.286 118.856 67.186 119.056 67.186C119.256 67.186 119.356 67.386 119.356 67.486V70.086C119.356 70.286 119.256 70.486 119.056 70.486Z" fill="#E3DAD5"/>
<path d="M113.256 70.486C113.056 70.486 112.956 70.286 112.956 70.186V67.486C112.956 67.286 113.156 67.186 113.256 67.186C113.456 67.186 113.656 67.386 113.656 67.486V70.086C113.656 70.286 113.456 70.486 113.256 70.486Z" fill="#E3DAD5"/>
<path d="M107.555 70.486C107.355 70.486 107.255 70.286 107.255 70.186V67.486C107.255 67.286 107.455 67.186 107.555 67.186C107.755 67.186 107.955 67.386 107.955 67.486V70.086C107.855 70.286 107.755 70.486 107.555 70.486Z" fill="#E3DAD5"/>
<path d="M101.756 70.486C101.556 70.486 101.456 70.286 101.456 70.186V67.486C101.456 67.286 101.656 67.186 101.756 67.186C101.956 67.186 102.056 67.386 102.056 67.486V70.086C102.156 70.286 101.956 70.486 101.756 70.486Z" fill="#E3DAD5"/>
<path d="M130.456 70.486C130.256 70.486 130.156 70.286 130.156 70.186V67.486C130.156 67.286 130.356 67.186 130.456 67.186C130.656 67.186 130.856 67.386 130.856 67.486V70.086C130.856 70.286 130.656 70.486 130.456 70.486Z" fill="#E3DAD5"/>
<path d="M136.255 70.486C136.055 70.486 135.855 70.286 135.855 70.186V67.486C135.855 67.286 136.055 67.186 136.255 67.186C136.455 67.186 136.555 67.386 136.555 67.486V70.086C136.555 70.286 136.455 70.486 136.255 70.486Z" fill="#E3DAD5"/>
<path d="M141.956 70.486C141.756 70.486 141.556 70.286 141.556 70.186V67.486C141.556 67.286 141.756 67.186 141.956 67.186C142.156 67.186 142.356 67.386 142.356 67.486V70.086C142.356 70.286 142.156 70.486 141.956 70.486Z" fill="#E3DAD5"/>
<path d="M147.756 70.486C147.556 70.486 147.456 70.286 147.456 70.186V67.486C147.456 67.286 147.656 67.186 147.756 67.186C147.956 67.186 148.156 67.386 148.156 67.486V70.086C148.056 70.286 147.956 70.486 147.756 70.486Z" fill="#E3DAD5"/>
<path d="M35.4556 35.9857H30.8556L29.9556 39.5857H26.4556L31.1556 24.3857H35.2556L40.0556 39.5857H36.4556L35.4556 35.9857ZM34.7556 33.2857L34.4556 31.8857C34.2556 31.0857 34.0556 30.2857 33.8556 29.4857C33.6556 28.5857 33.4556 27.7857 33.2556 26.9857H33.1556C32.9556 27.7857 32.7556 28.5857 32.5556 29.4857C32.3556 30.2857 32.1556 31.0857 31.9556 31.8857L31.5556 33.2857H34.7556Z" fill="#1A1A1A"/>
<path d="M199.455 43.9858H50.0554C49.3554 43.9858 48.7554 43.3858 48.7554 42.6858V21.7858C48.7554 21.0858 49.3554 20.4858 50.0554 20.4858H199.555C200.255 20.4858 200.855 21.0858 200.855 21.7858V42.6858C200.755 43.3858 200.155 43.9858 199.455 43.9858Z" fill="white"/>
<path d="M194.255 28.3857H55.1553V28.6857H194.255V28.3857Z" fill="#404040"/>
<path d="M194.255 35.7856H55.1553V36.0856H194.255V35.7856Z" fill="#404040"/>
<path d="M208.356 99.186C208.856 99.986 209.456 100.486 210.356 100.486C212.356 100.486 214.156 98.486 214.856 94.986C213.956 95.986 212.556 96.586 211.656 96.586C209.556 96.586 207.956 95.186 207.956 92.686C207.956 89.786 210.056 87.186 212.956 87.186C215.656 87.186 217.356 89.286 217.356 92.286C217.356 98.386 214.356 102.486 210.156 102.486C208.456 102.486 207.356 101.486 206.756 100.486L208.356 99.186ZM214.956 92.986C214.956 92.686 214.956 92.286 214.956 91.986C214.956 90.086 214.056 88.886 212.756 88.886C211.256 88.886 210.156 90.686 210.156 92.286C210.156 93.786 210.856 94.686 212.156 94.686C212.856 94.686 213.956 94.286 214.956 92.986Z" fill="#1A1A1A"/>
<path d="M218.756 97.2859C218.756 91.1859 221.856 87.0859 225.056 87.0859C227.456 87.0859 228.956 89.0859 228.956 92.2859C228.956 98.3859 225.956 102.486 222.656 102.486C220.356 102.486 218.756 100.486 218.756 97.2859ZM221.156 97.4859C221.156 99.3859 221.756 100.486 222.856 100.486C224.856 100.486 226.656 96.3859 226.656 92.0859C226.656 90.0859 226.056 88.9859 224.956 88.9859C222.956 88.9859 221.156 93.1859 221.156 97.4859Z" fill="#1A1A1A"/>
<path d="M167.156 101.686C169.056 100.086 170.156 99.1861 170.156 98.2861C170.156 97.8861 169.856 97.4861 169.356 97.4861C169.056 97.4861 168.756 97.6861 168.356 97.9861L167.956 97.4861C168.456 97.0861 168.956 96.7861 169.456 96.7861C170.456 96.7861 170.956 97.3861 170.956 98.1861C170.956 99.2861 170.056 100.086 168.456 101.486H170.556L170.456 102.286H167.056L167.156 101.686Z" fill="white"/>
<path d="M174.356 99.9859L173.656 98.0859H174.556L174.856 98.8859C174.956 99.0859 174.956 99.3859 175.056 99.5859C175.256 99.3859 175.356 99.0859 175.556 98.8859L176.156 98.0859H177.156L175.456 100.186L176.256 102.186H175.356L175.056 101.386C174.956 101.186 174.856 100.886 174.756 100.686C174.556 100.886 174.456 101.186 174.256 101.386L173.656 102.186H172.656L174.356 99.9859Z" fill="white"/>
<path d="M180.456 102.186L180.756 100.786H178.556L178.656 100.186L181.356 96.8862H182.456L181.756 100.186H182.456L182.356 100.886H181.656L181.356 102.286H180.456V102.186ZM180.856 100.086L181.156 98.7862C181.256 98.3862 181.356 98.0862 181.456 97.6862C181.256 97.9862 181.056 98.2862 180.856 98.5862L179.656 100.086H180.856Z" fill="white"/>
<path d="M183.056 100.886C183.356 101.286 183.656 101.586 184.156 101.586C184.756 101.586 185.356 101.086 185.356 100.386C185.356 99.7862 185.056 99.4862 184.556 99.4862C184.256 99.4862 184.056 99.5862 183.756 99.7862L183.356 99.4862L184.056 96.8862H186.756L186.556 97.6862H184.656L184.256 98.9862C184.456 98.8862 184.656 98.8862 184.856 98.8862C185.656 98.8862 186.256 99.3862 186.256 100.286C186.256 101.586 185.256 102.386 184.156 102.386C183.456 102.386 182.856 102.086 182.456 101.486L183.056 100.886Z" fill="white"/>
<path d="M189.356 98.0863H190.056V98.6863C190.456 98.2863 190.956 97.9863 191.356 97.9863C191.956 97.9863 192.256 98.2863 192.356 98.7863C192.856 98.2863 193.356 97.9863 193.756 97.9863C194.456 97.9863 194.756 98.3863 194.756 98.9863C194.756 99.1863 194.756 99.3863 194.656 99.5863L194.156 102.186H193.256L193.756 99.6863C193.756 99.4863 193.856 99.3863 193.856 99.2863C193.856 98.8863 193.656 98.7863 193.356 98.7863C193.156 98.7863 192.756 98.9863 192.356 99.3863L191.756 102.186H190.856L191.356 99.6863C191.356 99.4863 191.456 99.3863 191.456 99.2863C191.456 98.8863 191.256 98.7863 190.956 98.7863C190.756 98.7863 190.356 98.9863 189.956 99.3863L189.356 102.186H188.456L189.356 98.0863Z" fill="white"/>
<path d="M196.155 98.0861H197.055L196.255 102.186H195.355L196.155 98.0861ZM196.355 96.8861C196.355 96.5861 196.655 96.2861 196.955 96.2861C197.255 96.2861 197.455 96.4861 197.455 96.7861C197.455 97.0861 197.155 97.3861 196.855 97.3861C196.555 97.2861 196.355 97.1861 196.355 96.8861Z" fill="white"/>
<path d="M198.256 98.0863H198.956V98.6863C199.356 98.2863 199.856 97.9863 200.356 97.9863C201.056 97.9863 201.356 98.3863 201.356 98.9863C201.356 99.1863 201.356 99.3863 201.256 99.5863L200.756 102.186H199.856L200.356 99.6863C200.356 99.4863 200.456 99.3863 200.456 99.2863C200.456 98.8863 200.256 98.7863 199.956 98.7863C199.656 98.7863 199.356 98.9863 198.956 99.3863L198.356 102.186H197.456L198.256 98.0863Z" fill="white"/>
<path d="M21.4556 100.286C21.8556 100.786 22.2556 100.986 22.6556 100.986C23.0556 100.986 23.3556 100.786 23.3556 100.586C23.3556 100.286 22.9556 100.186 22.3556 99.7859C21.7556 99.4859 21.2556 98.8859 21.2556 98.0859C21.2556 96.9859 22.3556 96.0859 23.6556 96.0859C24.5556 96.0859 25.1556 96.4859 25.6556 97.0859L24.6556 98.0859C24.3556 97.7859 24.0556 97.5859 23.6556 97.5859C23.2556 97.5859 23.0556 97.7859 23.0556 97.9859C23.0556 98.2859 23.5556 98.4859 24.0556 98.6859C24.6556 98.9859 25.2556 99.4859 25.2556 100.386C25.2556 101.586 24.1556 102.386 22.6556 102.386C21.9556 102.386 21.0556 101.986 20.4556 101.186L21.4556 100.286Z" fill="white"/>
<path d="M26.8557 97.686H26.0557L26.3557 96.286L27.2557 96.186L27.7557 94.686H29.3557L29.0557 96.186H30.3557L30.0557 97.686H28.7557L28.2557 99.886C28.2557 99.986 28.2557 100.186 28.2557 100.286C28.2557 100.686 28.4557 100.786 28.8557 100.786C28.9557 100.786 29.1557 100.786 29.2557 100.686L29.5557 101.986C29.2557 102.086 28.7557 102.286 28.0557 102.286C26.7557 102.286 26.2557 101.586 26.2557 100.586C26.2557 100.286 26.2557 100.086 26.3557 99.786L26.8557 97.686Z" fill="white"/>
<path d="M33.7556 96.0859C35.2556 96.0859 35.7556 97.0859 35.7556 98.3859C35.7556 98.9859 35.5556 99.6859 35.4556 99.7859H32.2556C32.2556 100.586 32.7556 100.886 33.4556 100.886C33.7556 100.886 34.1556 100.686 34.4556 100.486L35.1556 101.686C34.6556 101.986 33.9556 102.286 32.9556 102.286C31.4556 102.286 30.4556 101.286 30.4556 99.6859C30.3556 97.5859 32.1556 96.0859 33.7556 96.0859ZM34.0556 98.6859C34.0556 98.5859 34.0556 98.4859 34.0556 98.2859C34.0556 97.8859 33.8556 97.5859 33.3556 97.5859C32.8556 97.5859 32.4556 97.8859 32.1556 98.6859H34.0556Z" fill="white"/>
<path d="M37.2557 96.286H38.7557V97.486C39.2557 96.686 39.8557 96.186 40.5557 96.186C40.8557 96.186 41.0557 96.186 41.1557 96.286L40.5557 97.886C40.3557 97.786 40.1557 97.786 39.9557 97.786C39.4557 97.786 39.0557 98.086 38.5557 98.886L37.9557 102.186H36.0557L37.2557 96.286Z" fill="white"/>
<path d="M44.3557 96.0859C45.8557 96.0859 46.3557 97.0859 46.3557 98.3859C46.3557 98.9859 46.1557 99.6859 46.0557 99.7859H42.8557C42.8557 100.586 43.3557 100.886 44.0557 100.886C44.3557 100.886 44.7557 100.686 45.0557 100.486L45.7557 101.686C45.2557 101.986 44.5557 102.286 43.5557 102.286C42.0557 102.286 41.0557 101.286 41.0557 99.6859C40.9557 97.5859 42.7557 96.0859 44.3557 96.0859ZM44.7557 98.6859C44.7557 98.5859 44.7557 98.4859 44.7557 98.2859C44.7557 97.8859 44.5557 97.5859 44.0557 97.5859C43.5557 97.5859 43.1557 97.8859 42.8557 98.6859H44.7557Z" fill="white"/>
<path d="M46.9556 99.8859C46.9556 97.5859 48.6556 96.0859 50.3556 96.0859C51.7556 96.0859 52.7556 97.0859 52.7556 98.5859C52.7556 100.886 51.0556 102.386 49.3556 102.386C47.8556 102.286 46.9556 101.286 46.9556 99.8859ZM48.8556 99.7859C48.8556 100.386 49.0556 100.786 49.5556 100.786C50.2556 100.786 50.7556 99.8859 50.7556 98.5859C50.7556 97.9859 50.5556 97.5859 50.0556 97.5859C49.4556 97.5859 48.8556 98.5859 48.8556 99.7859Z" fill="white"/>
<path d="M59.1555 96.186C59.8555 96.186 60.3555 96.486 60.6555 96.886L60.0555 97.686C59.7555 97.386 59.5555 97.186 59.1555 97.186C58.1555 97.186 57.1555 98.386 57.1555 99.886C57.1555 100.786 57.5555 101.286 58.3555 101.286C58.8555 101.286 59.1555 101.086 59.4555 100.786L59.9555 101.586C59.5555 101.886 58.9555 102.286 58.0555 102.286C56.7555 102.286 55.8555 101.386 55.8555 99.886C55.8555 97.886 57.3555 96.186 59.1555 96.186Z" fill="#1A1A1A"/>
<path d="M64.0555 96.186C64.6555 96.186 65.1555 96.486 65.3555 96.986L65.5555 96.286H66.5555L65.3555 102.086H64.3555L64.4555 101.286C63.9555 101.886 63.1555 102.286 62.5555 102.286C61.5555 102.286 60.8555 101.486 60.8555 100.186C60.8555 97.986 62.4555 96.186 64.0555 96.186ZM64.6555 100.286L65.1555 97.986C64.8555 97.486 64.5555 97.286 64.1555 97.286C63.1555 97.286 62.2555 98.586 62.2555 100.086C62.2555 100.986 62.5555 101.386 63.1555 101.386C63.5555 101.286 64.1555 100.986 64.6555 100.286Z" fill="#1A1A1A"/>
<path d="M67.6557 100.586C68.0557 101.086 68.5557 101.386 69.0557 101.386C69.5557 101.386 70.0557 101.086 70.0557 100.586C70.0557 100.186 69.7557 99.986 69.0557 99.586C68.2557 99.186 67.8557 98.686 67.8557 97.986C67.8557 96.886 68.8557 96.186 69.9557 96.186C70.7557 96.186 71.3557 96.586 71.7557 96.986L71.0557 97.686C70.7557 97.386 70.3557 97.186 69.9557 97.186C69.4557 97.186 69.0557 97.486 69.0557 97.886C69.0557 98.286 69.5557 98.486 70.0557 98.786C70.9557 99.286 71.3557 99.686 71.3557 100.386C71.3557 101.486 70.3557 102.286 69.0557 102.286C68.3557 102.286 67.4557 101.786 67.0557 101.186L67.6557 100.586Z" fill="#1A1A1A"/>
<path d="M72.5556 100.586C72.9556 101.086 73.4556 101.386 73.9556 101.386C74.4556 101.386 74.9556 101.086 74.9556 100.586C74.9556 100.186 74.6556 99.986 73.9556 99.586C73.1556 99.186 72.7556 98.686 72.7556 97.986C72.7556 96.886 73.7556 96.186 74.8556 96.186C75.6556 96.186 76.2556 96.586 76.6556 96.986L75.9556 97.686C75.6556 97.386 75.2556 97.186 74.8556 97.186C74.3556 97.186 73.9556 97.486 73.9556 97.886C73.9556 98.286 74.4556 98.486 74.9556 98.786C75.8556 99.286 76.2556 99.686 76.2556 100.386C76.2556 101.486 75.2556 102.286 73.9556 102.286C73.2556 102.286 72.3556 101.786 71.9556 101.186L72.5556 100.586Z" fill="#1A1A1A"/>
<path d="M80.3557 96.186C81.7557 96.186 82.2557 97.086 82.2557 98.386C82.2557 98.886 82.0557 99.386 82.0557 99.586H78.4557C78.3557 100.786 79.0557 101.386 79.8557 101.386C80.2557 101.386 80.7557 101.186 81.0557 100.886L81.5557 101.686C81.0557 101.986 80.3557 102.286 79.5557 102.286C78.1557 102.286 77.2557 101.386 77.2557 99.786C77.1557 97.686 78.8557 96.186 80.3557 96.186ZM81.1557 98.786C81.1557 98.586 81.2557 98.486 81.2557 98.286C81.2557 97.686 81.0557 97.186 80.2557 97.186C79.5557 97.186 78.8557 97.786 78.5557 98.786H81.1557Z" fill="#1A1A1A"/>
<path d="M83.8557 97.386H83.0557L83.2557 96.386L84.1557 96.286L84.6557 94.686H85.7557L85.4557 96.286H86.8557L86.6557 97.286H85.0557L84.4557 100.186C84.4557 100.286 84.4557 100.486 84.4557 100.586C84.4557 100.986 84.6557 101.186 85.1557 101.186C85.3557 101.186 85.5557 101.086 85.6557 100.986L85.8557 101.886C85.5557 101.986 85.1557 102.186 84.6557 102.186C83.5557 102.186 83.1557 101.586 83.1557 100.786C83.1557 100.586 83.1557 100.286 83.2557 100.086L83.8557 97.386Z" fill="#1A1A1A"/>
<path d="M87.9558 97.386H87.1558L87.3558 96.386L88.2558 96.286L88.7558 94.686H89.8558L89.5558 96.286H90.9558L90.7558 97.286H89.3558L88.7558 100.186C88.7558 100.286 88.7558 100.486 88.7558 100.586C88.7558 100.986 88.9558 101.186 89.4558 101.186C89.6558 101.186 89.8558 101.086 89.9558 100.986L90.1558 101.886C89.8558 101.986 89.4558 102.186 88.9558 102.186C87.8558 102.186 87.4558 101.586 87.4558 100.786C87.4558 100.586 87.4558 100.286 87.5558 100.086L87.9558 97.386Z" fill="#1A1A1A"/>
<path d="M94.0555 96.186C95.4555 96.186 95.9555 97.086 95.9555 98.386C95.9555 98.886 95.7555 99.386 95.7555 99.586H92.0555C91.9555 100.786 92.6555 101.386 93.4555 101.386C93.8555 101.386 94.3555 101.186 94.6555 100.886L95.1555 101.686C94.6555 101.986 93.9555 102.286 93.1555 102.286C91.7555 102.286 90.8555 101.386 90.8555 99.786C90.8555 97.686 92.5555 96.186 94.0555 96.186ZM94.7555 98.786C94.7555 98.586 94.8555 98.486 94.8555 98.286C94.8555 97.686 94.6555 97.186 93.8555 97.186C93.1555 97.186 92.4555 97.786 92.1555 98.786H94.7555Z" fill="#1A1A1A"/>
</g>
<defs>
<linearGradient id="paint0_linear_200_24734" x1="234.202" y1="10.2689" x2="241.936" y2="12.3557" gradientUnits="userSpaceOnUse">
<stop stop-color="#808080"/>
<stop offset="0.6421" stop-color="#545454"/>
<stop offset="1" stop-color="#404040"/>
</linearGradient>
<linearGradient id="paint1_linear_200_24734" x1="234.202" y1="149.263" x2="241.936" y2="151.35" gradientUnits="userSpaceOnUse">
<stop stop-color="#808080"/>
<stop offset="0.6421" stop-color="#545454"/>
<stop offset="1" stop-color="#404040"/>
</linearGradient>
<linearGradient id="paint2_linear_200_24734" x1="7.88673" y1="10.2694" x2="15.6208" y2="12.3562" gradientUnits="userSpaceOnUse">
<stop stop-color="#808080"/>
<stop offset="0.6421" stop-color="#545454"/>
<stop offset="1" stop-color="#404040"/>
</linearGradient>
<linearGradient id="paint3_linear_200_24734" x1="7.88671" y1="149.263" x2="15.6207" y2="151.35" gradientUnits="userSpaceOnUse">
<stop stop-color="#808080"/>
<stop offset="0.6421" stop-color="#545454"/>
<stop offset="1" stop-color="#404040"/>
</linearGradient>
<linearGradient id="paint4_linear_200_24734" x1="121.044" y1="135.38" x2="128.779" y2="137.467" gradientUnits="userSpaceOnUse">
<stop stop-color="#808080"/>
<stop offset="0.1871" stop-color="#6D6D6D"/>
<stop offset="0.7319" stop-color="#3A3A3A"/>
<stop offset="1" stop-color="#262626"/>
</linearGradient>
<linearGradient id="paint5_linear_200_24734" x1="96.9641" y1="68.8237" x2="118.72" y2="68.8237" gradientUnits="userSpaceOnUse">
<stop stop-color="#1F0E05"/>
<stop offset="0.46" stop-color="#43281A"/>
<stop offset="1" stop-color="#734A36"/>
</linearGradient>
<linearGradient id="paint6_linear_200_24734" x1="143.106" y1="68.8238" x2="153.318" y2="68.8238" gradientUnits="userSpaceOnUse">
<stop stop-color="#734A36"/>
<stop offset="0.3136" stop-color="#5A3929"/>
<stop offset="0.9787" stop-color="#190C06"/>
<stop offset="1" stop-color="#170B05"/>
</linearGradient>
<clipPath id="clip0_200_24734">
<rect width="249.4" height="160.6" fill="white" transform="translate(0.0556641 0.48584)"/>
</clipPath>
</defs>
</svg>
