<svg width="249" height="162" viewBox="0 0 249 162" fill="none" xmlns="http://www.w3.org/2000/svg">
<g clip-path="url(#clip0_200_25651)">
<path d="M5.14834 150.086L0.94834 148.486C0.14834 148.186 -0.45166 147.286 -0.45166 146.286V116.386C-0.45166 115.386 0.0483398 114.486 0.94834 114.186L5.14834 112.586V150.086Z" fill="#96155C"/>
<path d="M243.348 150.086L247.548 148.486C248.348 148.186 248.948 147.286 248.948 146.286V116.386C248.948 115.386 248.448 114.486 247.548 114.186L243.348 112.586V150.086Z" fill="#96155C"/>
<path d="M240.148 0.38623H8.34834C4.84834 0.38623 2.04834 3.18623 2.04834 6.58623V154.686C2.04834 158.086 4.84834 160.886 8.24834 160.886H240.148C243.548 160.886 246.348 158.086 246.348 154.686V6.58623C246.448 3.18623 243.648 0.38623 240.148 0.38623ZM71.3483 82.6862C63.6483 82.6862 57.3483 76.3862 57.3483 68.6862C57.3483 60.9862 63.6483 54.6862 71.3483 54.6862C79.0483 54.6862 85.3483 60.9862 85.3483 68.6862C85.3483 76.3862 79.0483 82.6862 71.3483 82.6862ZM145.748 68.6862C145.748 70.1862 144.548 71.2862 143.148 71.2862H105.448C103.948 71.2862 102.848 70.0862 102.848 68.6862V58.9862C102.848 57.4862 104.048 56.3862 105.448 56.3862H143.148C144.648 56.3862 145.748 57.5862 145.748 58.9862V68.6862ZM177.148 82.6862C169.448 82.6862 163.148 76.3862 163.148 68.6862C163.148 60.9862 169.448 54.6862 177.148 54.6862C184.848 54.6862 191.148 60.9862 191.148 68.6862C191.148 76.3862 184.848 82.6862 177.148 82.6862Z" fill="#CC1C7D"/>
<path d="M224.048 13.9863H24.4481C20.6481 17.7863 18.5481 19.8863 14.8481 23.6863V106.886C14.8481 107.686 15.4481 108.286 16.2481 108.286H232.348C233.148 108.286 233.748 107.686 233.748 106.886V23.6863C229.948 19.8863 227.848 17.7863 224.048 13.9863ZM71.3481 82.6863C63.6481 82.6863 57.3481 76.3863 57.3481 68.6863C57.3481 60.9863 63.6481 54.6863 71.3481 54.6863C79.0481 54.6863 85.3481 60.9863 85.3481 68.6863C85.3481 76.3863 79.0481 82.6863 71.3481 82.6863ZM145.748 68.6863C145.748 70.1863 144.548 71.2863 143.148 71.2863H105.448C103.948 71.2863 102.848 70.0863 102.848 68.6863V58.9863C102.848 57.4863 104.048 56.3863 105.448 56.3863H143.148C144.648 56.3863 145.748 57.5863 145.748 58.9863V68.6863ZM177.148 82.6863C169.448 82.6863 163.148 76.3863 163.148 68.6863C163.148 60.9863 169.448 54.6863 177.148 54.6863C184.848 54.6863 191.148 60.9863 191.148 68.6863C191.148 76.3863 184.848 82.6863 177.148 82.6863Z" fill="#80FCFF"/>
<path d="M177.348 50.1865H71.1483C60.9483 50.1865 52.5483 58.4865 52.5483 68.6865C52.5483 78.8865 60.8483 87.1865 71.1483 87.1865H177.348C187.548 87.1865 195.948 78.8865 195.948 68.6865C195.948 58.4865 187.648 50.1865 177.348 50.1865ZM71.3483 82.6865C63.6483 82.6865 57.3483 76.3865 57.3483 68.6865C57.3483 60.9865 63.6483 54.6865 71.3483 54.6865C79.0483 54.6865 85.3483 60.9865 85.3483 68.6865C85.3483 76.3865 79.1483 82.6865 71.3483 82.6865ZM145.748 68.6865C145.748 70.1865 144.548 71.2865 143.148 71.2865H105.448C103.948 71.2865 102.848 70.0865 102.848 68.6865V58.9865C102.848 57.4865 104.048 56.3865 105.448 56.3865H143.148C144.648 56.3865 145.748 57.5865 145.748 58.9865V68.6865ZM177.148 82.6865C169.448 82.6865 163.148 76.3865 163.148 68.6865C163.148 60.9865 169.448 54.6865 177.148 54.6865C184.848 54.6865 191.148 60.9865 191.148 68.6865C191.148 76.3865 184.848 82.6865 177.148 82.6865Z" fill="#CC1C7D"/>
<path d="M177.348 85.6865H71.1484C61.7484 85.6865 54.1484 78.0865 54.1484 68.6865C54.1484 59.2865 61.7484 51.6865 71.1484 51.6865H177.348C186.748 51.6865 194.348 59.2865 194.348 68.6865C194.348 78.0865 186.748 85.6865 177.348 85.6865ZM71.1484 52.7865C62.3484 52.7865 55.2484 59.8865 55.2484 68.6865C55.2484 77.4865 62.3484 84.5865 71.1484 84.5865H177.348C186.148 84.5865 193.248 77.4865 193.248 68.6865C193.248 59.8865 186.148 52.7865 177.348 52.7865H71.1484Z" fill="#80FCFF"/>
<path d="M71.348 54.5864C63.548 54.5864 57.248 60.8864 57.248 68.6864C57.248 76.4864 63.548 82.7864 71.348 82.7864C79.148 82.7864 85.448 76.4864 85.448 68.6864C85.548 60.8864 79.148 54.5864 71.348 54.5864ZM76.048 79.4864C73.048 80.7864 69.748 80.7864 66.848 79.5864L67.648 78.0864L65.148 76.6864L64.348 78.1864C63.148 77.2864 62.048 76.0864 61.248 74.6864C60.448 73.2864 59.948 71.7864 59.748 70.2864H61.448V67.4864H59.748C60.048 64.3864 61.648 61.4864 64.248 59.4864L65.148 60.9864L67.548 59.4864L66.648 57.9864C69.648 56.6864 72.948 56.6864 75.848 57.8864L74.948 59.3864L77.448 60.7864L78.248 59.2864C79.448 60.1864 80.548 61.3864 81.348 62.7864C82.148 64.1864 82.648 65.6864 82.848 67.1864H81.148V69.9864H82.848C82.548 73.0864 80.948 75.9864 78.348 77.9864L77.448 76.4864L75.048 77.9864L76.048 79.4864Z" fill="#213233"/>
<path d="M177.148 54.5864C169.348 54.5864 163.048 60.8864 163.048 68.6864C163.048 76.4864 169.348 82.7864 177.148 82.7864C184.948 82.7864 191.248 76.4864 191.248 68.6864C191.248 60.8864 184.948 54.5864 177.148 54.5864ZM181.848 79.4864C178.848 80.7864 175.548 80.7864 172.648 79.5864L173.448 78.0864L170.948 76.6864L170.148 78.1864C168.948 77.2864 167.848 76.0864 167.048 74.6864C166.248 73.2864 165.748 71.7864 165.548 70.2864H167.248V67.4864H165.548C165.848 64.3864 167.448 61.4864 170.048 59.4864L170.948 60.9864L173.348 59.4864L172.448 57.9864C175.448 56.6864 178.748 56.6864 181.648 57.8864L180.848 59.3864L183.348 60.7864L184.148 59.2864C185.348 60.1864 186.448 61.3864 187.248 62.7864C188.048 64.1864 188.548 65.6864 188.748 67.1864H187.048V69.9864H188.748C188.448 73.0864 186.848 75.9864 184.248 77.9864L183.348 76.4864L180.948 77.9864L181.848 79.4864Z" fill="#213233"/>
<path d="M118.648 67.9864C118.648 72.2864 118.048 76.4864 116.948 80.3864H107.548C102.548 80.3864 98.2483 77.4864 96.2483 73.2864C95.4483 71.6864 95.0483 69.8864 95.0483 67.9864C95.0483 66.0864 95.4483 64.2864 96.2483 62.6864C96.8483 61.3864 97.6483 60.1864 98.7483 59.1864C100.948 56.8864 104.148 55.5864 107.548 55.5864H116.948C118.148 59.5864 118.648 63.6864 118.648 67.9864Z" fill="url(#paint0_linear_200_25651)"/>
<path d="M151.948 68.1864C151.848 71.5864 150.348 74.6864 148.048 76.8864C146.648 78.1864 144.848 79.1864 142.948 79.7864C141.748 76.0864 141.048 72.0864 141.248 67.8864C141.348 63.6864 142.248 59.7864 143.748 56.0864C148.648 57.8864 152.148 62.6864 151.948 68.1864Z" fill="url(#paint1_linear_200_25651)"/>
<path opacity="0.12" d="M143.148 71.2862H105.448C103.948 71.2862 102.848 70.0862 102.848 68.6862V58.9862C102.848 57.4862 104.048 56.3862 105.448 56.3862H143.148C144.648 56.3862 145.748 57.5862 145.748 58.9862V68.6862C145.748 70.0862 144.548 71.2862 143.148 71.2862Z" fill="#FAF5F3"/>
<path d="M124.249 82.1866C123.949 82.1866 123.749 81.9866 123.749 81.6866V75.2866C123.749 74.9866 123.949 74.7866 124.249 74.7866C124.549 74.7866 124.749 74.9866 124.749 75.2866V81.6866C124.749 81.9866 124.549 82.1866 124.249 82.1866Z" fill="white"/>
<path d="M119.048 80.2865C118.748 80.2865 118.548 80.0865 118.548 79.7865V77.1865C118.548 76.8865 118.748 76.6865 119.048 76.6865C119.348 76.6865 119.548 76.8865 119.548 77.1865V79.7865C119.648 80.0865 119.348 80.2865 119.048 80.2865Z" fill="white"/>
<path d="M113.948 80.2865C113.648 80.2865 113.448 80.0865 113.448 79.7865V77.1865C113.448 76.8865 113.648 76.6865 113.948 76.6865C114.248 76.6865 114.448 76.8865 114.448 77.1865V79.7865C114.448 80.0865 114.248 80.2865 113.948 80.2865Z" fill="white"/>
<path d="M108.749 80.2865C108.449 80.2865 108.249 80.0865 108.249 79.7865V77.1865C108.249 76.8865 108.449 76.6865 108.749 76.6865C109.049 76.6865 109.249 76.8865 109.249 77.1865V79.7865C109.249 80.0865 109.049 80.2865 108.749 80.2865Z" fill="white"/>
<path d="M103.548 80.2865C103.248 80.2865 103.048 80.0865 103.048 79.7865V77.1865C103.048 76.8865 103.248 76.6865 103.548 76.6865C103.848 76.6865 104.048 76.8865 104.048 77.1865V79.7865C104.148 80.0865 103.848 80.2865 103.548 80.2865Z" fill="white"/>
<path d="M129.448 80.2865C129.148 80.2865 128.948 80.0865 128.948 79.7865V77.1865C128.948 76.8865 129.148 76.6865 129.448 76.6865C129.748 76.6865 129.948 76.8865 129.948 77.1865V79.7865C129.948 80.0865 129.748 80.2865 129.448 80.2865Z" fill="white"/>
<path d="M134.548 80.2865C134.248 80.2865 134.048 80.0865 134.048 79.7865V77.1865C134.048 76.8865 134.248 76.6865 134.548 76.6865C134.848 76.6865 135.048 76.8865 135.048 77.1865V79.7865C135.148 80.0865 134.848 80.2865 134.548 80.2865Z" fill="white"/>
<path d="M139.748 80.2865C139.448 80.2865 139.248 80.0865 139.248 79.7865V77.1865C139.248 76.8865 139.448 76.6865 139.748 76.6865C140.048 76.6865 140.248 76.8865 140.248 77.1865V79.7865C140.248 80.0865 140.048 80.2865 139.748 80.2865Z" fill="white"/>
<path d="M144.948 80.2865C144.648 80.2865 144.448 80.0865 144.448 79.7865V77.1865C144.448 76.8865 144.648 76.6865 144.948 76.6865C145.248 76.6865 145.448 76.8865 145.448 77.1865V79.7865C145.448 80.0865 145.248 80.2865 144.948 80.2865Z" fill="white"/>
<path d="M233.748 114.586H14.8481V116.686H233.748V114.586Z" fill="#96155C"/>
<path d="M233.748 113.486H14.8481V114.886H233.748V113.486Z" fill="#80FCFF"/>
<path d="M197.848 160.986H183.948V122.386H186.148C192.248 122.386 193.948 127.986 194.648 134.786C195.648 144.186 197.848 160.986 197.848 160.986Z" fill="#96155C"/>
<path d="M50.6479 160.986H64.548V122.386H62.3479C56.248 122.386 54.548 127.986 53.8479 134.786C52.8479 144.186 50.6479 160.986 50.6479 160.986Z" fill="#96155C"/>
<path d="M195.948 160.986H52.5479L56.1479 127.586C56.4478 124.386 59.1479 121.986 62.3479 121.986H186.048C189.248 121.986 191.848 124.386 192.248 127.586L195.948 160.986Z" fill="#F52195"/>
<path d="M193.076 134.886H55.3604V135.186H193.076V134.886Z" fill="#CF5799"/>
<path d="M193.389 137.687H55.0327V137.987H193.389V137.687Z" fill="#CF5799"/>
<path d="M193.648 140.586H54.7271V140.886H193.648V140.586Z" fill="#CF5799"/>
<path d="M193.948 143.386H54.4434V143.686H193.948V143.386Z" fill="#CF5799"/>
<path d="M194.295 146.187H54.1494V146.487H194.295V146.187Z" fill="#CF5799"/>
<path d="M194.637 149.086H53.8325V149.386H194.637V149.086Z" fill="#CF5799"/>
<path d="M194.964 151.886H53.4946V152.186H194.964V151.886Z" fill="#CF5799"/>
<path d="M195.261 154.687H53.2222V154.987H195.261V154.687Z" fill="#CF5799"/>
<path d="M195.603 157.586H52.9775V157.886H195.603V157.586Z" fill="#CF5799"/>
<path d="M195.848 160.386H52.5479V160.686H195.848V160.386Z" fill="#CF5799"/>
<path d="M192.735 132.086H55.6621V132.386H192.735V132.086Z" fill="#CF5799"/>
<path d="M192.452 129.187H55.9639V129.487H192.452V129.187Z" fill="#CF5799"/>
<path d="M191.887 126.386H56.6963V126.686H191.887V126.386Z" fill="#CF5799"/>
<path d="M190.044 123.486H58.4199V123.786H190.044V123.486Z" fill="#CF5799"/>
<path d="M182.648 123.486H182.348V160.947H182.648V123.486Z" fill="#CF5799"/>
<path d="M179.748 123.486H179.448V160.947H179.748V123.486Z" fill="#CF5799"/>
<path d="M176.948 123.486H176.648V160.947H176.948V123.486Z" fill="#CF5799"/>
<path d="M174.148 123.486H173.848V160.947H174.148V123.486Z" fill="#CF5799"/>
<path d="M171.248 123.486H170.948V160.947H171.248V123.486Z" fill="#CF5799"/>
<path d="M168.448 123.486H168.148V160.947H168.448V123.486Z" fill="#CF5799"/>
<path d="M165.548 123.486H165.248V160.947H165.548V123.486Z" fill="#CF5799"/>
<path d="M162.748 123.486H162.448V160.947H162.748V123.486Z" fill="#CF5799"/>
<path d="M159.948 123.486H159.648V160.947H159.948V123.486Z" fill="#CF5799"/>
<path d="M157.048 123.486H156.748V160.947H157.048V123.486Z" fill="#CF5799"/>
<path d="M185.448 123.486H185.148V160.947H185.448V123.486Z" fill="#CF5799"/>
<path d="M188.248 123.486H187.948V160.947H188.248V123.486Z" fill="#CF5799"/>
<path d="M191.148 124.976H190.848V160.946H191.148V124.976Z" fill="#CF5799"/>
<path d="M193.948 143.686H193.648V160.946H193.948V143.686Z" fill="#CF5799"/>
<path d="M142.948 123.487H142.648V160.947H142.948V123.487Z" fill="#CF5799"/>
<path d="M140.148 123.487H139.848V160.947H140.148V123.487Z" fill="#CF5799"/>
<path d="M137.248 123.487H136.948V160.947H137.248V123.487Z" fill="#CF5799"/>
<path d="M134.448 123.487H134.148V160.947H134.448V123.487Z" fill="#CF5799"/>
<path d="M131.648 123.487H131.348V160.947H131.648V123.487Z" fill="#CF5799"/>
<path d="M128.748 123.487H128.448V160.947H128.748V123.487Z" fill="#CF5799"/>
<path d="M125.948 123.487H125.648V160.947H125.948V123.487Z" fill="#CF5799"/>
<path d="M123.048 123.487H122.748V160.947H123.048V123.487Z" fill="#CF5799"/>
<path d="M120.248 123.487H119.948V160.947H120.248V123.487Z" fill="#CF5799"/>
<path d="M117.448 123.487H117.148V160.947H117.448V123.487Z" fill="#CF5799"/>
<path d="M145.748 123.487H145.448V160.947H145.748V123.487Z" fill="#CF5799"/>
<path d="M148.648 123.487H148.348V160.947H148.648V123.487Z" fill="#CF5799"/>
<path d="M151.448 123.487H151.148V160.947H151.448V123.487Z" fill="#CF5799"/>
<path d="M154.248 123.487H153.948V160.947H154.248V123.487Z" fill="#CF5799"/>
<path d="M103.248 123.486H102.948V160.947H103.248V123.486Z" fill="#CF5799"/>
<path d="M100.448 123.486H100.148V160.947H100.448V123.486Z" fill="#CF5799"/>
<path d="M97.6481 123.486H97.3481V160.947H97.6481V123.486Z" fill="#CF5799"/>
<path d="M94.7482 123.486H94.4482V160.947H94.7482V123.486Z" fill="#CF5799"/>
<path d="M91.9484 123.486H91.6484V160.947H91.9484V123.486Z" fill="#CF5799"/>
<path d="M89.1481 123.486H88.8481V160.947H89.1481V123.486Z" fill="#CF5799"/>
<path d="M86.2482 123.486H85.9482V160.947H86.2482V123.486Z" fill="#CF5799"/>
<path d="M83.4484 123.486H83.1484V160.947H83.4484V123.486Z" fill="#CF5799"/>
<path d="M80.548 123.486H80.248V160.947H80.548V123.486Z" fill="#CF5799"/>
<path d="M77.7482 123.486H77.4482V160.947H77.7482V123.486Z" fill="#CF5799"/>
<path d="M106.148 123.486H105.848V160.947H106.148V123.486Z" fill="#CF5799"/>
<path d="M108.948 123.486H108.648V160.947H108.948V123.486Z" fill="#CF5799"/>
<path d="M111.748 123.486H111.448V160.947H111.748V123.486Z" fill="#CF5799"/>
<path d="M114.648 123.486H114.348V160.947H114.648V123.486Z" fill="#CF5799"/>
<path d="M63.6481 123.486H63.3481V160.947H63.6481V123.486Z" fill="#CF5799"/>
<path d="M60.7482 123.486H60.4482V160.947H60.7482V123.486Z" fill="#CF5799"/>
<path d="M57.948 124.422H57.6479V160.947H57.948V124.422Z" fill="#CF5799"/>
<path d="M55.1481 140.739H54.8481V160.947H55.1481V140.739Z" fill="#CF5799"/>
<path d="M66.448 123.486H66.1479V160.947H66.448V123.486Z" fill="#CF5799"/>
<path d="M69.2482 123.486H68.9482V160.947H69.2482V123.486Z" fill="#CF5799"/>
<path d="M72.1481 123.486H71.8481V160.947H72.1481V123.486Z" fill="#CF5799"/>
<path d="M74.948 123.486H74.6479V160.947H74.948V123.486Z" fill="#CF5799"/>
<path d="M192.348 128.886C192.048 125.686 189.348 123.286 186.148 123.286H62.3479C59.1479 123.286 56.5479 125.686 56.1479 128.886V127.486C56.4479 124.286 59.1479 121.886 62.3479 121.886H186.048C189.248 121.886 191.848 124.286 192.248 127.486V128.886H192.348Z" fill="#FF69BB"/>
<path d="M177.348 154.286C176.248 156.586 173.548 157.586 171.348 156.486C169.048 155.386 168.048 152.686 169.148 150.486C170.248 148.186 172.948 147.186 175.148 148.286C177.448 149.286 178.448 151.986 177.348 154.286Z" fill="#751048"/>
<path d="M177.348 154.286C176.248 156.586 173.548 157.586 171.348 156.486C169.448 155.586 168.448 153.686 168.748 151.686C169.048 153.086 169.948 154.286 171.248 154.886C173.548 155.986 176.248 154.986 177.248 152.686C177.448 152.286 177.548 151.886 177.648 151.386C177.948 152.386 177.848 153.386 177.348 154.286Z" fill="#808080"/>
<path d="M79.3479 154.286C78.2479 156.586 75.5479 157.586 73.3479 156.486C71.0479 155.386 70.0479 152.686 71.1479 150.486C72.2479 148.186 74.9479 147.186 77.1479 148.286C79.4479 149.286 80.4479 151.986 79.3479 154.286Z" fill="#751048"/>
<path d="M79.3479 154.286C78.2479 156.586 75.5479 157.586 73.3479 156.486C71.4479 155.586 70.4479 153.686 70.7479 151.686C71.0479 153.086 71.9479 154.286 73.2479 154.886C75.5479 155.986 78.2479 154.986 79.2479 152.686C79.4479 152.286 79.5479 151.886 79.6479 151.386C79.8479 152.386 79.7479 153.386 79.3479 154.286Z" fill="#808080"/>
<path d="M96.8479 150.486H90.1479C89.2479 150.486 88.5479 149.786 88.5479 148.886V144.286C88.5479 143.386 89.2479 142.686 90.1479 142.686H96.8479C97.7479 142.686 98.4479 143.386 98.4479 144.286V148.886C98.4479 149.686 97.7479 150.486 96.8479 150.486Z" fill="#751048"/>
<path d="M98.4479 148.286V149.286C98.4479 149.886 97.7479 150.486 96.8479 150.486H90.1479C89.2479 150.486 88.5479 149.986 88.5479 149.286V148.286C88.5479 148.886 89.2479 149.486 90.1479 149.486H96.8479C97.7479 149.386 98.4479 148.886 98.4479 148.286Z" fill="#999999"/>
<path d="M158.348 150.486H151.648C150.748 150.486 150.048 149.786 150.048 148.886V144.286C150.048 143.386 150.748 142.686 151.648 142.686H158.348C159.248 142.686 159.948 143.386 159.948 144.286V148.886C159.948 149.686 159.248 150.486 158.348 150.486Z" fill="#751048"/>
<path d="M159.948 148.286V149.286C159.948 149.886 159.248 150.486 158.348 150.486H151.648C150.748 150.486 150.048 149.986 150.048 149.286V148.286C150.048 148.886 150.748 149.486 151.648 149.486H158.348C159.248 149.386 159.948 148.886 159.948 148.286Z" fill="#999999"/>
<path d="M21.1479 143.486H26.5479V130.586H21.8479V126.386C23.2479 126.086 24.4479 125.786 25.4479 125.386C26.4479 124.986 27.4479 124.486 28.3479 123.886H33.3479V143.386H37.8479V148.786H21.1479V143.486Z" fill="#96155C"/>
<path d="M229.948 139.286L221.148 143.186L212.348 147.186V139.286V131.286L221.148 135.286L229.948 139.286Z" fill="#96155C"/>
<path d="M29.8484 60.4858H35.8484C39.6484 60.4858 42.3484 61.7858 42.3484 64.7858C42.3484 66.7858 40.9484 68.5858 38.3484 69.3858L38.2484 69.4858C40.3484 69.9858 41.4484 71.1858 41.4484 72.8858C41.4484 77.3858 37.6484 79.0858 33.2484 79.0858H26.1484L29.8484 60.4858ZM33.5484 75.5858C35.8484 75.5858 36.9484 74.5858 36.9484 73.0858C36.9484 71.6858 36.1484 70.9858 34.4484 70.9858H32.3484L31.4484 75.5858H33.5484ZM34.5484 67.8858C36.7484 67.8858 37.6484 66.9858 37.6484 65.4858C37.6484 64.4858 36.8484 63.8858 35.1484 63.8858H33.8484L33.0484 67.8858H34.5484Z" fill="#96155C"/>
<path d="M210.348 65.086C209.848 64.386 209.248 63.786 208.248 63.786C206.348 63.786 204.548 65.286 203.848 68.786C204.848 67.786 206.248 67.186 207.148 67.186C209.648 67.186 211.648 68.586 211.648 71.986C211.648 75.486 208.948 79.086 205.048 79.086C201.448 79.086 199.148 76.386 199.148 72.486C199.148 64.986 203.048 60.186 208.548 60.186C210.948 60.186 212.448 61.686 213.248 62.786L210.348 65.086ZM207.548 72.286C207.548 70.986 206.948 70.286 205.948 70.286C205.248 70.286 204.448 70.686 203.548 71.886C203.548 72.186 203.548 72.586 203.548 72.886C203.548 74.686 204.348 75.586 205.448 75.586C206.848 75.586 207.548 73.586 207.548 72.286Z" fill="#96155C"/>
<path d="M213.749 72.2859C213.749 63.6859 218.149 60.0859 221.949 60.0859C224.949 60.0859 227.249 62.1859 227.249 66.7859C227.249 75.3859 222.949 78.9859 219.049 78.9859C216.149 78.9859 213.749 76.8859 213.749 72.2859ZM217.949 72.7859C217.949 74.8859 218.549 75.3859 219.349 75.3859C221.049 75.3859 223.049 71.6859 223.049 66.1859C223.049 64.0859 222.449 63.4859 221.649 63.4859C219.949 63.5859 217.949 67.3859 217.949 72.7859Z" fill="#96155C"/>
<path d="M197.849 85.9857C199.649 84.4857 200.649 83.6857 200.649 82.7857C200.649 82.3857 200.449 82.0857 199.949 82.0857C199.649 82.0857 199.349 82.2857 199.049 82.4857L198.649 81.9857C199.149 81.5857 199.549 81.3857 200.049 81.3857C200.949 81.3857 201.449 81.8857 201.449 82.6857C201.449 83.6857 200.649 84.3857 199.149 85.6857H201.049L200.949 86.3857H197.749L197.849 85.9857Z" fill="#404040"/>
<path d="M204.348 84.486L203.648 82.686H204.448L204.748 83.386C204.848 83.586 204.848 83.786 204.948 83.986C205.048 83.786 205.248 83.586 205.348 83.386L205.848 82.686H206.748L205.248 84.586L205.948 86.386H205.148L204.848 85.586C204.748 85.386 204.648 85.086 204.648 84.886C204.548 85.086 204.348 85.286 204.148 85.586L203.548 86.386H202.648L204.348 84.486Z" fill="#404040"/>
<path d="M208.349 85.2857C208.649 85.6857 208.949 85.8857 209.449 85.8857C210.049 85.8857 210.449 85.5857 210.449 84.9857C210.449 84.4857 210.149 84.1857 209.149 84.1857L209.249 83.5857C210.349 83.5857 210.749 83.1857 210.749 82.6857C210.749 82.2857 210.549 82.0857 210.049 82.0857C209.749 82.0857 209.449 82.1857 209.149 82.3857L208.749 81.8857C209.249 81.5857 209.649 81.3857 210.149 81.3857C210.949 81.3857 211.549 81.8857 211.549 82.4857C211.549 83.0857 211.249 83.5857 210.449 83.7857C210.949 83.9857 211.249 84.3857 211.249 84.7857C211.249 85.7857 210.449 86.2857 209.449 86.2857C208.849 86.2857 208.249 85.9857 207.849 85.3857L208.349 85.2857Z" fill="#404040"/>
<path d="M211.949 84.8858C211.949 82.8858 212.949 81.4858 214.049 81.4858C214.849 81.4858 215.349 82.1858 215.349 83.1858C215.349 85.1858 214.349 86.5858 213.249 86.5858C212.449 86.5858 211.949 85.9858 211.949 84.8858ZM212.749 84.9858C212.749 85.5858 212.949 85.9858 213.349 85.9858C214.049 85.9858 214.649 84.5858 214.649 83.1858C214.649 82.5858 214.449 82.1858 214.049 82.1858C213.349 82.1858 212.749 83.4858 212.749 84.9858Z" fill="#404040"/>
<path d="M217.748 82.6859H218.448V83.1859C218.848 82.8859 219.248 82.5859 219.648 82.5859C220.248 82.5859 220.448 82.8859 220.548 83.2859C220.948 82.8859 221.448 82.5859 221.848 82.5859C222.448 82.5859 222.748 82.8859 222.748 83.5859C222.748 83.7859 222.748 83.8859 222.648 84.0859L222.148 86.4859H221.348L221.848 84.1859C221.848 83.9859 221.948 83.8859 221.948 83.7859C221.948 83.4859 221.748 83.2859 221.448 83.2859C221.248 83.2859 220.948 83.4859 220.548 83.8859L220.048 86.4859H219.248L219.748 84.1859C219.748 83.9859 219.848 83.8859 219.848 83.7859C219.848 83.4859 219.648 83.2859 219.348 83.2859C219.148 83.2859 218.848 83.4859 218.448 83.8859L217.948 86.4859H217.148L217.748 82.6859Z" fill="#404040"/>
<path d="M223.848 82.6859H224.648L223.848 86.4859H223.048L223.848 82.6859ZM224.048 81.5859C224.048 81.2859 224.248 81.0859 224.648 81.0859C224.848 81.0859 225.148 81.2859 225.148 81.4859C225.148 81.7859 224.948 81.9859 224.548 81.9859C224.248 82.0859 224.048 81.8859 224.048 81.5859Z" fill="#404040"/>
<path d="M225.748 82.6859H226.448V83.1859C226.848 82.8859 227.248 82.5859 227.748 82.5859C228.348 82.5859 228.648 82.8859 228.648 83.5859C228.648 83.7859 228.648 83.8859 228.548 84.0859L228.048 86.4859H227.248L227.748 84.1859C227.748 83.9859 227.848 83.8859 227.848 83.7859C227.848 83.4859 227.648 83.2859 227.348 83.2859C227.048 83.2859 226.748 83.4859 226.348 83.8859L225.848 86.4859H225.048L225.748 82.6859Z" fill="#404040"/>
<path d="M198.749 53.9859C199.049 54.3859 199.449 54.6859 199.849 54.6859C200.249 54.6859 200.449 54.4859 200.449 54.1859C200.449 53.9859 200.249 53.7859 199.849 53.5859L199.349 53.2859C198.849 52.9859 198.549 52.5859 198.549 51.8859C198.549 50.8859 199.449 50.0859 200.549 50.0859C201.149 50.0859 201.849 50.3859 202.249 50.8859L201.449 51.6859C201.149 51.3859 200.849 51.1859 200.549 51.1859C200.149 51.1859 199.949 51.3859 199.949 51.6859C199.949 51.8859 200.149 51.9859 200.649 52.2859L201.149 52.5859C201.649 52.8859 201.849 53.2859 201.849 53.8859C201.849 54.8859 201.049 55.6859 199.749 55.6859C199.049 55.6859 198.349 55.3859 197.749 54.5859L198.749 53.9859Z" fill="white"/>
<path d="M204.249 51.286H202.849L203.049 50.186H207.149L206.949 51.286H205.549L204.649 55.586H203.349L204.249 51.286Z" fill="white"/>
<path d="M208.349 50.186H211.649L211.449 51.286H209.449L209.249 52.286H210.949L210.749 53.386H209.049L208.849 54.486H210.949L210.749 55.586H207.349L208.349 50.186Z" fill="white"/>
<path d="M214.849 50.1859C215.949 50.1859 216.749 50.5859 216.749 51.5859C216.749 52.5859 216.149 53.1859 215.449 53.4859L216.249 55.5859H214.849L214.249 53.6859H213.649L213.249 55.5859H211.949L213.049 50.0859H214.849V50.1859ZM213.849 52.6859H214.349C215.049 52.6859 215.449 52.2859 215.449 51.7859C215.449 51.3859 215.149 51.1859 214.649 51.1859H214.149L213.849 52.6859Z" fill="white"/>
<path d="M218.349 50.186H221.649L221.449 51.286H219.449L219.249 52.286H220.949L220.749 53.386H219.049L218.849 54.486H220.949L220.749 55.586H217.349L218.349 50.186Z" fill="white"/>
<path d="M222.249 53.486C222.249 51.486 223.649 50.186 225.049 50.186C226.349 50.186 227.149 50.986 227.149 52.486C227.149 54.486 225.749 55.786 224.349 55.786C223.049 55.786 222.249 54.886 222.249 53.486ZM223.649 53.386C223.649 54.186 223.949 54.586 224.449 54.586C225.049 54.586 225.849 53.786 225.849 52.486C225.849 51.686 225.549 51.286 225.049 51.286C224.349 51.286 223.649 52.086 223.649 53.386Z" fill="white"/>
<path d="M82.1483 101.286H77.1483L76.1483 103.586H73.5483L78.3483 92.7861H80.8483L85.6483 103.586H83.0483L82.1483 101.286ZM81.3483 99.4861L79.6483 95.3861L77.9483 99.4861H81.3483Z" fill="#23ADB0"/>
<path d="M87.8483 102.586C86.9483 101.686 86.5483 100.486 86.5483 98.9858V92.9858H89.0483V98.8858C89.0483 100.786 89.8483 101.786 91.4483 101.786C92.2483 101.786 92.8483 101.586 93.2483 101.086C93.6483 100.586 93.8483 99.8858 93.8483 98.8858V92.9858H96.3483V98.9858C96.3483 100.586 95.9483 101.786 95.0483 102.586C94.1483 103.486 92.9483 103.886 91.4483 103.886C89.8483 103.786 88.6483 103.386 87.8483 102.586Z" fill="#23ADB0"/>
<path d="M98.7485 92.8857H103.649C104.849 92.8857 105.849 93.0857 106.749 93.5857C107.649 93.9857 108.349 94.6857 108.849 95.4857C109.349 96.2857 109.549 97.2857 109.549 98.2857C109.549 99.3857 109.349 100.286 108.849 101.086C108.349 101.886 107.649 102.486 106.749 102.986C105.849 103.386 104.849 103.686 103.649 103.686H98.7485V92.8857ZM103.549 101.586C104.649 101.586 105.449 101.286 106.149 100.686C106.749 100.086 107.149 99.2857 107.149 98.2857C107.149 97.2857 106.849 96.4857 106.149 95.8857C105.549 95.2857 104.649 94.9857 103.549 94.9857H101.249V101.686H103.549V101.586Z" fill="#23ADB0"/>
<path d="M111.448 92.8857H113.948V103.686H111.448V92.8857Z" fill="#23ADB0"/>
<path d="M118.748 103.086C117.848 102.586 117.148 101.986 116.648 101.086C116.148 100.286 115.848 99.2859 115.848 98.1859C115.848 97.0859 116.148 96.1859 116.648 95.2859C117.148 94.4859 117.848 93.7859 118.748 93.2859C119.648 92.7859 120.648 92.5859 121.748 92.5859C122.848 92.5859 123.848 92.7859 124.748 93.2859C125.648 93.7859 126.348 94.3859 126.848 95.2859C127.348 96.0859 127.648 97.0859 127.648 98.1859C127.648 99.2859 127.348 100.186 126.848 101.086C126.348 101.886 125.648 102.586 124.748 103.086C123.848 103.586 122.848 103.786 121.748 103.786C120.648 103.786 119.648 103.586 118.748 103.086ZM123.448 101.286C123.948 100.986 124.348 100.586 124.648 100.086C124.948 99.5859 125.048 98.9859 125.048 98.2859C125.048 97.5859 124.948 96.9859 124.648 96.4859C124.348 95.9859 123.948 95.5859 123.448 95.2859C122.948 94.9859 122.348 94.8859 121.748 94.8859C121.148 94.8859 120.548 94.9859 120.048 95.2859C119.548 95.5859 119.148 95.9859 118.848 96.4859C118.548 96.9859 118.448 97.5859 118.448 98.2859C118.448 98.9859 118.548 99.5859 118.848 100.086C119.148 100.586 119.548 100.986 120.048 101.286C120.548 101.586 121.148 101.686 121.748 101.686C122.448 101.686 122.948 101.586 123.448 101.286Z" fill="#23ADB0"/>
<path d="M136.149 94.8857H132.749V92.8857H142.149V94.8857H138.649V103.586H136.149V94.8857Z" fill="#23ADB0"/>
<path d="M149.948 101.286H144.948L143.948 103.586H141.348L146.148 92.7861H148.648L153.448 103.586H150.848L149.948 101.286ZM149.148 99.4861L147.448 95.3861L145.748 99.4861H149.148Z" fill="#23ADB0"/>
<path d="M161.848 93.3857C162.548 93.6857 163.048 94.1857 163.448 94.7857C163.848 95.3857 164.048 96.0857 164.048 96.8857C164.048 97.6857 163.848 98.3857 163.448 98.9857C163.048 99.5857 162.548 99.9857 161.848 100.386C161.148 100.686 160.348 100.886 159.348 100.886H157.148V103.886H154.648V92.8857H159.348C160.248 92.8857 161.148 92.9857 161.848 93.3857ZM160.948 98.1857C161.348 97.8857 161.548 97.3857 161.548 96.7857C161.548 96.1857 161.348 95.6857 160.948 95.3857C160.548 95.0857 159.948 94.8857 159.248 94.8857H157.248V98.5857H159.248C159.948 98.6857 160.548 98.4857 160.948 98.1857Z" fill="#23ADB0"/>
<path d="M174.148 101.686V103.686H165.848V92.8857H173.948V94.8857H168.248V97.1857H173.248V99.0857H168.248V101.586H174.148V101.686Z" fill="#23ADB0"/>
<path d="M221.949 19.186H26.5485C24.0485 21.686 22.7485 22.986 20.2485 25.486V40.186C20.2485 40.786 20.7485 41.286 21.3485 41.286H139.249H227.349C227.949 41.286 228.449 40.786 228.449 40.186V25.486C225.849 23.086 224.449 21.686 221.949 19.186Z" fill="white"/>
<path d="M221.448 26.0859H27.1484V26.3859H221.448V26.0859Z" fill="#BF4D8C"/>
<path d="M221.448 34.0859H27.1484V34.3859H221.448V34.0859Z" fill="#BF4D8C"/>
</g>
<defs>
<linearGradient id="paint0_linear_200_25651" x1="103.807" y1="68.0233" x2="120.843" y2="68.0233" gradientUnits="userSpaceOnUse">
<stop stop-color="#1F0E05"/>
<stop offset="0.2032" stop-color="#2A160B"/>
<stop offset="0.5585" stop-color="#472A1C"/>
<stop offset="1" stop-color="#734A36"/>
</linearGradient>
<linearGradient id="paint1_linear_200_25651" x1="139.439" y1="67.1809" x2="145.717" y2="68.3731" gradientUnits="userSpaceOnUse">
<stop stop-color="#734A36"/>
<stop offset="0.3957" stop-color="#492D1F"/>
<stop offset="0.7901" stop-color="#25140C"/>
<stop offset="1" stop-color="#170B05"/>
</linearGradient>
<clipPath id="clip0_200_25651">
<rect width="249" height="161" fill="white" transform="translate(0 0.282715)"/>
</clipPath>
</defs>
</svg>
