<svg width="249" height="161" viewBox="0 0 249 161" fill="none" xmlns="http://www.w3.org/2000/svg">
<g clip-path="url(#clip0_200_24917)">
<path d="M5.68447 149.586L1.48447 147.986C0.684473 147.686 0.0844727 146.786 0.0844727 145.786V115.886C0.0844727 114.886 0.584473 113.986 1.48447 113.686L5.68447 112.086V149.586Z" fill="#D9CBC1"/>
<path d="M243.884 149.586L248.084 147.986C248.884 147.686 249.484 146.786 249.484 145.786V115.886C249.484 114.886 248.984 113.986 248.084 113.686L243.884 112.086V149.586Z" fill="#D9CBC1"/>
<path d="M240.684 -0.11377H8.88447C5.38447 -0.11377 2.58447 2.68623 2.58447 6.08623V154.186C2.58447 157.586 5.38447 160.386 8.78447 160.386H240.684C244.084 160.386 246.884 157.586 246.884 154.186V6.08623C246.984 2.68623 244.184 -0.11377 240.684 -0.11377ZM71.8845 82.3862C64.0845 82.3862 57.6845 76.0862 57.6845 68.1862C57.6845 60.3862 63.9845 53.9862 71.8845 53.9862C79.7845 53.9862 86.0845 60.3862 86.0845 68.1862C86.0845 76.0862 79.6845 82.3862 71.8845 82.3862ZM146.284 68.1862C146.284 69.6862 145.084 70.7862 143.684 70.7862H105.984C104.484 70.7862 103.384 69.5862 103.384 68.1862V58.4862C103.384 56.9862 104.584 55.8862 105.984 55.8862H143.684C145.184 55.8862 146.284 57.0862 146.284 58.4862V68.1862ZM177.684 82.3862C169.884 82.3862 163.484 76.0862 163.484 68.1862C163.484 60.3862 169.784 53.9862 177.684 53.9862C185.584 53.9862 191.884 60.2862 191.884 68.1862C191.884 76.0862 185.484 82.3862 177.684 82.3862Z" fill="#EBDFD6"/>
<path d="M234.284 114.386H15.3843V115.786H234.284V114.386Z" fill="#E6D6CA"/>
<path d="M234.284 112.986H15.3843V114.386H234.284V112.986Z" fill="#FFF8F2"/>
<path d="M198.384 160.486H184.484V121.886H186.684C192.784 121.886 194.484 127.486 195.184 134.286C196.184 143.686 198.384 160.486 198.384 160.486Z" fill="#E6D6CA"/>
<path d="M51.1841 160.486H65.0841V121.886H62.8841C56.7841 121.886 55.0841 127.486 54.3841 134.286C53.3841 143.686 51.1841 160.486 51.1841 160.486Z" fill="#E6D6CA"/>
<path d="M196.484 160.486H53.084L56.684 127.086C56.984 123.886 59.684 121.486 62.884 121.486H186.584C189.784 121.486 192.384 123.886 192.784 127.086L196.484 160.486Z" fill="#F2E6DD"/>
<path d="M193.629 134.386H55.9219V134.686H193.629V134.386Z" fill="#FCFCFC"/>
<path d="M193.922 137.187H55.6841V137.487H193.922V137.187Z" fill="#FCFCFC"/>
<path d="M194.247 140.086H55.2363V140.386H194.247V140.086Z" fill="#FCFCFC"/>
<path d="M194.484 142.886H55.0142V143.186H194.484V142.886Z" fill="#FCFCFC"/>
<path d="M194.832 145.687H54.6992V145.987H194.832V145.687Z" fill="#FCFCFC"/>
<path d="M195.17 148.586H54.4209V148.886H195.17V148.586Z" fill="#FCFCFC"/>
<path d="M195.476 151.386H54.0688V151.686H195.476V151.386Z" fill="#FCFCFC"/>
<path d="M195.791 154.187H53.7173V154.487H195.791V154.187Z" fill="#FCFCFC"/>
<path d="M196.104 157.086H53.4204V157.386H196.104V157.086Z" fill="#FCFCFC"/>
<path d="M196.384 159.886H53.084V160.186H196.384V159.886Z" fill="#FCFCFC"/>
<path d="M193.319 131.586H56.2183V131.886H193.319V131.586Z" fill="#FCFCFC"/>
<path d="M192.884 128.687H56.5332V128.987H192.884V128.687Z" fill="#FCFCFC"/>
<path d="M192.416 125.886H57.2002V126.186H192.416V125.886Z" fill="#FCFCFC"/>
<path d="M190.272 122.986H59.2383V123.286H190.272V122.986Z" fill="#FCFCFC"/>
<path d="M183.184 121.948H182.884V160.002H183.184V121.948Z" fill="#FCFCFC"/>
<path d="M180.284 121.948H179.984V160.002H180.284V121.948Z" fill="#FCFCFC"/>
<path d="M177.484 121.948H177.184V160.17H177.484V121.948Z" fill="#FCFCFC"/>
<path d="M174.684 121.948H174.384V160.002H174.684V121.948Z" fill="#FCFCFC"/>
<path d="M171.784 121.948H171.484V160.17H171.784V121.948Z" fill="#FCFCFC"/>
<path d="M168.984 121.948H168.684V160.002H168.984V121.948Z" fill="#FCFCFC"/>
<path d="M166.084 121.948H165.784V160.002H166.084V121.948Z" fill="#FCFCFC"/>
<path d="M163.284 121.948H162.984V160.002H163.284V121.948Z" fill="#FCFCFC"/>
<path d="M160.484 121.948H160.184V160.002H160.484V121.948Z" fill="#FCFCFC"/>
<path d="M157.584 121.948H157.284V160.002H157.584V121.948Z" fill="#FCFCFC"/>
<path d="M185.984 121.948H185.684V160.002H185.984V121.948Z" fill="#FCFCFC"/>
<path d="M188.784 122.273H188.484V160.002H188.784V122.273Z" fill="#FCFCFC"/>
<path d="M191.684 124.302H191.384V160.002H191.684V124.302Z" fill="#FCFCFC"/>
<path d="M194.484 142.886H194.184V160.002H194.484V142.886Z" fill="#FCFCFC"/>
<path d="M143.484 122.121H143.184V160.002H143.484V122.121Z" fill="#FCFCFC"/>
<path d="M140.684 122.121H140.384V160.002H140.684V122.121Z" fill="#FCFCFC"/>
<path d="M137.784 122.121H137.484V160.194H137.784V122.121Z" fill="#FCFCFC"/>
<path d="M134.984 122.121H134.684V160.002H134.984V122.121Z" fill="#FCFCFC"/>
<path d="M132.184 122.121H131.884V160.002H132.184V122.121Z" fill="#FCFCFC"/>
<path d="M129.284 122.121H128.984V160.002H129.284V122.121Z" fill="#FCFCFC"/>
<path d="M126.484 122.121H126.184V160.002H126.484V122.121Z" fill="#FCFCFC"/>
<path d="M123.584 122.121H123.284V160.002H123.584V122.121Z" fill="#FCFCFC"/>
<path d="M120.784 122.121H120.484V160.002H120.784V122.121Z" fill="#FCFCFC"/>
<path d="M117.984 122.121H117.684V160.002H117.984V122.121Z" fill="#FCFCFC"/>
<path d="M146.284 122.121H145.984V160.002H146.284V122.121Z" fill="#FCFCFC"/>
<path d="M149.184 122.121H148.884V160.194H149.184V122.121Z" fill="#FCFCFC"/>
<path d="M151.984 122.121H151.684V160.002H151.984V122.121Z" fill="#FCFCFC"/>
<path d="M154.784 122.121H154.484V160.002H154.784V122.121Z" fill="#FCFCFC"/>
<path d="M103.784 121.886H103.484V160.002H103.784V121.886Z" fill="#FCFCFC"/>
<path d="M100.984 121.886H100.684V160.002H100.984V121.886Z" fill="#FCFCFC"/>
<path d="M98.1838 121.886H97.8838V160.002H98.1838V121.886Z" fill="#FCFCFC"/>
<path d="M95.2839 121.886H94.9839V160.002H95.2839V121.886Z" fill="#FCFCFC"/>
<path d="M92.4841 121.886H92.1841V160.002H92.4841V121.886Z" fill="#FCFCFC"/>
<path d="M89.6838 121.886H89.3838V160.002H89.6838V121.886Z" fill="#FCFCFC"/>
<path d="M86.7839 121.886H86.4839V160.002H86.7839V121.886Z" fill="#FCFCFC"/>
<path d="M83.9841 121.886H83.6841V160.002H83.9841V121.886Z" fill="#FCFCFC"/>
<path d="M81.0837 121.886H80.7837V160.002H81.0837V121.886Z" fill="#FCFCFC"/>
<path d="M78.2839 121.886H77.9839V160.002H78.2839V121.886Z" fill="#FCFCFC"/>
<path d="M106.684 121.886H106.384V160.002H106.684V121.886Z" fill="#FCFCFC"/>
<path d="M109.484 121.886H109.184V160.002H109.484V121.886Z" fill="#FCFCFC"/>
<path d="M112.284 121.886H111.984V160.002H112.284V121.886Z" fill="#FCFCFC"/>
<path d="M115.184 121.886H114.884V160.002H115.184V121.886Z" fill="#FCFCFC"/>
<path d="M64.1838 122.335H63.8838V160.002H64.1838V122.335Z" fill="#FCFCFC"/>
<path d="M61.2839 122.335H60.9839V160.002H61.2839V122.335Z" fill="#FCFCFC"/>
<path d="M58.4836 123.733H58.1836V211.887H58.4836V123.733Z" fill="#FCFCFC"/>
<path d="M55.6838 140.387H55.3838V211.887H55.6838V140.387Z" fill="#FCFCFC"/>
<path d="M66.9836 122.335H66.6836V160.002H66.9836V122.335Z" fill="#FCFCFC"/>
<path d="M69.7839 122.335H69.4839V160.002H69.7839V122.335Z" fill="#FCFCFC"/>
<path d="M72.6838 122.335H72.3838V160.002H72.6838V122.335Z" fill="#FCFCFC"/>
<path d="M75.4836 122.335H75.1836V160.002H75.4836V122.335Z" fill="#FCFCFC"/>
<path d="M192.884 128.386C192.584 125.186 189.884 122.786 186.684 122.786H62.8841C59.6841 122.786 57.0841 125.186 56.6841 128.386V126.986C56.9841 123.786 59.6841 121.386 62.8841 121.386H186.584C189.784 121.386 192.384 123.786 192.784 126.986V128.386H192.884Z" fill="white"/>
<path d="M177.884 153.787C176.784 156.087 174.084 157.087 171.884 155.987C169.584 154.887 168.584 152.187 169.684 149.987C170.784 147.687 173.484 146.687 175.684 147.787C177.984 148.787 178.984 151.487 177.884 153.787Z" fill="#47322D"/>
<path d="M177.884 153.787C176.784 156.087 174.084 157.087 171.884 155.987C169.984 155.087 168.984 153.187 169.284 151.187C169.584 152.587 170.484 153.787 171.784 154.387C174.084 155.487 176.784 154.487 177.784 152.187C177.984 151.787 178.084 151.387 178.184 150.887C178.484 151.887 178.384 152.887 177.884 153.787Z" fill="#808080"/>
<path d="M79.884 153.787C78.784 156.087 76.084 157.087 73.884 155.987C71.584 154.887 70.584 152.187 71.684 149.987C72.784 147.687 75.484 146.687 77.684 147.787C79.984 148.787 80.984 151.487 79.884 153.787Z" fill="#47322D"/>
<path d="M79.884 153.787C78.784 156.087 76.084 157.087 73.884 155.987C71.984 155.087 70.984 153.187 71.284 151.187C71.584 152.587 72.484 153.787 73.784 154.387C76.084 155.487 78.784 154.487 79.784 152.187C79.984 151.787 80.084 151.387 80.184 150.887C80.384 151.887 80.284 152.887 79.884 153.787Z" fill="#808080"/>
<path d="M97.384 149.987H90.684C89.784 149.987 89.084 149.287 89.084 148.387V143.787C89.084 142.887 89.784 142.187 90.684 142.187H97.384C98.284 142.187 98.984 142.887 98.984 143.787V148.387C98.984 149.187 98.284 149.987 97.384 149.987Z" fill="#47322D"/>
<path d="M98.984 147.787V148.787C98.984 149.387 98.284 149.987 97.384 149.987H90.684C89.784 149.987 89.084 149.487 89.084 148.787V147.787C89.084 148.387 89.784 148.987 90.684 148.987H97.384C98.284 148.887 98.984 148.387 98.984 147.787Z" fill="#999999"/>
<path d="M158.884 149.987H152.184C151.284 149.987 150.584 149.287 150.584 148.387V143.787C150.584 142.887 151.284 142.187 152.184 142.187H158.884C159.784 142.187 160.484 142.887 160.484 143.787V148.387C160.484 149.187 159.784 149.987 158.884 149.987Z" fill="#47322D"/>
<path d="M160.484 147.787V148.787C160.484 149.387 159.784 149.987 158.884 149.987H152.184C151.284 149.987 150.584 149.487 150.584 148.787V147.787C150.584 148.387 151.284 148.987 152.184 148.987H158.884C159.784 148.887 160.484 148.387 160.484 147.787Z" fill="#999999"/>
<path d="M237.984 15.5861C240.691 15.5861 242.884 13.3923 242.884 10.6861C242.884 7.97994 240.691 5.78613 237.984 5.78613C235.278 5.78613 233.084 7.97994 233.084 10.6861C233.084 13.3923 235.278 15.5861 237.984 15.5861Z" fill="#858585"/>
<path d="M241.684 8.68588C242.784 10.6859 241.984 13.2859 239.984 14.3859C237.984 15.4859 235.384 14.6859 234.284 12.6859C233.184 10.6859 233.984 8.08588 235.984 6.98588C238.084 5.88588 240.684 6.68588 241.684 8.68588Z" fill="url(#paint0_linear_200_24917)"/>
<path d="M241.784 8.68608C241.884 8.78608 241.884 8.88608 241.984 8.98608C240.784 7.18608 238.784 6.18608 236.384 7.38608C233.984 8.68608 233.684 10.8861 234.584 12.8861C234.484 12.7861 234.484 12.6861 234.384 12.5861C233.284 10.5861 234.084 7.98608 236.084 6.88608C238.084 5.88608 240.684 6.68608 241.784 8.68608Z" fill="#C4C4C4"/>
<path d="M239.584 10.186H238.584V9.18604C238.584 8.88604 238.384 8.68604 238.084 8.68604C237.784 8.68604 237.584 8.88604 237.584 9.18604V10.186H236.584C236.284 10.186 236.084 10.386 236.084 10.686C236.084 10.986 236.284 11.186 236.584 11.186H237.584V12.186C237.584 12.486 237.784 12.686 238.084 12.686C238.384 12.686 238.584 12.486 238.584 12.186V11.186H239.584C239.884 11.186 240.084 10.986 240.084 10.686C240.084 10.386 239.884 10.186 239.584 10.186Z" fill="#1A1A1A"/>
<path d="M11.5846 15.5861C14.2908 15.5861 16.4846 13.3923 16.4846 10.6861C16.4846 7.97994 14.2908 5.78613 11.5846 5.78613C8.87838 5.78613 6.68457 7.97994 6.68457 10.6861C6.68457 13.3923 8.87838 15.5861 11.5846 15.5861Z" fill="#858585"/>
<path d="M15.2848 8.68588C16.3848 10.6859 15.5848 13.2859 13.5848 14.3859C11.5848 15.4859 8.98481 14.6859 7.88481 12.6859C6.78481 10.6859 7.58481 8.08588 9.58481 6.98588C11.5848 5.88588 14.1848 6.68588 15.2848 8.68588Z" fill="url(#paint1_linear_200_24917)"/>
<path d="M15.2848 8.68608C15.3848 8.78608 15.3848 8.88608 15.4848 8.98608C14.2848 7.18608 12.2848 6.08608 9.88481 7.38608C7.48481 8.68608 7.18481 10.8861 8.08481 12.8861C7.98481 12.7861 7.98481 12.6861 7.88481 12.5861C6.78481 10.5861 7.58481 7.98608 9.58481 6.88608C11.5848 5.88608 14.1848 6.68608 15.2848 8.68608Z" fill="#C4C4C4"/>
<path d="M13.085 10.186H12.085V9.18604C12.085 8.88604 11.885 8.68604 11.585 8.68604C11.285 8.68604 11.085 8.88604 11.085 9.18604V10.186H10.085C9.78496 10.186 9.58496 10.386 9.58496 10.686C9.58496 10.986 9.78496 11.186 10.085 11.186H11.085V12.186C11.085 12.486 11.285 12.686 11.585 12.686C11.885 12.686 12.085 12.486 12.085 12.186V11.186H13.085C13.385 11.186 13.585 10.986 13.585 10.686C13.685 10.386 13.385 10.186 13.085 10.186Z" fill="#1A1A1A"/>
<path d="M237.984 154.586C240.691 154.586 242.884 152.392 242.884 149.686C242.884 146.98 240.691 144.786 237.984 144.786C235.278 144.786 233.084 146.98 233.084 149.686C233.084 152.392 235.278 154.586 237.984 154.586Z" fill="#858585"/>
<path d="M241.684 147.686C242.784 149.686 241.984 152.286 239.984 153.386C237.984 154.486 235.384 153.686 234.284 151.686C233.184 149.686 233.984 147.086 235.984 145.986C238.084 144.886 240.684 145.686 241.684 147.686Z" fill="url(#paint2_linear_200_24917)"/>
<path d="M241.784 147.686C241.884 147.786 241.884 147.886 241.984 147.986C240.784 146.186 238.784 145.186 236.384 146.386C233.984 147.686 233.684 149.886 234.584 151.886C234.484 151.786 234.484 151.686 234.384 151.586C233.284 149.586 234.084 146.986 236.084 145.886C238.084 144.886 240.684 145.586 241.784 147.686Z" fill="#C4C4C4"/>
<path d="M239.584 149.186H238.584V148.186C238.584 147.886 238.384 147.686 238.084 147.686C237.784 147.686 237.584 147.886 237.584 148.186V149.186H236.584C236.284 149.186 236.084 149.386 236.084 149.686C236.084 149.986 236.284 150.186 236.584 150.186H237.584V151.186C237.584 151.486 237.784 151.686 238.084 151.686C238.384 151.686 238.584 151.486 238.584 151.186V150.186H239.584C239.884 150.186 240.084 149.986 240.084 149.686C240.084 149.386 239.884 149.186 239.584 149.186Z" fill="#1A1A1A"/>
<path d="M11.5846 154.586C14.2908 154.586 16.4846 152.392 16.4846 149.686C16.4846 146.98 14.2908 144.786 11.5846 144.786C8.87838 144.786 6.68457 146.98 6.68457 149.686C6.68457 152.392 8.87838 154.586 11.5846 154.586Z" fill="#858585"/>
<path d="M15.2848 147.686C16.3848 149.686 15.5848 152.286 13.5848 153.386C11.5848 154.486 8.98481 153.686 7.88481 151.686C6.78481 149.686 7.58481 147.086 9.58481 145.986C11.5848 144.886 14.1848 145.686 15.2848 147.686Z" fill="url(#paint3_linear_200_24917)"/>
<path d="M15.2848 147.686C15.3848 147.786 15.3848 147.886 15.4848 147.986C14.2848 146.186 12.2848 145.186 9.88481 146.386C7.48481 147.686 7.18481 149.886 8.08481 151.886C7.98481 151.786 7.98481 151.686 7.88481 151.586C6.78481 149.586 7.58481 146.986 9.58481 145.886C11.5848 144.886 14.1848 145.586 15.2848 147.686Z" fill="#C4C4C4"/>
<path d="M13.085 149.186H12.085V148.186C12.085 147.886 11.885 147.686 11.585 147.686C11.285 147.686 11.085 147.886 11.085 148.186V149.186H10.085C9.78496 149.186 9.58496 149.386 9.58496 149.686C9.58496 149.986 9.78496 150.186 10.085 150.186H11.085V151.186C11.085 151.486 11.285 151.686 11.585 151.686C11.885 151.686 12.085 151.486 12.085 151.186V150.186H13.085C13.385 150.186 13.585 149.986 13.585 149.686C13.685 149.386 13.385 149.186 13.085 149.186Z" fill="#1A1A1A"/>
<path d="M224.584 13.4863H24.9843C21.1843 17.2863 19.0843 19.3863 15.3843 23.1863V106.386C15.3843 107.186 15.9843 107.786 16.7843 107.786H232.884C233.684 107.786 234.284 107.186 234.284 106.386V23.1863C230.484 19.3863 228.384 17.2863 224.584 13.4863ZM71.8843 82.3863C64.0843 82.3863 57.6843 76.0863 57.6843 68.1863C57.6843 60.3863 63.9843 53.9863 71.8843 53.9863C79.7843 53.9863 86.0843 60.3863 86.0843 68.1863C86.0843 76.0863 79.6843 82.3863 71.8843 82.3863ZM146.284 68.1863C146.284 69.6863 145.084 70.7863 143.684 70.7863H105.984C104.484 70.7863 103.384 69.5863 103.384 68.1863V58.4863C103.384 56.9863 104.584 55.8863 105.984 55.8863H143.684C145.184 55.8863 146.284 57.0863 146.284 58.4863V68.1863ZM177.684 82.3863C169.884 82.3863 163.484 76.0863 163.484 68.1863C163.484 60.3863 169.784 53.9863 177.684 53.9863C185.584 53.9863 191.884 60.2863 191.884 68.1863C191.884 76.0863 185.484 82.3863 177.684 82.3863Z" fill="#FFA3AD"/>
<path d="M234.184 94.5863V106.686C234.184 107.286 233.584 107.786 232.784 107.786H16.7843C15.9843 107.786 15.3843 107.286 15.3843 106.686V94.5863C15.5843 94.5863 15.7843 94.4863 16.0843 94.4863H233.584C233.784 94.4863 233.984 94.4863 234.184 94.5863Z" fill="#FC8491"/>
<path d="M234.184 105.687V106.387C234.184 107.187 233.584 107.787 232.784 107.787H16.7843C15.9843 107.787 15.3843 107.187 15.3843 106.387V105.687H234.184Z" fill="#FF4885"/>
<path d="M234.284 102.386H15.3843V104.486H234.284V102.386Z" fill="#FFE273"/>
<path d="M177.884 49.6865H71.6845C61.3845 49.6865 53.0845 57.9865 53.0845 68.1865C53.0845 78.3865 61.3845 86.6865 71.5845 86.6865H177.784C187.984 86.6865 196.284 78.3865 196.284 68.1865C196.284 57.9865 188.184 49.6865 177.884 49.6865ZM71.8845 82.3865C64.0845 82.3865 57.6845 76.0865 57.6845 68.1865C57.6845 60.3865 63.9845 53.9865 71.8845 53.9865C79.7845 53.9865 86.0845 60.3865 86.0845 68.1865C86.0845 76.0865 79.6845 82.3865 71.8845 82.3865ZM146.284 68.1865C146.284 69.6865 145.084 70.7865 143.684 70.7865H105.984C104.484 70.7865 103.384 69.5865 103.384 68.1865V58.4865C103.384 56.9865 104.584 55.8865 105.984 55.8865H143.684C145.184 55.8865 146.284 57.0865 146.284 58.4865V68.1865ZM177.684 82.3865C169.884 82.3865 163.484 76.0865 163.484 68.1865C163.484 60.3865 169.784 53.9865 177.684 53.9865C185.584 53.9865 191.884 60.2865 191.884 68.1865C191.884 76.0865 185.484 82.3865 177.684 82.3865Z" fill="#EBDFD6"/>
<path d="M177.885 85.1865H71.6846C62.2846 85.1865 54.6846 77.5865 54.6846 68.1865C54.6846 58.7865 62.2846 51.1865 71.6846 51.1865H177.885C187.285 51.1865 194.885 58.7865 194.885 68.1865C194.885 77.5865 187.285 85.1865 177.885 85.1865ZM71.6846 52.2865C62.8846 52.2865 55.7846 59.3865 55.7846 68.1865C55.7846 76.9865 62.8846 84.0865 71.6846 84.0865H177.885C186.685 84.0865 193.785 76.9865 193.785 68.1865C193.785 59.3865 186.685 52.2865 177.885 52.2865H71.6846Z" fill="white"/>
<path d="M71.8847 54.0864C64.0847 54.0864 57.7847 60.3864 57.7847 68.1864C57.7847 75.9864 64.0847 82.3864 71.8847 82.3864C79.6847 82.3864 85.9847 76.0864 85.9847 68.2864C85.9847 60.4864 79.6847 54.0864 71.8847 54.0864ZM76.5847 78.9864C73.5847 80.2864 70.2847 80.2864 67.3847 79.0864L68.1847 77.5864L65.6847 76.1864L64.8847 77.6864C63.6847 76.7864 62.5847 75.5864 61.7847 74.1864C60.9847 72.7864 60.4847 71.2864 60.2847 69.7864H61.9847V66.9864H60.2847C60.5847 63.8864 62.1847 60.9864 64.7847 58.9864L65.6847 60.4864L68.0847 58.9864L67.1847 57.4864C70.1847 56.1864 73.4847 56.1864 76.3847 57.3864L75.4847 58.8864L77.9847 60.2864L78.7847 58.7864C79.9847 59.6864 81.0847 60.8864 81.8847 62.2864C82.6847 63.6864 83.1847 65.1864 83.3847 66.6864H81.6847V69.4864H83.3847C83.0847 72.5864 81.4847 75.4864 78.8847 77.4864L77.9847 75.9864L75.5847 77.4864L76.5847 78.9864Z" fill="#D1BFB1"/>
<path d="M177.684 54.0864C169.884 54.0864 163.584 60.3864 163.584 68.1864C163.584 75.9864 169.884 82.2864 177.684 82.2864C185.484 82.2864 191.784 75.9864 191.784 68.1864C191.784 60.3864 185.484 54.0864 177.684 54.0864ZM182.384 78.9864C179.384 80.2864 176.084 80.2864 173.184 79.0864L173.984 77.5864L171.484 76.1864L170.684 77.6864C169.484 76.7864 168.384 75.5864 167.584 74.1864C166.784 72.7864 166.284 71.2864 166.084 69.7864H167.784V66.9864H166.084C166.384 63.8864 167.984 60.9864 170.584 58.9864L171.484 60.4864L173.884 58.9864L172.984 57.4864C175.984 56.1864 179.284 56.1864 182.184 57.3864L181.384 58.8864L183.884 60.2864L184.684 58.7864C185.884 59.6864 186.984 60.8864 187.784 62.2864C188.584 63.6864 189.084 65.1864 189.284 66.6864H187.584V69.4864H189.284C188.984 72.5864 187.384 75.4864 184.784 77.4864L183.884 75.9864L181.484 77.4864L182.384 78.9864Z" fill="#D1BFB1"/>
<path d="M119.184 67.4864C119.184 71.7864 118.584 75.9864 117.484 79.8864H108.084C103.084 79.8864 98.7845 76.9864 96.7845 72.7864C95.9845 71.1864 95.5845 69.3864 95.5845 67.4864C95.5845 65.5864 95.9845 63.7864 96.7845 62.1864C97.3845 60.8864 98.1845 59.6864 99.2845 58.6864C101.484 56.3864 104.684 55.0864 108.084 55.0864H117.484C118.684 59.0864 119.184 63.1864 119.184 67.4864Z" fill="url(#paint4_linear_200_24917)"/>
<path d="M152.484 67.6864C152.384 71.0864 150.884 74.1864 148.584 76.3864C147.184 77.6864 145.384 78.6864 143.484 79.2864C142.284 75.5864 141.584 71.5864 141.784 67.3864C141.884 63.1864 142.784 59.2864 144.284 55.5864C149.184 57.3864 152.684 62.1864 152.484 67.6864Z" fill="url(#paint5_linear_200_24917)"/>
<path opacity="0.11" d="M143.684 70.7862H105.984C104.484 70.7862 103.384 69.5862 103.384 68.1862V58.4862C103.384 56.9862 104.584 55.8862 105.984 55.8862H143.684C145.184 55.8862 146.284 57.0862 146.284 58.4862V68.1862C146.284 69.5862 145.084 70.7862 143.684 70.7862Z" fill="#D18DB1"/>
<path d="M124.785 81.6866C124.485 81.6866 124.285 81.4866 124.285 81.1866V74.7866C124.285 74.4866 124.485 74.2866 124.785 74.2866C125.085 74.2866 125.285 74.4866 125.285 74.7866V81.1866C125.285 81.4866 125.085 81.6866 124.785 81.6866Z" fill="#E3D2C8"/>
<path d="M119.584 79.7865C119.284 79.7865 119.084 79.5865 119.084 79.2865V76.6865C119.084 76.3865 119.284 76.1865 119.584 76.1865C119.884 76.1865 120.084 76.3865 120.084 76.6865V79.2865C120.184 79.5865 119.884 79.7865 119.584 79.7865Z" fill="#E3D2C8"/>
<path d="M114.484 79.7865C114.184 79.7865 113.984 79.5865 113.984 79.2865V76.6865C113.984 76.3865 114.184 76.1865 114.484 76.1865C114.784 76.1865 114.984 76.3865 114.984 76.6865V79.2865C114.984 79.5865 114.784 79.7865 114.484 79.7865Z" fill="#E3D2C8"/>
<path d="M109.285 79.7865C108.985 79.7865 108.785 79.5865 108.785 79.2865V76.6865C108.785 76.3865 108.985 76.1865 109.285 76.1865C109.585 76.1865 109.785 76.3865 109.785 76.6865V79.2865C109.785 79.5865 109.585 79.7865 109.285 79.7865Z" fill="#E3D2C8"/>
<path d="M104.084 79.7865C103.784 79.7865 103.584 79.5865 103.584 79.2865V76.6865C103.584 76.3865 103.784 76.1865 104.084 76.1865C104.384 76.1865 104.584 76.3865 104.584 76.6865V79.2865C104.684 79.5865 104.384 79.7865 104.084 79.7865Z" fill="#E3D2C8"/>
<path d="M129.984 79.7865C129.684 79.7865 129.484 79.5865 129.484 79.2865V76.6865C129.484 76.3865 129.684 76.1865 129.984 76.1865C130.284 76.1865 130.484 76.3865 130.484 76.6865V79.2865C130.484 79.5865 130.284 79.7865 129.984 79.7865Z" fill="#E3D2C8"/>
<path d="M135.084 79.7865C134.784 79.7865 134.584 79.5865 134.584 79.2865V76.6865C134.584 76.3865 134.784 76.1865 135.084 76.1865C135.384 76.1865 135.584 76.3865 135.584 76.6865V79.2865C135.684 79.5865 135.384 79.7865 135.084 79.7865Z" fill="#E3D2C8"/>
<path d="M140.284 79.7865C139.984 79.7865 139.784 79.5865 139.784 79.2865V76.6865C139.784 76.3865 139.984 76.1865 140.284 76.1865C140.584 76.1865 140.784 76.3865 140.784 76.6865V79.2865C140.784 79.5865 140.584 79.7865 140.284 79.7865Z" fill="#E3D2C8"/>
<path d="M145.484 79.7865C145.184 79.7865 144.984 79.5865 144.984 79.2865V76.6865C144.984 76.3865 145.184 76.1865 145.484 76.1865C145.784 76.1865 145.984 76.3865 145.984 76.6865V79.2865C145.984 79.5865 145.784 79.7865 145.484 79.7865Z" fill="#E3D2C8"/>
<path d="M212.285 55.7862C211.785 54.9862 211.085 54.4862 210.185 54.4862C208.085 54.4862 206.185 56.5862 205.485 60.2862C206.485 59.1862 207.885 58.6862 208.785 58.6862C211.085 58.6862 212.585 60.0862 212.585 62.7862C212.585 65.7862 210.385 68.5862 207.285 68.5862C204.485 68.5862 202.685 66.3862 202.685 63.1862C202.685 56.7862 205.885 52.3862 210.185 52.3862C211.985 52.3862 213.185 53.4862 213.785 54.4862L212.285 55.7862ZM210.185 62.9862C210.185 61.4862 209.485 60.4862 208.085 60.4862C207.385 60.4862 206.285 60.8862 205.185 62.1862C205.185 62.4862 205.185 62.8862 205.185 63.2862C205.185 65.2862 206.085 66.4862 207.485 66.4862C209.085 66.4862 210.185 64.5862 210.185 62.9862Z" fill="#FF4786"/>
<path d="M214.584 62.9861C214.584 56.5861 217.884 52.2861 221.284 52.2861C223.784 52.2861 225.384 54.3861 225.384 57.7861C225.384 64.1861 222.184 68.4861 218.784 68.4861C216.184 68.4861 214.584 66.3861 214.584 62.9861ZM217.084 63.1861C217.084 65.1861 217.684 66.3861 218.884 66.3861C220.984 66.3861 222.884 62.0861 222.884 57.5861C222.884 55.4861 222.284 54.2861 221.084 54.2861C218.984 54.2861 217.084 58.6861 217.084 63.1861Z" fill="#FF4786"/>
<path d="M197.885 75.6861C199.785 74.0861 200.885 73.1861 200.885 72.2861C200.885 71.8861 200.585 71.4861 200.085 71.4861C199.785 71.4861 199.485 71.6861 199.085 71.9861L198.685 71.4861C199.185 71.0861 199.685 70.7861 200.185 70.7861C201.185 70.7861 201.685 71.3861 201.685 72.1861C201.685 73.2861 200.785 74.0861 199.185 75.4861H201.285L201.185 76.2861H197.685L197.885 75.6861Z" fill="#593335"/>
<path d="M204.885 73.9859L204.185 72.0859H205.085L205.385 72.8859C205.485 73.0859 205.485 73.3859 205.585 73.5859C205.785 73.3859 205.885 73.0859 206.085 72.8859L206.685 72.0859H207.685L205.985 74.1859L206.785 76.1859H205.885L205.585 75.3859C205.485 75.1859 205.385 74.8859 205.285 74.6859C205.085 74.8859 204.985 75.1859 204.785 75.3859L204.185 76.1859H203.185L204.885 73.9859Z" fill="#593335"/>
<path d="M209.284 74.886C209.584 75.286 209.984 75.586 210.484 75.586C211.184 75.586 211.584 75.186 211.584 74.686C211.584 74.186 211.284 73.786 210.184 73.786L210.284 73.086C211.484 73.086 211.884 72.586 211.884 72.086C211.884 71.686 211.584 71.386 211.184 71.386C210.884 71.386 210.584 71.486 210.284 71.786L209.884 71.186C210.384 70.786 210.884 70.686 211.484 70.686C212.384 70.686 212.984 71.186 212.984 71.986C212.984 72.686 212.584 73.186 211.784 73.386C212.384 73.586 212.684 73.986 212.684 74.486C212.684 75.586 211.784 76.186 210.684 76.186C209.984 76.186 209.384 75.786 208.984 75.286L209.284 74.886Z" fill="#593335"/>
<path d="M213.185 74.386C213.185 72.186 214.285 70.686 215.485 70.686C216.285 70.686 216.885 71.386 216.885 72.586C216.885 74.786 215.785 76.286 214.585 76.286C213.785 76.286 213.185 75.586 213.185 74.386ZM214.085 74.486C214.085 75.186 214.285 75.586 214.685 75.586C215.385 75.586 216.085 74.086 216.085 72.586C216.085 71.886 215.885 71.486 215.485 71.486C214.685 71.486 214.085 72.986 214.085 74.486Z" fill="#593335"/>
<path d="M219.485 72.0863H220.185V72.6863C220.585 72.2863 221.085 71.9863 221.485 71.9863C222.085 71.9863 222.385 72.2863 222.485 72.7863C222.985 72.2863 223.485 71.9863 223.885 71.9863C224.585 71.9863 224.885 72.3863 224.885 72.9863C224.885 73.1863 224.885 73.3863 224.785 73.5863L224.285 76.1863H223.385L223.885 73.6863C223.885 73.4863 223.985 73.3863 223.985 73.2863C223.985 72.8863 223.785 72.7863 223.485 72.7863C223.285 72.7863 222.885 72.9863 222.485 73.3863L221.885 76.1863H221.085L221.585 73.6863C221.585 73.4863 221.685 73.3863 221.685 73.2863C221.685 72.8863 221.485 72.7863 221.185 72.7863C220.985 72.7863 220.585 72.9863 220.185 73.3863L219.585 76.1863H218.685L219.485 72.0863Z" fill="#593335"/>
<path d="M226.284 72.0861H227.184L226.384 76.1861H225.484L226.284 72.0861ZM226.384 70.8861C226.384 70.5861 226.684 70.2861 226.984 70.2861C227.284 70.2861 227.484 70.4861 227.484 70.7861C227.484 71.0861 227.184 71.3861 226.884 71.3861C226.684 71.3861 226.384 71.1861 226.384 70.8861Z" fill="#593335"/>
<path d="M228.284 72.0863H228.984V72.6863C229.384 72.2863 229.884 71.9863 230.384 71.9863C231.084 71.9863 231.384 72.3863 231.384 72.9863C231.384 73.1863 231.384 73.3863 231.284 73.5863L230.784 76.1863H229.884L230.384 73.6863C230.384 73.4863 230.484 73.3863 230.484 73.2863C230.484 72.8863 230.284 72.7863 229.984 72.7863C229.684 72.7863 229.384 72.9863 228.984 73.3863L228.384 76.1863H227.484L228.284 72.0863Z" fill="#593335"/>
<path d="M21.7847 65.4859C22.0847 65.8859 22.4847 66.1859 22.8847 66.1859C23.2847 66.1859 23.4847 65.9859 23.4847 65.6859C23.4847 65.4859 23.2847 65.2859 22.8847 65.0859L22.3847 64.7859C21.8847 64.4859 21.5847 64.0859 21.5847 63.3859C21.5847 62.3859 22.4847 61.5859 23.5847 61.5859C24.1847 61.5859 24.8847 61.8859 25.2847 62.3859L24.4847 63.1859C24.1847 62.8859 23.8847 62.6859 23.5847 62.6859C23.1847 62.6859 22.9847 62.8859 22.9847 63.1859C22.9847 63.3859 23.1847 63.4859 23.6847 63.7859L24.1847 64.0859C24.6847 64.3859 24.8847 64.7859 24.8847 65.3859C24.8847 66.3859 24.0847 67.1859 22.7847 67.1859C22.0847 67.1859 21.3847 66.8859 20.7847 66.0859L21.7847 65.4859Z" fill="#FF4786"/>
<path d="M27.0846 62.786H25.6846L25.8846 61.686H30.0846L29.8846 62.786H28.4846L27.5846 67.086H26.2846L27.0846 62.786Z" fill="#FF4786"/>
<path d="M30.8848 61.686H34.1848L33.9848 62.786H31.9848L31.7848 63.786H33.4848L33.2848 64.886H31.5848L31.3848 65.986H33.4848L33.2848 67.086H29.8848L30.8848 61.686Z" fill="#FF4786"/>
<path d="M37.1848 61.6859C38.2848 61.6859 39.0848 62.0859 39.0848 63.0859C39.0848 64.0859 38.4848 64.6859 37.7848 64.9859L38.5848 67.0859H37.1848L36.5848 65.1859H36.0848L35.6848 67.0859H34.3848L35.4848 61.5859H37.1848V61.6859ZM36.2848 64.1859H36.7848C37.4848 64.1859 37.8848 63.7859 37.8848 63.2859C37.8848 62.8859 37.5848 62.6859 37.0848 62.6859H36.5848L36.2848 64.1859Z" fill="#FF4786"/>
<path d="M40.5849 61.686H43.8849L43.6849 62.786H41.6849L41.4849 63.786H43.1849L42.9849 64.886H41.2849L41.0849 65.986H43.0849L42.8849 67.086H39.4849L40.5849 61.686Z" fill="#FF4786"/>
<path d="M44.1846 64.8859C44.1846 62.8859 45.5846 61.5859 46.9846 61.5859C48.2846 61.5859 49.0846 62.3859 49.0846 63.8859C49.0846 65.8859 47.6846 67.1859 46.2846 67.1859C45.0846 67.2859 44.1846 66.3859 44.1846 64.8859ZM45.5846 64.8859C45.5846 65.6859 45.8846 66.0859 46.3846 66.0859C46.9846 66.0859 47.7846 65.2859 47.7846 63.9859C47.7846 63.1859 47.4846 62.7859 46.9846 62.7859C46.3846 62.7859 45.5846 63.5859 45.5846 64.8859Z" fill="#FF4786"/>
<path d="M23.3849 71.9858C23.8849 71.9858 24.2849 72.1858 24.4849 72.4858L23.9849 72.9858C23.7849 72.7858 23.5849 72.6858 23.3849 72.6858C22.6849 72.6858 21.9849 73.5858 21.9849 74.5858C21.9849 75.1858 22.2849 75.5858 22.7849 75.5858C23.0849 75.5858 23.3849 75.3858 23.5849 75.2858L23.9849 75.8858C23.6849 76.0858 23.2849 76.3858 22.5849 76.3858C21.6849 76.3858 20.9849 75.7858 20.9849 74.6858C20.9849 73.1858 22.0849 71.9858 23.3849 71.9858Z" fill="#593335"/>
<path d="M26.7849 71.9858C27.1849 71.9858 27.5849 72.1858 27.7849 72.5858L27.9849 72.0858H28.6849L27.8849 76.1858H27.0849V75.5858C26.6849 75.9858 26.1849 76.2858 25.6849 76.2858C24.9849 76.2858 24.4849 75.7858 24.4849 74.7858C24.5849 73.1858 25.5849 71.9858 26.7849 71.9858ZM27.1849 74.8858L27.4849 73.2858C27.2849 72.8858 27.0849 72.7858 26.7849 72.7858C26.0849 72.7858 25.4849 73.6858 25.4849 74.7858C25.4849 75.3858 25.6849 75.6858 26.0849 75.6858C26.4849 75.5858 26.8849 75.3858 27.1849 74.8858Z" fill="#593335"/>
<path d="M29.2847 75.0859C29.5847 75.4859 29.8847 75.6859 30.2847 75.6859C30.6847 75.6859 30.9847 75.4859 30.9847 75.1859C30.9847 74.8859 30.7847 74.7859 30.2847 74.4859C29.7847 74.1859 29.3847 73.8859 29.3847 73.3859C29.3847 72.6859 30.0847 72.0859 30.8847 72.0859C31.3847 72.0859 31.8847 72.3859 32.1847 72.6859L31.6847 73.1859C31.4847 72.9859 31.1847 72.7859 30.8847 72.7859C30.4847 72.7859 30.1847 72.9859 30.1847 73.2859C30.1847 73.5859 30.5847 73.6859 30.8847 73.8859C31.4847 74.1859 31.7847 74.5859 31.7847 75.0859C31.7847 75.8859 31.0847 76.3859 30.1847 76.3859C29.6847 76.3859 29.0847 76.0859 28.7847 75.5859L29.2847 75.0859Z" fill="#593335"/>
<path d="M32.7847 75.0859C33.0847 75.4859 33.3847 75.6859 33.7847 75.6859C34.1847 75.6859 34.4847 75.4859 34.4847 75.1859C34.4847 74.8859 34.2847 74.7859 33.7847 74.4859C33.2847 74.1859 32.8847 73.8859 32.8847 73.3859C32.8847 72.6859 33.5847 72.0859 34.3847 72.0859C34.8847 72.0859 35.3847 72.3859 35.6847 72.6859L35.1847 73.1859C34.9847 72.9859 34.6847 72.7859 34.3847 72.7859C33.9847 72.7859 33.6847 72.9859 33.6847 73.2859C33.6847 73.5859 34.0847 73.6859 34.3847 73.8859C34.9847 74.1859 35.2847 74.5859 35.2847 75.0859C35.2847 75.8859 34.5847 76.3859 33.6847 76.3859C33.1847 76.3859 32.5847 76.0859 32.2847 75.5859L32.7847 75.0859Z" fill="#593335"/>
<path d="M38.2849 71.9858C39.2849 71.9858 39.5849 72.6858 39.5849 73.4858C39.5849 73.8858 39.4849 74.1858 39.3849 74.3858H36.8849C36.7849 75.2858 37.2849 75.5858 37.8849 75.5858C38.1849 75.5858 38.4849 75.3858 38.6849 75.2858L39.0849 75.8858C38.7849 76.0858 38.2849 76.2858 37.6849 76.2858C36.6849 76.2858 35.9849 75.6858 35.9849 74.5858C36.0849 72.9858 37.1849 71.9858 38.2849 71.9858ZM38.7849 73.7858C38.7849 73.6858 38.7849 73.5858 38.7849 73.3858C38.7849 72.9858 38.5849 72.5858 38.0849 72.5858C37.5849 72.5858 37.0849 72.9858 36.8849 73.6858H38.7849V73.7858Z" fill="#593335"/>
<path d="M40.7851 72.7858H40.1851L40.2851 72.0858H40.8851L41.1851 70.9858H41.9851L41.7851 72.0858H42.7851L42.6851 72.7858H41.6851L41.1851 74.8858C41.1851 74.9858 41.1851 75.0858 41.1851 75.1858C41.1851 75.4858 41.2851 75.6858 41.6851 75.6858C41.7851 75.6858 41.9851 75.5858 42.0851 75.5858L42.2851 76.1858C42.0851 76.2858 41.7851 76.3858 41.3851 76.3858C40.5851 76.3858 40.2851 75.9858 40.2851 75.3858C40.2851 75.1858 40.2851 75.0858 40.3851 74.8858L40.7851 72.7858Z" fill="#593335"/>
<path d="M43.685 72.7858H43.085L43.185 72.0858H43.785L44.085 70.9858H44.885L44.685 72.0858H45.685L45.585 72.7858H44.585L44.085 74.8858C44.085 74.9858 44.085 75.0858 44.085 75.1858C44.085 75.4858 44.185 75.6858 44.585 75.6858C44.685 75.6858 44.885 75.5858 44.985 75.5858L45.185 76.1858C44.985 76.2858 44.685 76.3858 44.285 76.3858C43.485 76.3858 43.185 75.9858 43.185 75.3858C43.185 75.1858 43.185 75.0858 43.285 74.8858L43.685 72.7858Z" fill="#593335"/>
<path d="M47.985 71.9858C48.985 71.9858 49.285 72.6858 49.285 73.4858C49.285 73.8858 49.185 74.1858 49.085 74.3858H46.585C46.485 75.2858 46.985 75.5858 47.585 75.5858C47.885 75.5858 48.185 75.3858 48.385 75.2858L48.685 75.8858C48.385 76.0858 47.885 76.2858 47.285 76.2858C46.285 76.2858 45.585 75.6858 45.585 74.5858C45.685 72.9858 46.885 71.9858 47.985 71.9858ZM48.485 73.7858C48.485 73.6858 48.485 73.5858 48.485 73.3858C48.485 72.9858 48.285 72.5858 47.785 72.5858C47.285 72.5858 46.785 72.9858 46.585 73.6858H48.485V73.7858Z" fill="#593335"/>
<path d="M189.984 99.6862H187.484L186.984 100.786H186.084L188.284 95.8862H189.184L191.384 100.786H190.384L189.984 99.6862ZM189.684 98.9862L188.784 96.8862L187.884 98.9862H189.684Z" fill="white"/>
<path d="M192.385 100.386C191.985 99.9863 191.785 99.4863 191.785 98.7863V95.9863H192.685V98.6863C192.685 99.6863 193.085 100.086 193.885 100.086C194.685 100.086 195.085 99.5863 195.085 98.6863V95.9863H195.985V98.7863C195.985 99.4863 195.785 100.086 195.385 100.386C194.985 100.786 194.485 100.986 193.785 100.986C193.285 100.886 192.785 100.786 192.385 100.386Z" fill="white"/>
<path d="M197.384 95.9863H199.484C199.984 95.9863 200.484 96.0863 200.884 96.2863C201.284 96.4863 201.584 96.7863 201.784 97.1863C201.984 97.5863 202.084 97.9863 202.084 98.4863C202.084 98.9863 201.984 99.3863 201.784 99.7863C201.584 100.186 201.284 100.486 200.884 100.686C200.484 100.886 199.984 100.986 199.484 100.986H197.384V95.9863ZM199.484 100.086C199.884 100.086 200.184 99.9863 200.384 99.8863C200.684 99.7863 200.884 99.5863 200.984 99.2863C201.084 98.9863 201.184 98.7863 201.184 98.3863C201.184 98.0863 201.084 97.7863 200.984 97.4863C200.884 97.1863 200.584 96.9863 200.384 96.8863C200.084 96.7863 199.784 96.6863 199.484 96.6863H198.284V100.086H199.484Z" fill="white"/>
<path d="M203.185 95.9863H204.085V100.886H203.185V95.9863Z" fill="white"/>
<path d="M206.385 100.586C205.985 100.386 205.685 100.086 205.485 99.6862C205.285 99.2862 205.185 98.8862 205.185 98.3862C205.185 97.8862 205.285 97.4862 205.485 97.0862C205.685 96.6862 205.985 96.3862 206.385 96.1862C206.785 95.9862 207.285 95.8862 207.785 95.8862C208.285 95.8862 208.685 95.9862 209.185 96.1862C209.585 96.3862 209.885 96.6862 210.085 97.0862C210.285 97.4862 210.385 97.8862 210.385 98.3862C210.385 98.8862 210.285 99.2862 210.085 99.6862C209.885 100.086 209.585 100.386 209.185 100.586C208.785 100.786 208.285 100.886 207.785 100.886C207.185 100.886 206.785 100.786 206.385 100.586ZM208.585 99.8862C208.885 99.7862 209.085 99.4862 209.185 99.2862C209.285 99.0862 209.385 98.6862 209.385 98.3862C209.385 98.0862 209.285 97.7862 209.185 97.4862C209.085 97.1862 208.785 96.9862 208.585 96.8862C208.285 96.7862 207.985 96.6862 207.685 96.6862C207.385 96.6862 207.085 96.7862 206.785 96.8862C206.485 96.9862 206.285 97.2862 206.185 97.4862C206.085 97.7862 205.985 98.0862 205.985 98.3862C205.985 98.6862 206.085 98.9862 206.185 99.2862C206.285 99.5862 206.585 99.7862 206.785 99.8862C207.085 99.9862 207.385 100.086 207.685 100.086C208.085 100.186 208.385 100.086 208.585 99.8862Z" fill="white"/>
<path d="M214.285 96.6862H212.685V95.8862H216.885V96.6862H215.285V100.786H214.385V96.6862H214.285Z" fill="white"/>
<path d="M220.384 99.6862H217.884L217.384 100.786H216.484L218.684 95.8862H219.584L221.784 100.786H220.784L220.384 99.6862ZM220.084 98.9862L219.184 96.8862L218.284 98.9862H220.084Z" fill="white"/>
<path d="M225.584 96.1862C225.884 96.2862 226.184 96.4862 226.284 96.7862C226.484 97.0862 226.584 97.3862 226.584 97.6862C226.584 98.0862 226.484 98.3862 226.284 98.5862C226.084 98.8862 225.884 99.0862 225.584 99.1862C225.284 99.2862 224.884 99.3862 224.484 99.3862H223.384V100.786H222.484V95.8862H224.484C224.884 95.9862 225.284 95.9862 225.584 96.1862ZM225.384 98.3862C225.584 98.1862 225.684 97.9862 225.684 97.6862C225.684 97.3862 225.584 97.0862 225.384 96.9862C225.184 96.7862 224.884 96.6862 224.484 96.6862H223.384V98.5862H224.484C224.884 98.6862 225.184 98.5862 225.384 98.3862Z" fill="white"/>
<path d="M231.184 100.086V100.886H227.484V95.9863H231.084V96.7863H228.384V98.0863H230.784V98.7863H228.384V100.186H231.184V100.086Z" fill="white"/>
<path d="M28.3847 23.7861H33.5847C34.3847 23.7861 35.0847 23.8861 35.7847 23.9861C36.4847 24.0861 37.0847 24.2861 37.5847 24.5861C38.0847 24.8861 38.4847 25.2861 38.7847 25.7861C39.0847 26.2861 39.1847 26.8861 39.1847 27.5861C39.1847 27.8861 39.0847 28.2861 38.9847 28.5861C38.8847 28.8861 38.6847 29.2861 38.4847 29.5861C38.2847 29.8861 37.9847 30.1861 37.6847 30.3861C37.3847 30.5861 36.9847 30.7861 36.5847 30.8861C37.6847 31.0861 38.4847 31.4861 39.0847 32.0861C39.6847 32.6861 39.8847 33.4861 39.8847 34.4861C39.8847 35.2861 39.6847 35.8861 39.3847 36.4861C39.0847 37.0861 38.6847 37.4861 38.0847 37.8861C37.5847 38.2861 36.8847 38.4861 36.1847 38.6861C35.4847 38.8861 34.6847 38.9861 33.8847 38.9861H28.2847V23.7861H28.3847ZM33.3847 29.8861C34.1847 29.8861 34.7847 29.6861 35.1847 29.3861C35.5847 29.0861 35.7847 28.5861 35.7847 27.9861C35.7847 27.3861 35.5847 26.9861 35.1847 26.7861C34.7847 26.5861 34.1847 26.3861 33.3847 26.3861H31.7847V29.8861H33.3847ZM33.7847 36.2861C35.6847 36.2861 36.5847 35.5861 36.5847 34.1861C36.5847 33.4861 36.3847 32.9861 35.8847 32.6861C35.3847 32.3861 34.6847 32.1861 33.7847 32.1861H31.8847V36.1861H33.7847V36.2861Z" fill="#593335"/>
<path d="M194.185 43.3862H55.3846C53.3846 43.3862 51.6846 41.7862 51.6846 39.6862V23.5862C51.6846 21.5862 53.2846 19.8862 55.3846 19.8862H194.185C196.185 19.8862 197.885 21.4862 197.885 23.5862V39.6862C197.885 41.6862 196.185 43.3862 194.185 43.3862Z" fill="white"/>
<path d="M192.885 27.7861H56.7847V28.0861H192.885V27.7861Z" fill="#876056"/>
<path d="M192.885 35.186H56.7847V35.486H192.885V35.186Z" fill="#876056"/>
<path d="M213.084 24.3862H214.184V29.2862H213.084V24.3862Z" fill="#593335"/>
<path d="M219.884 24.3862V29.2862H218.984L216.584 26.2862V29.2862H215.484V24.3862H216.384L218.784 27.3862V24.3862H219.884Z" fill="#593335"/>
<path d="M208.984 30.086H202.584V23.686H208.984V30.086ZM203.084 29.586H208.384V24.286H203.084V29.586Z" fill="#593335"/>
<path d="M214.085 37.7859C213.685 37.5859 213.385 37.2859 213.085 36.8859C212.885 36.4859 212.785 36.0859 212.785 35.5859C212.785 35.0859 212.885 34.6859 213.085 34.2859C213.285 33.8859 213.685 33.5859 214.085 33.3859C214.485 33.1859 214.985 33.0859 215.485 33.0859C215.985 33.0859 216.485 33.1859 216.885 33.3859C217.285 33.5859 217.585 33.8859 217.885 34.2859C218.085 34.6859 218.185 35.0859 218.185 35.5859C218.185 36.0859 218.085 36.4859 217.885 36.8859C217.685 37.2859 217.285 37.5859 216.885 37.7859C216.485 37.9859 215.985 38.0859 215.485 38.0859C214.885 38.1859 214.485 38.0859 214.085 37.7859ZM216.185 36.9859C216.385 36.8859 216.585 36.6859 216.685 36.3859C216.785 36.1859 216.885 35.8859 216.885 35.5859C216.885 35.2859 216.785 34.9859 216.685 34.7859C216.585 34.5859 216.385 34.3859 216.185 34.1859C215.985 34.0859 215.685 33.9859 215.385 33.9859C215.085 33.9859 214.785 34.0859 214.585 34.1859C214.385 34.2859 214.185 34.4859 214.085 34.7859C213.985 34.9859 213.885 35.2859 213.885 35.5859C213.885 35.8859 213.985 36.1859 214.085 36.3859C214.185 36.5859 214.385 36.7859 214.585 36.9859C214.785 37.0859 215.085 37.1859 215.385 37.1859C215.685 37.1859 215.985 37.0859 216.185 36.9859Z" fill="#593335"/>
<path d="M219.585 37.586C219.185 37.186 218.985 36.686 218.985 35.886V33.186H220.085V35.886C220.085 36.786 220.485 37.186 221.185 37.186C221.585 37.186 221.785 37.086 221.985 36.886C222.185 36.686 222.285 36.386 222.285 35.886V33.186H223.385V35.886C223.385 36.586 223.185 37.186 222.785 37.586C222.385 37.986 221.885 38.186 221.185 38.186C220.585 38.186 219.985 37.986 219.585 37.586Z" fill="#593335"/>
<path d="M225.785 34.086H224.185V33.186H228.485V34.086H226.885V38.086H225.785V34.086V34.086Z" fill="#593335"/>
<path d="M208.984 38.4859H202.584V32.0859H208.984V38.4859ZM203.084 37.9859H208.384V32.6859H203.084V37.9859Z" fill="#593335"/>
</g>
<defs>
<linearGradient id="paint0_linear_200_24917" x1="234.315" y1="9.66849" x2="242.049" y2="11.7554" gradientUnits="userSpaceOnUse">
<stop stop-color="#808080"/>
<stop offset="0.6421" stop-color="#545454"/>
<stop offset="1" stop-color="#404040"/>
</linearGradient>
<linearGradient id="paint1_linear_200_24917" x1="7.83039" y1="9.66852" x2="15.5645" y2="11.7554" gradientUnits="userSpaceOnUse">
<stop stop-color="#808080"/>
<stop offset="0.6421" stop-color="#545454"/>
<stop offset="1" stop-color="#404040"/>
</linearGradient>
<linearGradient id="paint2_linear_200_24917" x1="234.315" y1="148.662" x2="242.049" y2="150.749" gradientUnits="userSpaceOnUse">
<stop stop-color="#808080"/>
<stop offset="0.6421" stop-color="#545454"/>
<stop offset="1" stop-color="#404040"/>
</linearGradient>
<linearGradient id="paint3_linear_200_24917" x1="7.83041" y1="148.664" x2="15.5644" y2="150.751" gradientUnits="userSpaceOnUse">
<stop stop-color="#808080"/>
<stop offset="0.6421" stop-color="#545454"/>
<stop offset="1" stop-color="#404040"/>
</linearGradient>
<linearGradient id="paint4_linear_200_24917" x1="99.0936" y1="67.5233" x2="120.386" y2="67.5233" gradientUnits="userSpaceOnUse">
<stop stop-color="#1F0E05"/>
<stop offset="0.46" stop-color="#43281A"/>
<stop offset="1" stop-color="#734A36"/>
</linearGradient>
<linearGradient id="paint5_linear_200_24917" x1="141.117" y1="66.8978" x2="147.395" y2="68.0899" gradientUnits="userSpaceOnUse">
<stop stop-color="#734A36"/>
<stop offset="0.3957" stop-color="#492D1F"/>
<stop offset="0.7901" stop-color="#25140C"/>
<stop offset="1" stop-color="#170B05"/>
</linearGradient>
<clipPath id="clip0_200_24917">
<rect width="249" height="160" fill="white" transform="translate(0 0.282715)"/>
</clipPath>
</defs>
</svg>
