<svg width="249" height="164" viewBox="0 0 249 164" fill="none" xmlns="http://www.w3.org/2000/svg">
<g clip-path="url(#clip0_200_25988)">
<g clip-path="url(#clip1_200_25988)">
<path d="M5.64443 149.537L1.44443 147.937C0.644433 147.637 0.0444336 146.737 0.0444336 145.737V115.837C0.0444336 114.837 0.544433 113.937 1.44443 113.637L5.64443 112.037V149.537Z" fill="#333333"/>
<path d="M243.844 149.537L248.044 147.937C248.844 147.637 249.444 146.737 249.444 145.737V115.837C249.444 114.837 248.944 113.937 248.044 113.637L243.844 112.037V149.537Z" fill="#333333"/>
<path d="M240.644 -0.163574H8.84443C5.34443 -0.163574 2.54443 2.63643 2.54443 6.03643V154.136C2.54443 157.536 5.34443 160.336 8.74443 160.336H240.644C244.044 160.336 246.844 157.536 246.844 154.136V6.03643C246.944 2.63643 244.144 -0.163574 240.644 -0.163574ZM71.8444 82.3364C64.0444 82.3364 57.6444 76.0364 57.6444 68.1364C57.6444 60.3364 63.9444 53.9364 71.8444 53.9364C79.7444 53.9364 86.0444 60.2364 86.0444 68.1364C86.0444 76.0364 79.6444 82.3364 71.8444 82.3364ZM155.044 84.6364H94.4444V51.7364H155.044V84.6364ZM177.844 82.3364C170.044 82.3364 163.644 76.0364 163.644 68.1364C163.644 60.3364 169.944 53.9364 177.844 53.9364C185.744 53.9364 192.044 60.2364 192.044 68.1364C192.044 76.0364 185.644 82.3364 177.844 82.3364Z" fill="#1A1A1A"/>
<path d="M246.503 3.93604H2.93213V4.23604H246.503V3.93604Z" fill="black"/>
<path d="M245.03 1.63623H4.50098V1.93623H245.03V1.63623Z" fill="black"/>
<path d="M246.847 6.13623H2.54443V6.43623H246.847V6.13623Z" fill="black"/>
<path d="M246.847 8.43604H2.54443V8.73603H246.847V8.43604Z" fill="black"/>
<path d="M246.847 10.7363H2.54443V11.0363H246.847V10.7363Z" fill="black"/>
<path d="M246.847 13.0361H2.54443V13.3361H246.847V13.0361Z" fill="black"/>
<path d="M246.847 15.2363H2.54443V15.5363H246.847V15.2363Z" fill="black"/>
<path d="M246.847 17.5361H2.54443V17.8361H246.847V17.5361Z" fill="black"/>
<path d="M246.847 19.8364H2.54443V20.1364H246.847V19.8364Z" fill="black"/>
<path d="M246.847 22.1362H2.54443V22.4362H246.847V22.1362Z" fill="black"/>
<path d="M246.847 24.436H2.54443V24.736H246.847V24.436Z" fill="black"/>
<path d="M246.847 26.6362H2.54443V26.9362H246.847V26.6362Z" fill="black"/>
<path d="M246.847 28.936H2.54443V29.236H246.847V28.936Z" fill="black"/>
<path d="M246.847 31.2363H2.54443V31.5363H246.847V31.2363Z" fill="black"/>
<path d="M246.847 33.5361H2.54443V33.8361H246.847V33.5361Z" fill="black"/>
<path d="M246.847 35.8364H2.54443V36.1364H246.847V35.8364Z" fill="black"/>
<path d="M246.847 38.0361H2.54443V38.3361H246.847V38.0361Z" fill="black"/>
<path d="M246.847 40.3364H2.54443V40.6364H246.847V40.3364Z" fill="black"/>
<path d="M246.847 42.6362H2.54443V42.9362H246.847V42.6362Z" fill="black"/>
<path d="M246.847 44.936H2.54443V45.236H246.847V44.936Z" fill="black"/>
<path d="M246.847 47.2363H2.54443V47.5363H246.847V47.2363Z" fill="black"/>
<path d="M246.847 49.436H2.54443V49.736H246.847V49.436Z" fill="black"/>
<path d="M246.847 51.7363H2.54443V52.0363H246.847V51.7363Z" fill="black"/>
<path d="M246.847 54.0361H2.54443V54.3361H246.847V54.0361Z" fill="black"/>
<path d="M246.847 56.3364H2.54443V56.6364H246.847V56.3364Z" fill="black"/>
<path d="M246.847 58.6362H2.54443V58.9362H246.847V58.6362Z" fill="black"/>
<path d="M246.847 60.8364H2.54443V61.1364H246.847V60.8364Z" fill="black"/>
<path d="M246.847 63.1362H2.54443V63.4362H246.847V63.1362Z" fill="black"/>
<path d="M246.847 65.436H2.54443V65.736H246.847V65.436Z" fill="black"/>
<path d="M246.847 67.7363H2.54443V68.0363H246.847V67.7363Z" fill="black"/>
<path d="M246.847 69.936H2.54443V70.236H246.847V69.936Z" fill="black"/>
<path d="M246.847 72.2363H2.54443V72.5363H246.847V72.2363Z" fill="black"/>
<path d="M246.847 74.5361H2.54443V74.8361H246.847V74.5361Z" fill="black"/>
<path d="M246.847 76.8364H2.54443V77.1364H246.847V76.8364Z" fill="black"/>
<path d="M246.847 79.1362H2.54443V79.4362H246.847V79.1362Z" fill="black"/>
<path d="M246.847 81.3364H2.54443V81.6364H246.847V81.3364Z" fill="black"/>
<path d="M246.847 83.6362H2.54443V83.9362H246.847V83.6362Z" fill="black"/>
<path d="M246.847 85.936H2.54443V86.236H246.847V85.936Z" fill="black"/>
<path d="M246.847 88.2363H2.54443V88.5363H246.847V88.2363Z" fill="black"/>
<path d="M246.847 90.5361H2.54443V90.8361H246.847V90.5361Z" fill="black"/>
<path d="M246.847 92.7363H2.54443V93.0363H246.847V92.7363Z" fill="black"/>
<path d="M246.847 95.0361H2.54443V95.3361H246.847V95.0361Z" fill="black"/>
<path d="M246.847 97.3364H2.54443V97.6364H246.847V97.3364Z" fill="black"/>
<path d="M246.847 99.6362H2.54443V99.9362H246.847V99.6362Z" fill="black"/>
<path d="M246.847 101.936H2.54443V102.236H246.847V101.936Z" fill="black"/>
<path d="M246.847 104.136H2.54443V104.436H246.847V104.136Z" fill="black"/>
<path d="M246.847 106.436H2.54443V106.736H246.847V106.436Z" fill="black"/>
<path d="M246.847 108.736H2.54443V109.036H246.847V108.736Z" fill="black"/>
<path d="M246.847 111.036H2.54443V111.336H246.847V111.036Z" fill="black"/>
<path d="M246.847 113.336H2.54443V113.636H246.847V113.336Z" fill="black"/>
<path d="M246.847 115.536H2.54443V115.836H246.847V115.536Z" fill="black"/>
<path d="M246.847 117.836H2.54443V118.136H246.847V117.836Z" fill="black"/>
<path d="M246.847 120.136H2.54443V120.436H246.847V120.136Z" fill="black"/>
<path d="M246.847 122.436H2.54443V122.736H246.847V122.436Z" fill="black"/>
<path d="M246.847 124.636H2.54443V124.936H246.847V124.636Z" fill="black"/>
<path d="M246.847 126.936H2.54443V127.236H246.847V126.936Z" fill="black"/>
<path d="M246.847 129.236H2.54443V129.536H246.847V129.236Z" fill="black"/>
<path d="M246.847 131.536H2.54443V131.836H246.847V131.536Z" fill="black"/>
<path d="M246.847 133.836H2.54443V134.136H246.847V133.836Z" fill="black"/>
<path d="M246.847 136.036H2.54443V136.336H246.847V136.036Z" fill="black"/>
<path d="M246.847 138.336H2.54443V138.636H246.847V138.336Z" fill="black"/>
<path d="M246.847 140.636H2.54443V140.936H246.847V140.636Z" fill="black"/>
<path d="M246.847 142.936H2.54443V143.236H246.847V142.936Z" fill="black"/>
<path d="M246.847 145.236H2.54443V145.536H246.847V145.236Z" fill="black"/>
<path d="M246.809 147.436H2.54443V147.736H246.809V147.436Z" fill="black"/>
<path d="M246.847 149.736H2.54443V150.036H246.847V149.736Z" fill="black"/>
<path d="M246.847 152.036H2.54443V152.336H246.847V152.036Z" fill="black"/>
<path d="M246.807 154.336H2.54443V154.636H246.807V154.336Z" fill="black"/>
<path d="M246.099 156.636H3.27637V156.936H246.099V156.636Z" fill="black"/>
<path d="M244.17 158.836H5.29932V159.136H244.17V158.836Z" fill="black"/>
<path d="M234.244 112.937H15.3442V114.337H234.244V112.937Z" fill="#5C5C5C"/>
<path d="M25.5444 144.036H29.6444V133.136H26.1444V130.436C27.1444 130.236 28.0444 130.036 28.7444 129.736C29.4444 129.436 30.1444 129.136 30.8444 128.736H34.0444V144.036H37.5444V147.536H25.5444V144.036Z" fill="#404040"/>
<path d="M212.444 144.036H216.544V133.136H213.044V130.436C214.044 130.236 214.944 130.036 215.644 129.736C216.344 129.436 217.044 129.136 217.744 128.736H220.944V144.036H224.444V147.536H212.444V144.036Z" fill="#404040"/>
<path d="M198.344 160.436H184.444V121.836H186.644C192.744 121.836 194.444 127.436 195.144 134.236C196.144 143.636 198.344 160.436 198.344 160.436Z" fill="#808080"/>
<path d="M51.1445 160.436H65.0445V121.836H62.8445C56.7445 121.836 55.0445 127.436 54.3445 134.236C53.3445 143.636 51.1445 160.436 51.1445 160.436Z" fill="#808080"/>
<path d="M196.444 160.437H53.0444L56.6444 127.037C56.9444 123.837 59.6444 121.437 62.8444 121.437H186.544C189.744 121.437 192.344 123.837 192.744 127.037L196.444 160.437Z" fill="#333333"/>
<path d="M192.845 128.336C192.545 125.136 189.845 122.736 186.645 122.736H62.8445C59.6445 122.736 57.0445 125.136 56.6445 128.336V126.936C56.9445 123.736 59.6445 121.336 62.8445 121.336H186.545C189.745 121.336 192.345 123.736 192.745 126.936V128.336H192.845Z" fill="#666666"/>
<path d="M177.945 153.736C176.845 156.036 174.145 157.036 171.945 155.936C169.645 154.836 168.645 152.136 169.745 149.936C170.845 147.636 173.545 146.636 175.745 147.736C177.945 148.736 178.945 151.436 177.945 153.736Z" fill="#1A1A1A"/>
<path d="M177.945 153.736C176.845 156.036 174.145 157.036 171.945 155.936C170.045 155.036 169.045 153.136 169.345 151.136C169.645 152.536 170.545 153.736 171.845 154.336C174.145 155.436 176.845 154.436 177.845 152.136C178.045 151.736 178.145 151.336 178.245 150.836C178.445 151.836 178.345 152.836 177.945 153.736Z" fill="#999999"/>
<path d="M79.8445 153.736C78.7445 156.036 76.0445 157.036 73.8445 155.936C71.5445 154.836 70.5445 152.136 71.6445 149.936C72.7445 147.636 75.4445 146.636 77.6445 147.736C79.9445 148.736 80.9445 151.436 79.8445 153.736Z" fill="#1A1A1A"/>
<path d="M79.8445 153.736C78.7445 156.036 76.0445 157.036 73.8445 155.936C71.9445 155.036 70.9444 153.136 71.2444 151.136C71.5444 152.536 72.4444 153.736 73.7444 154.336C76.0444 155.436 78.7444 154.436 79.7444 152.136C79.9444 151.736 80.0444 151.336 80.1445 150.836C80.3444 151.836 80.2445 152.836 79.8445 153.736Z" fill="#999999"/>
<path d="M97.3444 149.936H90.6444C89.7444 149.936 89.0444 149.236 89.0444 148.336V143.736C89.0444 142.836 89.7444 142.136 90.6444 142.136H97.3444C98.2444 142.136 98.9444 142.836 98.9444 143.736V148.336C98.9444 149.136 98.2444 149.936 97.3444 149.936Z" fill="#1A1A1A"/>
<path d="M98.9444 147.736V148.736C98.9444 149.336 98.2444 149.936 97.3444 149.936H90.6444C89.7444 149.936 89.0444 149.436 89.0444 148.736V147.736C89.0444 148.336 89.7444 148.936 90.6444 148.936H97.3444C98.2444 148.836 98.9444 148.336 98.9444 147.736Z" fill="#999999"/>
<path d="M158.844 149.936H152.144C151.244 149.936 150.544 149.236 150.544 148.336V143.736C150.544 142.836 151.244 142.136 152.144 142.136H158.844C159.744 142.136 160.444 142.836 160.444 143.736V148.336C160.444 149.136 159.744 149.936 158.844 149.936Z" fill="#1A1A1A"/>
<path d="M160.444 147.736V148.736C160.444 149.336 159.744 149.936 158.844 149.936H152.144C151.244 149.936 150.544 149.436 150.544 148.736V147.736C150.544 148.336 151.244 148.936 152.144 148.936H158.844C159.744 148.836 160.444 148.336 160.444 147.736Z" fill="#999999"/>
<path d="M230.245 42.6362H19.2446C17.0446 42.6362 15.2446 44.4362 15.2446 46.6362V97.5362H234.145V46.6362C234.145 44.4362 232.445 42.6362 230.245 42.6362ZM71.8446 82.3362C64.0446 82.3362 57.6446 76.0362 57.6446 68.1362C57.6446 60.3362 63.9446 53.9362 71.8446 53.9362C79.7446 53.9362 86.0446 60.2362 86.0446 68.1362C86.0446 76.0362 79.6446 82.3362 71.8446 82.3362ZM155.045 84.6362H94.4446V51.7362H155.045V84.6362ZM177.845 82.3362C170.045 82.3362 163.645 76.0362 163.645 68.1362C163.645 60.3362 169.945 53.9362 177.845 53.9362C185.745 53.9362 192.045 60.2362 192.045 68.1362C192.045 76.0362 185.645 82.3362 177.845 82.3362Z" fill="#333333"/>
<path d="M234.245 97.436H15.3447V109.536H234.245V97.436Z" fill="#FF243D"/>
<path d="M45.3447 47.5361V88.8361H204.045V47.5361H45.3447ZM71.8447 82.3361C64.0447 82.3361 57.6447 76.0361 57.6447 68.1361C57.6447 60.3361 63.9447 53.9361 71.8447 53.9361C79.7447 53.9361 86.0447 60.2361 86.0447 68.1361C86.0447 76.0361 79.6447 82.3361 71.8447 82.3361ZM155.045 84.6361H94.4447V51.7361H155.045V84.6361ZM177.845 82.3361C170.045 82.3361 163.645 76.0361 163.645 68.1361C163.645 60.3361 169.945 53.9361 177.845 53.9361C185.745 53.9361 192.045 60.2361 192.045 68.1361C192.045 76.0361 185.645 82.3361 177.845 82.3361Z" fill="#1A1A1A"/>
<path d="M71.8445 54.0361C64.0445 54.0361 57.6445 60.3361 57.6445 68.2361C57.6445 76.0361 63.9445 82.4361 71.8445 82.4361C79.6445 82.4361 86.0445 76.1361 86.0445 68.2361C86.0445 60.3361 79.6445 54.0361 71.8445 54.0361ZM71.8445 81.0361C64.7445 81.0361 58.9445 75.2361 58.9445 68.1361C58.9445 61.0361 64.7445 55.2361 71.8445 55.2361C78.9445 55.2361 84.7445 61.0361 84.7445 68.1361C84.7445 75.2361 78.9445 81.0361 71.8445 81.0361Z" fill="white"/>
<path d="M82.9447 61.6362C79.3447 55.5362 71.4447 53.5362 65.3447 57.1362C59.2447 60.7362 57.2447 68.6362 60.8447 74.7362C64.4447 80.8362 72.3447 82.8362 78.4447 79.2362C84.5447 75.6362 86.5447 67.7362 82.9447 61.6362ZM78.8447 77.2362L78.0447 75.8362L75.6447 77.2362L76.5447 78.6362C73.6447 79.9362 70.3447 79.9362 67.5447 78.7362L68.3447 77.3362L65.9447 75.9362L65.1447 77.4362C63.9447 76.5362 62.8447 75.4362 62.0447 74.0362C61.2447 72.6362 60.7447 71.2362 60.5447 69.7362H62.2447V66.9362H60.5447C60.8447 63.9362 62.4447 61.0362 64.9447 59.1362L65.8447 60.5362L68.2447 59.1362L67.3447 57.7362C70.2447 56.4362 73.5447 56.4362 76.3447 57.6362L75.5447 59.0362L77.9447 60.4362L78.7447 58.9362C79.9447 59.8362 81.0447 60.9362 81.8447 62.3362C82.6447 63.7362 83.1447 65.1362 83.3447 66.6362H81.6447V69.4362H83.3447C82.9447 72.4362 81.3447 75.3362 78.8447 77.2362Z" fill="#333333"/>
<path d="M177.845 54.0361C170.045 54.0361 163.645 60.3361 163.645 68.2361C163.645 76.0361 169.945 82.4361 177.845 82.4361C185.645 82.4361 192.045 76.1361 192.045 68.2361C192.045 60.3361 185.645 54.0361 177.845 54.0361ZM177.845 81.0361C170.745 81.0361 164.945 75.2361 164.945 68.1361C164.945 61.0361 170.745 55.2361 177.845 55.2361C184.945 55.2361 190.745 61.0361 190.745 68.1361C190.745 75.2361 184.945 81.0361 177.845 81.0361Z" fill="white"/>
<path d="M188.945 61.6362C185.345 55.5362 177.445 53.5362 171.345 57.1362C165.245 60.7362 163.245 68.6362 166.845 74.7362C170.445 80.8362 178.345 82.8362 184.445 79.2362C190.545 75.6362 192.545 67.7362 188.945 61.6362ZM184.845 77.2362L183.945 75.8362L181.545 77.2362L182.445 78.6362C179.545 79.9362 176.245 79.9362 173.445 78.7362L174.245 77.3362L171.845 75.9362L171.045 77.4362C169.845 76.5362 168.745 75.4362 167.945 74.0362C167.145 72.6362 166.645 71.2362 166.445 69.7362H168.145V66.9362H166.445C166.745 63.9362 168.345 61.0362 170.845 59.1362L171.745 60.5362L174.145 59.1362L173.245 57.7362C176.145 56.4362 179.445 56.4362 182.245 57.6362L181.445 59.0362L183.845 60.4362L184.645 58.9362C185.845 59.8362 186.945 60.9362 187.745 62.3362C188.545 63.7362 189.045 65.1362 189.245 66.6362H187.545V69.4362H189.245C188.945 72.4362 187.445 75.3362 184.845 77.2362Z" fill="#333333"/>
<path d="M117.745 51.7363H94.5449V84.6363H117.745C119.545 79.5363 120.545 73.9363 120.545 68.1363C120.545 62.3363 119.545 56.8363 117.745 51.7363Z" fill="url(#paint0_linear_200_25988)"/>
<path d="M96.8447 68.1363C96.8447 73.6363 95.2447 78.7363 92.3447 83.0363V53.2363C95.2447 57.5363 96.8447 62.6363 96.8447 68.1363Z" fill="#F2ECEB"/>
<path d="M151.045 51.7363C148.145 56.5363 146.445 62.1363 146.445 68.1363C146.445 74.1363 148.145 79.8363 151.045 84.6363H155.045V51.7363H151.045Z" fill="url(#paint1_linear_200_25988)"/>
<path d="M157.145 53.5361V82.7361C154.445 78.5361 152.845 73.5361 152.845 68.1361C152.845 62.7361 154.445 57.7361 157.145 53.5361Z" fill="#F2ECEB"/>
<path opacity="0.12" d="M155.045 51.7363H94.4448V84.6363H155.045V51.7363Z" fill="#F2ECEB"/>
<path d="M124.745 71.7362C124.545 71.7362 124.345 71.5362 124.345 71.3362V64.9362C124.345 64.7362 124.545 64.6362 124.745 64.6362C124.945 64.6362 125.045 64.8362 125.045 64.9362V71.3362C125.145 71.5362 124.945 71.7362 124.745 71.7362Z" fill="#D4C9C2"/>
<path d="M119.045 69.8361C118.845 69.8361 118.645 69.6361 118.645 69.5361V66.8361C118.645 66.6361 118.845 66.5361 119.045 66.5361C119.245 66.5361 119.345 66.7361 119.345 66.8361V69.4361C119.345 69.6361 119.245 69.8361 119.045 69.8361Z" fill="#D4C9C2"/>
<path d="M113.245 69.8361C113.045 69.8361 112.945 69.6361 112.945 69.5361V66.8361C112.945 66.6361 113.145 66.5361 113.245 66.5361C113.445 66.5361 113.545 66.7361 113.545 66.8361V69.4361C113.645 69.6361 113.445 69.8361 113.245 69.8361Z" fill="#D4C9C2"/>
<path d="M107.545 69.8361C107.345 69.8361 107.245 69.6361 107.245 69.5361V66.8361C107.245 66.6361 107.445 66.5361 107.545 66.5361C107.745 66.5361 107.845 66.7361 107.845 66.8361V69.4361C107.845 69.6361 107.745 69.8361 107.545 69.8361Z" fill="#D4C9C2"/>
<path d="M101.745 69.8361C101.545 69.8361 101.445 69.6361 101.445 69.5361V66.8361C101.445 66.6361 101.645 66.5361 101.745 66.5361C101.945 66.5361 102.145 66.7361 102.145 66.8361V69.4361C102.145 69.6361 101.945 69.8361 101.745 69.8361Z" fill="#D4C9C2"/>
<path d="M130.445 69.8361C130.245 69.8361 130.145 69.6361 130.145 69.5361V66.8361C130.145 66.6361 130.345 66.5361 130.445 66.5361C130.645 66.5361 130.845 66.7361 130.845 66.8361V69.4361C130.845 69.6361 130.645 69.8361 130.445 69.8361Z" fill="#D4C9C2"/>
<path d="M136.245 69.8361C136.045 69.8361 135.945 69.6361 135.945 69.5361V66.8361C135.945 66.6361 136.145 66.5361 136.245 66.5361C136.445 66.5361 136.645 66.7361 136.645 66.8361V69.4361C136.545 69.6361 136.445 69.8361 136.245 69.8361Z" fill="#D4C9C2"/>
<path d="M141.945 69.8361C141.745 69.8361 141.545 69.6361 141.545 69.5361V66.8361C141.545 66.6361 141.745 66.5361 141.945 66.5361C142.145 66.5361 142.245 66.7361 142.245 66.8361V69.4361C142.345 69.6361 142.145 69.8361 141.945 69.8361Z" fill="#D4C9C2"/>
<path d="M147.745 69.8361C147.545 69.8361 147.345 69.6361 147.345 69.5361V66.8361C147.345 66.6361 147.545 66.5361 147.745 66.5361C147.945 66.5361 148.045 66.7361 148.045 66.8361V69.4361C148.045 69.6361 147.945 69.8361 147.745 69.8361Z" fill="#D4C9C2"/>
<path d="M232.444 38.9364H17.0442C16.1442 38.9364 15.3442 38.1364 15.3442 37.2364V11.5364C15.3442 10.6364 16.1442 9.83643 17.0442 9.83643H232.444C233.344 9.83643 234.144 10.6364 234.144 11.5364V37.1364C234.144 38.1364 233.444 38.9364 232.444 38.9364Z" fill="white"/>
<path d="M228.244 15.2363H21.3442V15.5363H228.244V15.2363Z" fill="#404040"/>
<path d="M228.244 21.2363H21.3442V21.5363H228.244V21.2363Z" fill="#404040"/>
<path d="M228.244 27.2363H21.3442V27.5363H228.244V27.2363Z" fill="#404040"/>
<path d="M228.244 33.2363H21.3442V33.5363H228.244V33.2363Z" fill="#404040"/>
<path d="M67.8444 9.93652H67.5444V38.9365H67.8444V9.93652Z" fill="#404040"/>
<path d="M124.844 9.93652H124.544V38.9365H124.844V9.93652Z" fill="#404040"/>
<path d="M181.844 9.93652H181.544V38.9365H181.844V9.93652Z" fill="#404040"/>
<path d="M33.3443 72.4363H27.2443L26.0443 77.1363H21.4443L27.6443 57.2363H33.0443L39.2443 77.1363H34.5443L33.3443 72.4363ZM32.4443 68.8363L31.9443 67.0363C31.6443 66.0363 31.3443 64.9363 31.1443 63.8363C30.8443 62.7363 30.6443 61.6363 30.3443 60.6363H30.2443C30.0443 61.7363 29.7443 62.7363 29.5443 63.9363C29.2443 65.0363 29.0443 66.1363 28.7443 67.1363L28.1443 68.8363H32.4443Z" fill="white"/>
<path d="M209.144 72.4363C209.544 73.0363 210.044 73.5363 210.844 73.5363C212.444 73.5363 213.844 72.2363 214.444 69.5363C213.644 70.3363 212.444 70.8363 211.744 70.8363C209.744 70.8363 208.044 69.7363 208.044 66.9363C208.044 64.0363 210.244 61.2363 213.444 61.2363C216.344 61.2363 218.244 63.4363 218.244 66.6363C218.244 72.7363 215.044 76.6363 210.644 76.6363C208.644 76.6363 207.444 75.4363 206.844 74.5363L209.144 72.4363ZM214.744 66.9363C214.744 66.6363 214.744 66.3363 214.744 66.1363C214.744 64.6363 214.044 63.9363 213.244 63.9363C211.944 63.9363 211.444 65.5363 211.444 66.6363C211.444 67.6363 211.944 68.3363 212.744 68.3363C213.344 68.2363 214.044 67.9363 214.744 66.9363Z" fill="#1A1A1A"/>
<path d="M219.644 71.0362C219.644 64.1362 223.144 61.1362 226.344 61.1362C228.744 61.1362 230.644 62.8362 230.644 66.5362C230.644 73.4362 227.144 76.4362 224.044 76.4362C221.544 76.4362 219.644 74.8362 219.644 71.0362ZM223.044 71.5362C223.044 73.2362 223.544 73.6362 224.244 73.6362C225.644 73.6362 227.244 70.6362 227.244 66.1362C227.244 64.4362 226.744 63.9362 226.044 63.9362C224.644 64.0362 223.044 67.0362 223.044 71.5362Z" fill="#1A1A1A"/>
<path d="M156.044 105.036C156.444 105.536 156.844 105.736 157.244 105.736C157.644 105.736 157.944 105.536 157.944 105.336C157.944 105.036 157.544 104.936 156.944 104.536C156.344 104.236 155.844 103.636 155.844 102.836C155.844 101.736 156.944 100.836 158.244 100.836C159.144 100.836 159.744 101.236 160.244 101.836L159.244 102.836C158.944 102.536 158.644 102.336 158.244 102.336C157.844 102.336 157.644 102.536 157.644 102.736C157.644 103.036 158.144 103.236 158.644 103.436C159.244 103.736 159.844 104.236 159.844 105.136C159.844 106.336 158.744 107.136 157.244 107.136C156.544 107.136 155.644 106.736 155.044 105.936L156.044 105.036Z" fill="white"/>
<path d="M161.445 102.537H160.645L160.945 101.137L161.845 101.037L162.345 99.5366H163.945L163.645 101.037H164.945L164.645 102.537H163.345L162.845 104.737C162.845 104.837 162.845 105.037 162.845 105.137C162.845 105.537 163.045 105.637 163.445 105.637C163.545 105.637 163.745 105.637 163.845 105.537L164.145 106.837C163.845 106.937 163.345 107.137 162.645 107.137C161.345 107.137 160.845 106.437 160.845 105.437C160.845 105.137 160.845 104.937 160.945 104.637L161.445 102.537Z" fill="white"/>
<path d="M168.244 100.836C169.744 100.836 170.244 101.836 170.244 103.136C170.244 103.736 170.044 104.436 169.944 104.536H166.744C166.744 105.336 167.244 105.636 167.944 105.636C168.244 105.636 168.644 105.436 168.944 105.236L169.644 106.436C169.144 106.736 168.444 107.036 167.444 107.036C165.944 107.036 164.944 106.036 164.944 104.436C164.844 102.336 166.644 100.836 168.244 100.836ZM168.644 103.436C168.644 103.336 168.644 103.236 168.644 103.036C168.644 102.636 168.444 102.336 167.944 102.336C167.444 102.336 167.044 102.636 166.744 103.436H168.644Z" fill="white"/>
<path d="M171.845 101.037H173.345V102.237C173.845 101.437 174.445 100.937 175.145 100.937C175.445 100.937 175.645 100.937 175.745 101.037L175.145 102.637C174.945 102.537 174.745 102.537 174.545 102.537C174.045 102.537 173.645 102.837 173.145 103.637L172.545 106.937H170.645L171.845 101.037Z" fill="white"/>
<path d="M178.844 100.836C180.344 100.836 180.844 101.836 180.844 103.136C180.844 103.736 180.644 104.436 180.544 104.536H177.344C177.344 105.336 177.844 105.636 178.544 105.636C178.844 105.636 179.244 105.436 179.544 105.236L180.244 106.436C179.744 106.736 179.044 107.036 178.044 107.036C176.544 107.036 175.544 106.036 175.544 104.436C175.544 102.336 177.244 100.836 178.844 100.836ZM179.244 103.436C179.244 103.336 179.244 103.236 179.244 103.036C179.244 102.636 179.044 102.336 178.544 102.336C178.044 102.336 177.644 102.636 177.344 103.436H179.244Z" fill="white"/>
<path d="M181.444 104.636C181.444 102.336 183.144 100.836 184.844 100.836C186.244 100.836 187.244 101.836 187.244 103.336C187.244 105.636 185.544 107.136 183.844 107.136C182.444 107.136 181.444 106.136 181.444 104.636ZM183.444 104.636C183.444 105.236 183.644 105.636 184.144 105.636C184.844 105.636 185.344 104.736 185.344 103.436C185.344 102.836 185.144 102.436 184.644 102.436C183.944 102.436 183.444 103.336 183.444 104.636Z" fill="white"/>
<path d="M193.744 100.937C194.444 100.937 194.944 101.237 195.244 101.637L194.544 102.437C194.244 102.137 194.044 101.937 193.644 101.937C192.644 101.937 191.644 103.137 191.644 104.637C191.644 105.537 192.044 106.037 192.844 106.037C193.344 106.037 193.644 105.837 193.944 105.537L194.444 106.337C194.044 106.637 193.444 107.037 192.544 107.037C191.244 107.037 190.344 106.137 190.344 104.637C190.344 102.637 191.844 100.937 193.744 100.937Z" fill="#1A1A1A"/>
<path d="M198.544 100.937C199.144 100.937 199.644 101.237 199.844 101.737L200.044 101.037H201.044L199.844 106.837H198.844L198.944 106.037C198.444 106.637 197.644 107.037 197.044 107.037C196.044 107.037 195.344 106.237 195.344 104.937C195.444 102.737 196.944 100.937 198.544 100.937ZM199.144 105.037L199.644 102.737C199.344 102.237 199.044 102.037 198.644 102.037C197.644 102.037 196.744 103.337 196.744 104.837C196.744 105.737 197.044 106.137 197.644 106.137C198.144 106.037 198.644 105.737 199.144 105.037Z" fill="#1A1A1A"/>
<path d="M202.144 105.337C202.544 105.837 203.044 106.137 203.544 106.137C204.044 106.137 204.544 105.837 204.544 105.337C204.544 104.937 204.244 104.737 203.544 104.337C202.744 103.937 202.344 103.437 202.344 102.737C202.344 101.637 203.344 100.937 204.444 100.937C205.244 100.937 205.844 101.337 206.244 101.737L205.544 102.437C205.244 102.137 204.844 101.937 204.444 101.937C203.944 101.937 203.544 102.237 203.544 102.637C203.544 103.037 204.044 103.237 204.544 103.537C205.444 104.037 205.844 104.437 205.844 105.137C205.844 106.237 204.844 107.037 203.544 107.037C202.844 107.037 201.944 106.537 201.544 105.937L202.144 105.337Z" fill="#1A1A1A"/>
<path d="M207.044 105.337C207.444 105.837 207.944 106.137 208.444 106.137C208.944 106.137 209.444 105.837 209.444 105.337C209.444 104.937 209.144 104.737 208.444 104.337C207.644 103.937 207.244 103.437 207.244 102.737C207.244 101.637 208.244 100.937 209.344 100.937C210.144 100.937 210.744 101.337 211.144 101.737L210.444 102.437C210.144 102.137 209.744 101.937 209.344 101.937C208.844 101.937 208.444 102.237 208.444 102.637C208.444 103.037 208.944 103.237 209.444 103.537C210.344 104.037 210.744 104.437 210.744 105.137C210.744 106.237 209.744 107.037 208.444 107.037C207.744 107.037 206.844 106.537 206.444 105.937L207.044 105.337Z" fill="#1A1A1A"/>
<path d="M214.944 100.937C216.344 100.937 216.844 101.837 216.844 103.137C216.844 103.637 216.644 104.137 216.644 104.337H213.044C212.944 105.537 213.644 106.137 214.444 106.137C214.844 106.137 215.344 105.937 215.644 105.637L216.144 106.437C215.644 106.737 214.944 107.037 214.144 107.037C212.744 107.037 211.844 106.137 211.844 104.537C211.744 102.437 213.344 100.937 214.944 100.937ZM215.644 103.537C215.644 103.337 215.744 103.237 215.744 103.037C215.744 102.437 215.544 101.937 214.744 101.937C214.044 101.937 213.344 102.537 213.044 103.537H215.644Z" fill="#1A1A1A"/>
<path d="M218.344 102.137H217.544L217.744 101.137L218.644 101.037L219.144 99.4365H220.244L219.944 101.037H221.344L221.144 102.037H219.744L219.144 104.937C219.144 105.037 219.144 105.237 219.144 105.337C219.144 105.737 219.344 105.937 219.844 105.937C220.044 105.937 220.244 105.837 220.344 105.737L220.544 106.637C220.244 106.737 219.844 106.937 219.344 106.937C218.244 106.937 217.844 106.337 217.844 105.537C217.844 105.337 217.844 105.037 217.944 104.837L218.344 102.137Z" fill="#1A1A1A"/>
<path d="M222.445 102.137H221.645L221.845 101.137L222.745 101.037L223.245 99.4365H224.345L224.045 101.037H225.445L225.245 102.037H223.845L223.245 104.937C223.245 105.037 223.245 105.237 223.245 105.337C223.245 105.737 223.445 105.937 223.945 105.937C224.145 105.937 224.345 105.837 224.445 105.737L224.645 106.637C224.345 106.737 223.945 106.937 223.445 106.937C222.345 106.937 221.945 106.337 221.945 105.537C221.945 105.337 221.945 105.037 222.045 104.837L222.445 102.137Z" fill="#1A1A1A"/>
<path d="M228.545 100.937C229.945 100.937 230.445 101.837 230.445 103.137C230.445 103.637 230.245 104.137 230.245 104.337H226.645C226.545 105.537 227.245 106.137 228.045 106.137C228.445 106.137 228.945 105.937 229.245 105.637L229.745 106.437C229.245 106.737 228.545 107.037 227.745 107.037C226.345 107.037 225.445 106.137 225.445 104.537C225.345 102.437 227.045 100.937 228.545 100.937ZM229.345 103.537C229.345 103.337 229.445 103.237 229.445 103.037C229.445 102.437 229.245 101.937 228.445 101.937C227.745 101.937 227.045 102.537 226.745 103.537H229.345Z" fill="#1A1A1A"/>
<path d="M19.1443 106.437C21.0443 104.837 22.1443 103.937 22.1443 103.037C22.1443 102.637 21.8443 102.237 21.3443 102.237C21.0443 102.237 20.7443 102.437 20.3443 102.737L19.9443 102.237C20.4443 101.837 20.9443 101.537 21.4443 101.537C22.4443 101.537 22.9443 102.137 22.9443 102.937C22.9443 104.037 22.0443 104.837 20.4443 106.237H22.5443L22.4443 107.037H18.9443L19.1443 106.437Z" fill="white"/>
<path d="M26.4441 104.736L25.7441 102.836H26.6441L26.9441 103.636C27.0441 103.836 27.0441 104.136 27.1441 104.336C27.3441 104.136 27.4441 103.836 27.6441 103.636L28.2441 102.836H29.2441L27.5441 104.936L28.3441 106.936H27.4441L27.1441 106.136C27.0441 105.936 26.9441 105.636 26.8441 105.436C26.6441 105.636 26.5441 105.936 26.3441 106.136L25.7441 106.936H24.7441L26.4441 104.736Z" fill="white"/>
<path d="M32.5444 106.937L32.8444 105.537H30.5444L30.6444 104.937L33.3444 101.637H34.4444L33.7444 104.937H34.4444L34.3444 105.637H33.6444L33.3444 107.037H32.5444V106.937ZM32.9444 104.837L33.2444 103.537C33.3444 103.137 33.4444 102.837 33.5444 102.437C33.3444 102.737 33.1444 103.037 32.9444 103.337L31.5444 104.837H32.9444Z" fill="white"/>
<path d="M35.1444 105.637C35.4444 106.037 35.7444 106.337 36.2444 106.337C36.8444 106.337 37.4444 105.837 37.4444 105.137C37.4444 104.537 37.1444 104.237 36.6444 104.237C36.3444 104.237 36.1444 104.337 35.8444 104.537L35.4444 104.237L36.1444 101.637H38.8444L38.6444 102.437H36.7444L36.3444 103.737C36.5444 103.637 36.7444 103.637 36.9444 103.637C37.7444 103.637 38.3444 104.137 38.3444 105.037C38.3444 106.337 37.3444 107.137 36.2444 107.137C35.5444 107.137 34.9444 106.837 34.5444 106.237L35.1444 105.637Z" fill="white"/>
<path d="M41.4444 102.837H42.1444V103.437C42.5444 103.037 43.0444 102.737 43.4444 102.737C44.0444 102.737 44.3444 103.037 44.4444 103.537C44.9444 103.037 45.4444 102.737 45.8444 102.737C46.5444 102.737 46.8444 103.137 46.8444 103.737C46.8444 103.937 46.8444 104.137 46.7444 104.337L46.2444 106.937H45.3444L45.8444 104.437C45.8444 104.237 45.9444 104.137 45.9444 104.037C45.9444 103.637 45.7444 103.537 45.4444 103.537C45.2444 103.537 44.8444 103.737 44.4444 104.137L43.8444 106.937H42.9444L43.4444 104.437C43.4444 104.237 43.5444 104.137 43.5444 104.037C43.5444 103.637 43.3444 103.537 43.0444 103.537C42.8444 103.537 42.4444 103.737 42.0444 104.137L41.4444 106.937H40.5444L41.4444 102.837Z" fill="white"/>
<path d="M48.2443 102.837H49.1443L48.3443 106.937H47.4443L48.2443 102.837ZM48.4443 101.637C48.4443 101.337 48.7443 101.037 49.0443 101.037C49.3443 101.037 49.5443 101.237 49.5443 101.537C49.5443 101.837 49.2443 102.137 48.9443 102.137C48.6443 102.137 48.4443 101.937 48.4443 101.637Z" fill="white"/>
<path d="M50.3444 102.837H51.0444V103.437C51.4444 103.037 51.9444 102.737 52.4444 102.737C53.1444 102.737 53.4444 103.137 53.4444 103.737C53.4444 103.937 53.4444 104.137 53.3444 104.337L52.8444 106.937H51.9444L52.4444 104.437C52.4444 104.237 52.5444 104.137 52.5444 104.037C52.5444 103.637 52.3444 103.537 52.0444 103.537C51.7444 103.537 51.4444 103.737 51.0444 104.137L50.4444 106.937H49.5444L50.3444 102.837Z" fill="white"/>
</g>
</g>
<defs>
<linearGradient id="paint0_linear_200_25988" x1="98.9529" y1="68.1715" x2="121.517" y2="68.1715" gradientUnits="userSpaceOnUse">
<stop stop-color="#1F0E05"/>
<stop offset="0.46" stop-color="#43281A"/>
<stop offset="1" stop-color="#734A36"/>
</linearGradient>
<linearGradient id="paint1_linear_200_25988" x1="146.688" y1="67.5399" x2="153.044" y2="68.1713" gradientUnits="userSpaceOnUse">
<stop stop-color="#734A36"/>
<stop offset="0.54" stop-color="#43281A"/>
<stop offset="1" stop-color="#1F0E05"/>
</linearGradient>
<clipPath id="clip0_200_25988">
<rect width="249" height="163" fill="white" transform="translate(0 0.282715)"/>
</clipPath>
<clipPath id="clip1_200_25988">
<rect width="274.4" height="163.9" fill="white" transform="translate(-8.45557 -0.163574)"/>
</clipPath>
</defs>
</svg>
